STARTFONT 2.1
COMMENT
COMMENT Converted from OpenType font "IBMPlexMono-Regular.ttf" by "otf2bdf 3.0".
COMMENT
FONT -FreeType-IBM Plex Mono-Medium-R-Normal--25-180-100-100-P-118-ISO10646-1
SIZE 18 100 100
FONTBOUNDINGBOX 21 35 -5 -7
STARTPROPERTIES 19
FOUNDRY "FreeType"
FAMILY_NAME "IBM Plex Mono"
WEIGHT_NAME "Medium"
SLANT "R"
SETWIDTH_NAME "Normal"
ADD_STYLE_NAME ""
PIXEL_SIZE 25
POINT_SIZE 180
RESOLUTION_X 100
RESOLUTION_Y 100
SPACING "P"
AVERAGE_WIDTH 118
CHARSET_REGISTRY "ISO10646"
CHARSET_ENCODING "1"
FONT_ASCENT 25
FONT_DESCENT 6
COPYRIGHT "Copyright 2017 IBM Corp. All rights reserved."
_OTF_FONTFILE "IBMPlexMono-Regular.ttf"
_OTF_PSNAME "IBMPlexMono-Regular"
ENDPROPERTIES
CHARS 749
STARTCHAR 0000
ENCODING 0
SWIDTH 0 0
DWIDTH 0 0
BBX 0 0 0 0
BITMAP
ENDCHAR
STARTCHAR 000D
ENCODING 13
SWIDTH 600 0
DWIDTH 15 0
BBX 0 0 0 0
BITMAP
ENDCHAR
STARTCHAR 0020
ENCODING 32
SWIDTH 600 0
DWIDTH 15 0
BBX 0 0 0 0
BITMAP
ENDCHAR
STARTCHAR 0021
ENCODING 33
SWIDTH 600 0
DWIDTH 15 0
BBX 3 17 6 0
BITMAP
E0
E0
E0
E0
E0
E0
40
40
40
40
40
00
00
00
E0
E0
E0
ENDCHAR
STARTCHAR 0022
ENCODING 34
SWIDTH 600 0
DWIDTH 15 0
BBX 7 7 4 12
BITMAP
C6
C6
C6
C6
C6
C6
C6
ENDCHAR
STARTCHAR 0023
ENCODING 35
SWIDTH 600 0
DWIDTH 15 0
BBX 15 17 0 0
BITMAP
0330
0230
0630
0630
0620
7E7E
7C7E
0C60
0C60
0C60
FC7C
FCFC
08C0
18C0
18C0
1880
1980
ENDCHAR
STARTCHAR 0024
ENCODING 36
SWIDTH 600 0
DWIDTH 15 0
BBX 13 23 1 -3
BITMAP
0300
0300
0300
0FC0
3FE0
7370
6318
6300
6300
7300
3F00
1FE0
03F0
0338
0318
4318
6338
F370
3FE0
0FC0
0300
0300
0300
ENDCHAR
STARTCHAR 0025
ENCODING 37
SWIDTH 600 0
DWIDTH 15 0
BBX 15 17 0 0
BITMAP
3C0E
7E0C
6318
4318
C330
6330
7E60
3C60
0000
0C78
0CFC
198C
1984
3186
318C
60FC
E078
ENDCHAR
STARTCHAR 0026
ENCODING 38
SWIDTH 600 0
DWIDTH 15 0
BBX 13 17 1 0
BITMAP
1F00
3F80
71C0
6080
6000
7000
3000
1878
7C78
EE60
C760
C3E0
C1E0
C0C0
E1E0
7F30
3E18
ENDCHAR
STARTCHAR 0027
ENCODING 39
SWIDTH 600 0
DWIDTH 15 0
BBX 1 7 7 12
BITMAP
80
80
80
80
80
80
80
ENDCHAR
STARTCHAR 0028
ENCODING 40
SWIDTH 600 0
DWIDTH 15 0
BBX 7 22 5 -3
BITMAP
06
0C
18
30
20
60
60
40
C0
C0
C0
C0
C0
C0
40
60
60
20
30
18
0C
06
ENDCHAR
STARTCHAR 0029
ENCODING 41
SWIDTH 600 0
DWIDTH 15 0
BBX 7 22 3 -3
BITMAP
C0
60
30
18
08
0C
0C
04
06
06
06
06
06
06
04
0C
0C
08
18
30
60
C0
ENDCHAR
STARTCHAR 002A
ENCODING 42
SWIDTH 600 0
DWIDTH 15 0
BBX 13 12 1 2
BITMAP
0200
0200
0200
0200
E238
FFF8
1FC0
0700
0D80
1CC0
18C0
3060
ENDCHAR
STARTCHAR 002B
ENCODING 43
SWIDTH 600 0
DWIDTH 15 0
BBX 11 12 2 2
BITMAP
0400
0400
0400
0400
0400
FFE0
FFE0
0400
0400
0400
0400
0400
ENDCHAR
STARTCHAR 002C
ENCODING 44
SWIDTH 600 0
DWIDTH 15 0
BBX 5 7 5 -4
BITMAP
78
70
70
60
60
C0
C0
ENDCHAR
STARTCHAR 002D
ENCODING 45
SWIDTH 600 0
DWIDTH 15 0
BBX 7 2 4 7
BITMAP
FE
FE
ENDCHAR
STARTCHAR 002E
ENCODING 46
SWIDTH 600 0
DWIDTH 15 0
BBX 3 3 6 0
BITMAP
E0
E0
E0
ENDCHAR
STARTCHAR 002F
ENCODING 47
SWIDTH 600 0
DWIDTH 15 0
BBX 11 22 2 -3
BITMAP
0060
00C0
00C0
0080
0180
0180
0300
0300
0200
0600
0600
0C00
0C00
0800
1800
1800
3000
3000
2000
6000
6000
C000
ENDCHAR
STARTCHAR 0030
ENCODING 48
SWIDTH 600 0
DWIDTH 15 0
BBX 13 17 1 0
BITMAP
0F80
3FE0
38E0
6030
6030
6030
E030
E738
E738
E738
E038
6030
6030
6030
38E0
3FE0
0F80
ENDCHAR
STARTCHAR 0031
ENCODING 49
SWIDTH 600 0
DWIDTH 15 0
BBX 13 17 1 0
BITMAP
0F00
1F00
3B00
7B00
F300
6300
4300
0300
0300
0300
0300
0300
0300
0300
0300
7FF8
7FF8
ENDCHAR
STARTCHAR 0032
ENCODING 50
SWIDTH 600 0
DWIDTH 15 0
BBX 11 17 2 0
BITMAP
1F00
7F80
E1C0
C0E0
C0E0
0060
00C0
00C0
01C0
0380
0700
0E00
3800
7000
E000
FFE0
FFE0
ENDCHAR
STARTCHAR 0033
ENCODING 51
SWIDTH 600 0
DWIDTH 15 0
BBX 12 17 1 0
BITMAP
0F80
3FE0
70E0
2070
0070
0060
00E0
0F80
0FC0
00E0
0070
0030
0030
4070
F0E0
3FC0
1F80
ENDCHAR
STARTCHAR 0034
ENCODING 52
SWIDTH 600 0
DWIDTH 15 0
BBX 13 17 1 0
BITMAP
01C0
03C0
03C0
06C0
06C0
0CC0
18C0
18C0
30C0
60C0
60C0
C0C0
FFF8
FFF8
00C0
00C0
00C0
ENDCHAR
STARTCHAR 0035
ENCODING 53
SWIDTH 600 0
DWIDTH 15 0
BBX 11 17 2 0
BITMAP
7FE0
7FE0
6000
6000
6000
4000
4F00
5FC0
E0E0
0060
0060
0060
0060
C060
E0C0
7FC0
1F00
ENDCHAR
STARTCHAR 0036
ENCODING 54
SWIDTH 600 0
DWIDTH 15 0
BBX 11 17 2 0
BITMAP
0780
0E00
1800
3800
7000
6000
EF80
DFC0
E0E0
C060
C060
C060
C060
C060
60E0
7FC0
1F00
ENDCHAR
STARTCHAR 0037
ENCODING 55
SWIDTH 600 0
DWIDTH 15 0
BBX 11 17 2 0
BITMAP
FFE0
FFE0
C060
C0E0
C0C0
00C0
0180
0180
0300
0300
0600
0600
0E00
0C00
1C00
1800
3800
ENDCHAR
STARTCHAR 0038
ENCODING 56
SWIDTH 600 0
DWIDTH 15 0
BBX 13 17 1 0
BITMAP
0FC0
3FE0
7070
6030
6030
6030
3060
1FC0
1FC0
7070
6030
E038
E038
6030
7070
3FE0
0F80
ENDCHAR
STARTCHAR 0039
ENCODING 57
SWIDTH 600 0
DWIDTH 15 0
BBX 11 17 2 0
BITMAP
1F00
7FC0
E0C0
C060
C060
C060
C060
C060
E0E0
7F60
3EE0
00C0
01C0
0380
0700
0E00
3C00
ENDCHAR
STARTCHAR 003A
ENCODING 58
SWIDTH 600 0
DWIDTH 15 0
BBX 3 13 6 0
BITMAP
E0
E0
E0
00
00
00
00
00
00
00
E0
E0
E0
ENDCHAR
STARTCHAR 003B
ENCODING 59
SWIDTH 600 0
DWIDTH 15 0
BBX 5 17 5 -4
BITMAP
70
70
70
00
00
00
00
00
00
00
78
70
70
60
60
C0
C0
ENDCHAR
STARTCHAR 003C
ENCODING 60
SWIDTH 600 0
DWIDTH 15 0
BBX 11 14 2 1
BITMAP
0020
00E0
03C0
0700
1C00
7800
E000
E000
7800
1C00
0700
03C0
00E0
0020
ENDCHAR
STARTCHAR 003D
ENCODING 61
SWIDTH 600 0
DWIDTH 15 0
BBX 11 7 2 4
BITMAP
FFE0
FFE0
0000
0000
0000
FFE0
FFE0
ENDCHAR
STARTCHAR 003E
ENCODING 62
SWIDTH 600 0
DWIDTH 15 0
BBX 11 14 2 1
BITMAP
8000
E000
7800
1C00
0700
03C0
00E0
00E0
03C0
0700
1C00
7800
E000
8000
ENDCHAR
STARTCHAR 003F
ENCODING 63
SWIDTH 600 0
DWIDTH 15 0
BBX 11 17 2 0
BITMAP
1F00
3FC0
70C0
C0E0
4060
00E0
00C0
0780
0E00
0C00
0C00
0000
0000
0000
0E00
1E00
0E00
ENDCHAR
STARTCHAR 0040
ENCODING 64
SWIDTH 600 0
DWIDTH 15 0
BBX 11 20 2 -3
BITMAP
1F00
3FC0
70C0
C060
C060
C760
CFE0
8C60
9860
9860
9860
9860
8C60
CFE0
C760
C000
E000
7000
3F80
1F80
ENDCHAR
STARTCHAR 0041
ENCODING 65
SWIDTH 600 0
DWIDTH 15 0
BBX 13 17 1 0
BITMAP
0700
0700
0D80
0D80
0D80
18C0
18C0
18C0
3060
3060
3FE0
7FF0
6030
6030
6030
C018
C018
ENDCHAR
STARTCHAR 0042
ENCODING 66
SWIDTH 600 0
DWIDTH 15 0
BBX 12 17 2 0
BITMAP
FF80
FFC0
C0E0
C060
C060
C060
C0C0
FF80
FFC0
C0E0
C060
C070
C070
C060
C0E0
FFC0
FF80
ENDCHAR
STARTCHAR 0043
ENCODING 67
SWIDTH 600 0
DWIDTH 15 0
BBX 11 17 2 0
BITMAP
1F00
3FC0
70E0
6060
C040
C000
C000
C000
C000
C000
C000
C000
C040
6060
70E0
3FC0
1F00
ENDCHAR
STARTCHAR 0044
ENCODING 68
SWIDTH 600 0
DWIDTH 15 0
BBX 12 17 2 0
BITMAP
FF00
FF80
C1C0
C0E0
C060
C060
C060
C070
C070
C070
C060
C060
C060
C0E0
C1C0
FF80
FF00
ENDCHAR
STARTCHAR 0045
ENCODING 69
SWIDTH 600 0
DWIDTH 15 0
BBX 11 17 2 0
BITMAP
FFE0
FFE0
C000
C000
C000
C000
C000
FFE0
FFE0
C000
C000
C000
C000
C000
C000
FFE0
FFE0
ENDCHAR
STARTCHAR 0046
ENCODING 70
SWIDTH 600 0
DWIDTH 15 0
BBX 11 17 2 0
BITMAP
FFE0
FFE0
C000
C000
C000
C000
C000
FFE0
FFE0
C000
C000
C000
C000
C000
C000
C000
C000
ENDCHAR
STARTCHAR 0047
ENCODING 71
SWIDTH 600 0
DWIDTH 15 0
BBX 12 17 1 0
BITMAP
0F80
3FC0
3860
7030
6020
6000
E000
E000
E3F0
E3F0
E030
6030
6030
6030
3870
3FB0
0F30
ENDCHAR
STARTCHAR 0048
ENCODING 72
SWIDTH 600 0
DWIDTH 15 0
BBX 11 17 2 0
BITMAP
C060
C060
C060
C060
C060
C060
C060
FFE0
FFE0
C060
C060
C060
C060
C060
C060
C060
C060
ENDCHAR
STARTCHAR 0049
ENCODING 73
SWIDTH 600 0
DWIDTH 15 0
BBX 11 17 2 0
BITMAP
FFE0
FFE0
0E00
0E00
0E00
0E00
0E00
0E00
0E00
0E00
0E00
0E00
0E00
0E00
0E00
FFE0
FFE0
ENDCHAR
STARTCHAR 004A
ENCODING 74
SWIDTH 600 0
DWIDTH 15 0
BBX 10 17 2 0
BITMAP
3FC0
3FC0
00C0
00C0
00C0
00C0
00C0
00C0
00C0
00C0
00C0
00C0
40C0
C0C0
E1C0
7F80
3E00
ENDCHAR
STARTCHAR 004B
ENCODING 75
SWIDTH 600 0
DWIDTH 15 0
BBX 12 17 2 0
BITMAP
C070
C0E0
C0C0
C180
C300
C700
CE00
DC00
DE00
F700
E300
C180
C1C0
C0C0
C0E0
C070
C030
ENDCHAR
STARTCHAR 004C
ENCODING 76
SWIDTH 600 0
DWIDTH 15 0
BBX 10 17 3 0
BITMAP
C000
C000
C000
C000
C000
C000
C000
C000
C000
C000
C000
C000
C000
C000
C000
FFC0
FFC0
ENDCHAR
STARTCHAR 004D
ENCODING 77
SWIDTH 600 0
DWIDTH 15 0
BBX 11 17 2 0
BITMAP
E0E0
E0E0
E0E0
F1E0
F1E0
DB60
DB60
CA60
CE60
CE60
C460
C460
C060
C060
C060
C060
C060
ENDCHAR
STARTCHAR 004E
ENCODING 78
SWIDTH 600 0
DWIDTH 15 0
BBX 11 17 2 0
BITMAP
E060
F060
F060
F060
D860
D860
CC60
CC60
CE60
C660
C660
C360
C360
C1E0
C1E0
C1E0
C0E0
ENDCHAR
STARTCHAR 004F
ENCODING 79
SWIDTH 600 0
DWIDTH 15 0
BBX 13 17 1 0
BITMAP
0F80
3FE0
38E0
6030
6030
6030
E030
E038
E038
E038
E038
6030
6030
6030
38E0
3FE0
0F80
ENDCHAR
STARTCHAR 0050
ENCODING 80
SWIDTH 600 0
DWIDTH 15 0
BBX 12 17 2 0
BITMAP
FF80
FFC0
C0E0
C060
C070
C070
C060
C0E0
FFC0
FF80
C000
C000
C000
C000
C000
C000
C000
ENDCHAR
STARTCHAR 0051
ENCODING 81
SWIDTH 600 0
DWIDTH 15 0
BBX 13 21 1 -4
BITMAP
0F80
3FE0
38E0
6030
6030
6030
E030
E038
E038
E038
E030
6030
6030
6030
38E0
3FE0
0F80
0700
0300
03E0
01E0
ENDCHAR
STARTCHAR 0052
ENCODING 82
SWIDTH 600 0
DWIDTH 15 0
BBX 12 17 2 0
BITMAP
FF80
FFC0
C0E0
C060
C070
C070
C060
C0E0
FFC0
FF80
C700
C300
C180
C1C0
C0C0
C0E0
C070
ENDCHAR
STARTCHAR 0053
ENCODING 83
SWIDTH 600 0
DWIDTH 15 0
BBX 13 17 1 0
BITMAP
0F80
3FE0
7070
6030
6000
6000
7000
3F00
1FE0
01F0
0030
0038
4038
E030
7070
3FE0
1F80
ENDCHAR
STARTCHAR 0054
ENCODING 84
SWIDTH 600 0
DWIDTH 15 0
BBX 13 17 1 0
BITMAP
FFF8
FFF8
0700
0700
0700
0700
0700
0700
0700
0700
0700
0700
0700
0700
0700
0700
0700
ENDCHAR
STARTCHAR 0055
ENCODING 85
SWIDTH 600 0
DWIDTH 15 0
BBX 11 17 2 0
BITMAP
C060
C060
C060
C060
C060
C060
C060
C060
C060
C060
C060
C060
C060
E0E0
60C0
7FC0
1F00
ENDCHAR
STARTCHAR 0056
ENCODING 86
SWIDTH 600 0
DWIDTH 15 0
BBX 13 17 1 0
BITMAP
C018
E038
6030
6030
6030
3060
3060
3060
38E0
18C0
18C0
18C0
0D80
0D80
0D80
0700
0700
ENDCHAR
STARTCHAR 0057
ENCODING 87
SWIDTH 600 0
DWIDTH 15 0
BBX 13 17 1 0
BITMAP
C018
C018
C018
C018
C718
C718
C518
C518
4D90
4D90
6D90
68B0
68F0
78F0
78F0
78F0
7070
ENDCHAR
STARTCHAR 0058
ENCODING 88
SWIDTH 600 0
DWIDTH 15 0
BBX 13 17 1 0
BITMAP
E018
6030
3070
3860
18C0
0DC0
0D80
0700
0700
0780
0D80
1CC0
18E0
3060
7070
6030
C018
ENDCHAR
STARTCHAR 0059
ENCODING 89
SWIDTH 600 0
DWIDTH 15 0
BBX 15 17 0 0
BITMAP
E00E
701C
3018
1838
1830
0C60
0EE0
06C0
03C0
0380
0380
0380
0380
0380
0380
0380
0380
ENDCHAR
STARTCHAR 005A
ENCODING 90
SWIDTH 600 0
DWIDTH 15 0
BBX 13 17 1 0
BITMAP
7FF0
7FF0
0030
0060
00E0
01C0
0180
0300
0600
0E00
0C00
1800
3000
7000
6000
FFF8
FFF8
ENDCHAR
STARTCHAR 005B
ENCODING 91
SWIDTH 600 0
DWIDTH 15 0
BBX 7 22 6 -3
BITMAP
FE
FE
80
80
80
80
80
80
80
80
80
80
80
80
80
80
80
80
80
80
FE
FE
ENDCHAR
STARTCHAR 005C
ENCODING 92
SWIDTH 600 0
DWIDTH 15 0
BBX 11 22 2 -3
BITMAP
C000
6000
6000
2000
3000
3000
1800
1800
0800
0C00
0C00
0600
0600
0200
0300
0300
0180
0180
0080
00C0
00C0
0060
ENDCHAR
STARTCHAR 005D
ENCODING 93
SWIDTH 600 0
DWIDTH 15 0
BBX 7 22 2 -3
BITMAP
FE
FE
02
02
02
02
02
02
02
02
02
02
02
02
02
02
02
02
02
02
FE
FE
ENDCHAR
STARTCHAR 005E
ENCODING 94
SWIDTH 600 0
DWIDTH 15 0
BBX 13 10 1 7
BITMAP
0700
0700
0D80
19C0
18C0
3060
3060
6030
6030
C018
ENDCHAR
STARTCHAR 005F
ENCODING 95
SWIDTH 600 0
DWIDTH 15 0
BBX 13 2 1 -4
BITMAP
FFF8
FFF8
ENDCHAR
STARTCHAR 0060
ENCODING 96
SWIDTH 600 0
DWIDTH 15 0
BBX 4 5 5 15
BITMAP
40
C0
60
60
30
ENDCHAR
STARTCHAR 0061
ENCODING 97
SWIDTH 600 0
DWIDTH 15 0
BBX 12 13 2 0
BITMAP
1F00
7F80
E1C0
40C0
00C0
00C0
3FC0
FFC0
C0C0
C0C0
C1C0
FEF0
3C70
ENDCHAR
STARTCHAR 0062
ENCODING 98
SWIDTH 600 0
DWIDTH 15 0
BBX 12 19 2 0
BITMAP
C000
C000
C000
C000
C000
C000
CF80
DFC0
F0E0
E060
C060
C060
C070
C060
C060
E060
F0E0
DFC0
CF80
ENDCHAR
STARTCHAR 0063
ENCODING 99
SWIDTH 600 0
DWIDTH 15 0
BBX 11 13 2 0
BITMAP
1F00
3FC0
70C0
6060
C000
C000
C000
C000
C000
6060
70C0
3FC0
1F00
ENDCHAR
STARTCHAR 0064
ENCODING 100
SWIDTH 600 0
DWIDTH 15 0
BBX 12 19 1 0
BITMAP
0030
0030
0030
0030
0030
0030
1F30
3FB0
70F0
6070
6030
6030
E030
6030
6030
6070
70F0
3FB0
1F30
ENDCHAR
STARTCHAR 0065
ENCODING 101
SWIDTH 600 0
DWIDTH 15 0
BBX 11 13 2 0
BITMAP
1F00
3FC0
60C0
C060
C060
FFE0
FFE0
C000
C000
C040
70E0
3FC0
1F00
ENDCHAR
STARTCHAR 0066
ENCODING 102
SWIDTH 600 0
DWIDTH 15 0
BBX 12 19 2 0
BITMAP
03F0
07F0
0C00
0C00
0C00
0C00
FFF0
FFF0
0C00
0C00
0C00
0C00
0C00
0C00
0C00
0C00
0C00
FFE0
FFE0
ENDCHAR
STARTCHAR 0067
ENCODING 103
SWIDTH 600 0
DWIDTH 15 0
BBX 12 20 2 -5
BITMAP
00F0
00F0
1F80
7FC0
61C0
E0C0
E0C0
60C0
61C0
3F80
3F00
6000
4000
7FC0
3FE0
C030
C030
C070
FFE0
3F80
ENDCHAR
STARTCHAR 0068
ENCODING 104
SWIDTH 600 0
DWIDTH 15 0
BBX 11 19 2 0
BITMAP
C000
C000
C000
C000
C000
C000
CF00
DFC0
D0C0
E0E0
C060
C060
C060
C060
C060
C060
C060
C060
C060
ENDCHAR
STARTCHAR 0069
ENCODING 105
SWIDTH 600 0
DWIDTH 15 0
BBX 11 19 3 0
BITMAP
0E00
0E00
0E00
0000
0000
0000
FC00
FC00
0C00
0C00
0C00
0C00
0C00
0C00
0C00
0C00
0C00
FFE0
FFE0
ENDCHAR
STARTCHAR 006A
ENCODING 106
SWIDTH 600 0
DWIDTH 15 0
BBX 9 24 2 -5
BITMAP
0380
0380
0380
0000
0000
0000
FF80
FF80
0180
0180
0180
0180
0180
0180
0180
0180
0180
0180
0180
0180
0180
0180
7F80
7F00
ENDCHAR
STARTCHAR 006B
ENCODING 107
SWIDTH 600 0
DWIDTH 15 0
BBX 11 19 3 0
BITMAP
C000
C000
C000
C000
C000
C000
C0E0
C180
C300
CE00
DC00
FC00
FC00
E600
C300
C380
C180
C0C0
C0E0
ENDCHAR
STARTCHAR 006C
ENCODING 108
SWIDTH 600 0
DWIDTH 15 0
BBX 11 19 2 0
BITMAP
FE00
FE00
0E00
0E00
0E00
0E00
0E00
0E00
0E00
0E00
0E00
0E00
0E00
0E00
0E00
0E00
0E00
FFE0
FFE0
ENDCHAR
STARTCHAR 006D
ENCODING 109
SWIDTH 600 0
DWIDTH 15 0
BBX 13 13 1 0
BITMAP
DC70
DEF0
E738
C618
C218
C218
C218
C218
C218
C218
C218
C218
C218
ENDCHAR
STARTCHAR 006E
ENCODING 110
SWIDTH 600 0
DWIDTH 15 0
BBX 11 13 2 0
BITMAP
CF00
DFC0
D0C0
E0E0
C060
C060
C060
C060
C060
C060
C060
C060
C060
ENDCHAR
STARTCHAR 006F
ENCODING 111
SWIDTH 600 0
DWIDTH 15 0
BBX 11 13 2 0
BITMAP
1F00
7FC0
60C0
C060
C060
C060
C060
C060
C060
C060
60C0
7FC0
1F00
ENDCHAR
STARTCHAR 0070
ENCODING 112
SWIDTH 600 0
DWIDTH 15 0
BBX 12 18 2 -5
BITMAP
CF80
DFC0
F0E0
E060
C060
C060
C070
C060
C060
E060
F0E0
DFC0
CF80
C000
C000
C000
C000
C000
ENDCHAR
STARTCHAR 0071
ENCODING 113
SWIDTH 600 0
DWIDTH 15 0
BBX 12 18 1 -5
BITMAP
1F30
3FB0
70F0
6070
6030
6030
E030
6030
6030
6070
70F0
3FB0
1F30
0030
0030
0030
0030
0030
ENDCHAR
STARTCHAR 0072
ENCODING 114
SWIDTH 600 0
DWIDTH 15 0
BBX 12 13 2 0
BITMAP
FCF0
FDF0
0E00
0C00
0C00
0C00
0C00
0C00
0C00
0C00
0C00
FFE0
FFE0
ENDCHAR
STARTCHAR 0073
ENCODING 115
SWIDTH 600 0
DWIDTH 15 0
BBX 11 13 2 0
BITMAP
1F00
7FC0
60E0
C000
E000
7E00
3FC0
03E0
0060
8060
E0E0
7FC0
1F80
ENDCHAR
STARTCHAR 0074
ENCODING 116
SWIDTH 600 0
DWIDTH 15 0
BBX 12 17 1 0
BITMAP
0C00
0C00
0C00
0C00
FFF0
FFF0
0C00
0C00
0C00
0C00
0C00
0C00
0C00
0C00
0C00
07F0
07F0
ENDCHAR
STARTCHAR 0075
ENCODING 117
SWIDTH 600 0
DWIDTH 15 0
BBX 11 13 2 0
BITMAP
C060
C060
C060
C060
C060
C060
C060
C060
C060
E0E0
6160
7F60
1E60
ENDCHAR
STARTCHAR 0076
ENCODING 118
SWIDTH 600 0
DWIDTH 15 0
BBX 11 13 2 0
BITMAP
C060
C060
C060
60C0
60C0
2080
3180
3180
1900
1B00
1B00
0E00
0E00
ENDCHAR
STARTCHAR 0077
ENCODING 119
SWIDTH 600 0
DWIDTH 15 0
BBX 13 13 1 0
BITMAP
C718
C718
C518
C518
CD98
4D90
4D90
68B0
68B0
78F0
78F0
78F0
3060
ENDCHAR
STARTCHAR 0078
ENCODING 120
SWIDTH 600 0
DWIDTH 15 0
BBX 12 13 2 0
BITMAP
C060
60C0
71C0
3980
1B00
0E00
0E00
0E00
1B00
3180
71C0
60C0
C070
ENDCHAR
STARTCHAR 0079
ENCODING 121
SWIDTH 600 0
DWIDTH 15 0
BBX 13 18 1 -5
BITMAP
E038
6030
6030
3060
3060
18C0
18C0
18C0
0D80
0D80
0700
0700
0700
0600
0600
0C00
7C00
7800
ENDCHAR
STARTCHAR 007A
ENCODING 122
SWIDTH 600 0
DWIDTH 15 0
BBX 11 13 2 0
BITMAP
FFE0
FFE0
00C0
0180
0300
0700
0E00
1C00
3800
7000
E000
FFE0
FFE0
ENDCHAR
STARTCHAR 007B
ENCODING 123
SWIDTH 600 0
DWIDTH 15 0
BBX 9 22 3 -3
BITMAP
1F80
1F80
1800
1800
1800
1800
0C00
0600
0600
0E00
F800
FC00
0E00
0600
0600
0C00
1800
1800
1800
1800
1F80
1F80
ENDCHAR
STARTCHAR 007C
ENCODING 124
SWIDTH 600 0
DWIDTH 15 0
BBX 1 22 7 -3
BITMAP
80
80
80
80
80
80
80
80
80
80
80
80
80
80
80
80
80
80
80
80
80
80
ENDCHAR
STARTCHAR 007D
ENCODING 125
SWIDTH 600 0
DWIDTH 15 0
BBX 9 22 3 -3
BITMAP
F800
FC00
0C00
0C00
0C00
0C00
1800
3000
3000
3800
1F80
1F80
3800
3000
3000
1800
0C00
0C00
0C00
0C00
FC00
FC00
ENDCHAR
STARTCHAR 007E
ENCODING 126
SWIDTH 600 0
DWIDTH 15 0
BBX 13 4 1 5
BITMAP
3C10
7F38
67F0
C1E0
ENDCHAR
STARTCHAR 00A0
ENCODING 160
SWIDTH 600 0
DWIDTH 15 0
BBX 0 0 0 0
BITMAP
ENDCHAR
STARTCHAR 00A1
ENCODING 161
SWIDTH 600 0
DWIDTH 15 0
BBX 3 18 6 -5
BITMAP
E0
E0
E0
00
00
00
40
40
40
40
40
C0
E0
E0
E0
E0
E0
E0
ENDCHAR
STARTCHAR 00A2
ENCODING 162
SWIDTH 600 0
DWIDTH 15 0
BBX 11 19 2 -3
BITMAP
0600
0600
0600
1F00
3FC0
76C0
6660
C600
C600
C600
C600
C600
6640
76E0
3FC0
1F00
0600
0600
0600
ENDCHAR
STARTCHAR 00A3
ENCODING 163
SWIDTH 600 0
DWIDTH 15 0
BBX 13 17 1 0
BITMAP
0FC0
1FE0
3870
3018
7000
7000
3000
3000
FF80
FF80
1800
1800
1800
3000
6000
7FF0
7FF0
ENDCHAR
STARTCHAR 00A5
ENCODING 165
SWIDTH 600 0
DWIDTH 15 0
BBX 13 17 1 0
BITMAP
C018
E038
6030
7070
3060
18E0
18C0
0D80
0D80
7FF0
7FF0
0700
0700
0700
0700
7FF0
7FF0
ENDCHAR
STARTCHAR 00A6
ENCODING 166
SWIDTH 600 0
DWIDTH 15 0
BBX 1 22 7 -3
BITMAP
80
80
80
80
80
80
80
80
80
00
00
00
00
00
80
80
80
80
80
80
80
80
ENDCHAR
STARTCHAR 00A7
ENCODING 167
SWIDTH 600 0
DWIDTH 15 0
BBX 11 21 2 -4
BITMAP
1F80
3FC0
70C0
6000
6000
7000
3E00
3F80
61E0
C060
C060
E060
70C0
3F80
0F80
01C0
00C0
00C0
21C0
7F80
1F00
ENDCHAR
STARTCHAR 00A8
ENCODING 168
SWIDTH 600 0
DWIDTH 15 0
BBX 7 3 4 15
BITMAP
C6
EE
C6
ENDCHAR
STARTCHAR 00A9
ENCODING 169
SWIDTH 600 0
DWIDTH 15 0
BBX 15 17 0 0
BITMAP
07C0
1830
3018
638C
4444
CC66
CC06
CC06
CC06
CC06
CC06
CC46
4464
638C
3018
1830
07C0
ENDCHAR
STARTCHAR 00AA
ENCODING 170
SWIDTH 600 0
DWIDTH 15 0
BBX 9 8 3 9
BITMAP
3C00
6600
0300
0300
7F00
4300
C300
7F80
ENDCHAR
STARTCHAR 00AB
ENCODING 171
SWIDTH 600 0
DWIDTH 15 0
BBX 11 11 2 1
BITMAP
0820
1C60
38C0
71C0
E380
C300
E380
71C0
38C0
1C60
0820
ENDCHAR
STARTCHAR 00AC
ENCODING 172
SWIDTH 600 0
DWIDTH 15 0
BBX 11 7 2 2
BITMAP
FFE0
FFE0
0060
0060
0060
0060
0060
ENDCHAR
STARTCHAR 00AD
ENCODING 173
SWIDTH 600 0
DWIDTH 15 0
BBX 7 2 4 7
BITMAP
FE
FE
ENDCHAR
STARTCHAR 00AE
ENCODING 174
SWIDTH 600 0
DWIDTH 15 0
BBX 9 9 3 8
BITMAP
3E00
6300
DD80
9480
9C80
9480
D580
6300
3E00
ENDCHAR
STARTCHAR 00AF
ENCODING 175
SWIDTH 600 0
DWIDTH 15 0
BBX 7 2 4 16
BITMAP
FE
FE
ENDCHAR
STARTCHAR 00B0
ENCODING 176
SWIDTH 600 0
DWIDTH 15 0
BBX 9 8 3 9
BITMAP
3E00
6300
4100
C180
C180
4100
6300
3E00
ENDCHAR
STARTCHAR 00B1
ENCODING 177
SWIDTH 600 0
DWIDTH 15 0
BBX 11 16 2 0
BITMAP
0400
0400
0400
0400
0400
FFE0
FFE0
0400
0400
0400
0400
0400
0000
0000
FFE0
FFE0
ENDCHAR
STARTCHAR 00B2
ENCODING 178
SWIDTH 600 0
DWIDTH 15 0
BBX 7 9 4 8
BITMAP
78
C4
06
04
0C
18
30
40
FE
ENDCHAR
STARTCHAR 00B3
ENCODING 179
SWIDTH 600 0
DWIDTH 15 0
BBX 7 9 4 8
BITMAP
78
C4
06
0C
38
04
06
C6
78
ENDCHAR
STARTCHAR 00B4
ENCODING 180
SWIDTH 600 0
DWIDTH 15 0
BBX 4 5 6 15
BITMAP
20
30
60
60
C0
ENDCHAR
STARTCHAR 00B5
ENCODING 181
SWIDTH 600 0
DWIDTH 15 0
BBX 11 18 2 -5
BITMAP
C060
C060
C060
C060
C060
C060
C060
C060
C060
E0E0
F160
FF60
DE60
C000
C000
C000
C000
C000
ENDCHAR
STARTCHAR 00B6
ENCODING 182
SWIDTH 600 0
DWIDTH 15 0
BBX 12 21 1 -4
BITMAP
1FF0
3FF0
7F30
7F30
FF30
FF30
FF30
FF30
7F30
7F30
3F30
1F30
0330
0330
0330
0330
0330
0330
0330
0330
0330
ENDCHAR
STARTCHAR 00B7
ENCODING 183
SWIDTH 600 0
DWIDTH 15 0
BBX 3 3 6 6
BITMAP
E0
E0
E0
ENDCHAR
STARTCHAR 00B8
ENCODING 184
SWIDTH 600 0
DWIDTH 15 0
BBX 6 6 5 -5
BITMAP
20
20
78
0C
58
B0
ENDCHAR
STARTCHAR 00B9
ENCODING 185
SWIDTH 600 0
DWIDTH 15 0
BBX 7 9 4 8
BITMAP
38
D8
18
18
18
18
18
18
FE
ENDCHAR
STARTCHAR 00BA
ENCODING 186
SWIDTH 600 0
DWIDTH 15 0
BBX 9 8 3 9
BITMAP
3E00
6300
4100
4100
C180
4100
6300
3E00
ENDCHAR
STARTCHAR 00BB
ENCODING 187
SWIDTH 600 0
DWIDTH 15 0
BBX 11 11 2 1
BITMAP
8200
C700
6380
31C0
38E0
1860
38E0
31C0
6380
C700
8200
ENDCHAR
STARTCHAR 00BC
ENCODING 188
SWIDTH 600 0
DWIDTH 15 0
BBX 15 17 0 0
BITMAP
380E
580C
1818
1818
1830
1820
1860
7E00
0000
0018
0C28
0828
1848
3088
30FE
6008
E008
ENDCHAR
STARTCHAR 00BD
ENCODING 189
SWIDTH 600 0
DWIDTH 15 0
BBX 15 17 0 0
BITMAP
380E
580C
1818
1818
1830
1820
1860
7E00
0000
0078
0CCC
080C
180C
3018
3030
6040
E0FC
ENDCHAR
STARTCHAR 00BE
ENCODING 190
SWIDTH 600 0
DWIDTH 15 0
BBX 15 17 0 0
BITMAP
3C0E
460C
0418
1818
0430
0620
C660
7C00
0000
0018
0C28
0828
1848
3088
30FE
6008
E008
ENDCHAR
STARTCHAR 00BF
ENCODING 191
SWIDTH 600 0
DWIDTH 15 0
BBX 11 18 2 -5
BITMAP
0E00
0F00
0E00
0000
0000
0000
0600
0600
0600
3E00
7000
6000
C000
C040
E060
71C0
7F80
1F00
ENDCHAR
STARTCHAR 00C0
ENCODING 192
SWIDTH 600 0
DWIDTH 15 0
BBX 13 24 1 0
BITMAP
0400
0C00
0600
0600
0300
0000
0000
0700
0700
0D80
0D80
0D80
18C0
18C0
18C0
3060
3060
3FE0
7FF0
6030
6030
6030
C018
C018
ENDCHAR
STARTCHAR 00C1
ENCODING 193
SWIDTH 600 0
DWIDTH 15 0
BBX 13 24 1 0
BITMAP
0100
0180
0300
0300
0600
0000
0000
0700
0700
0D80
0D80
0D80
18C0
18C0
18C0
3060
3060
3FE0
7FF0
6030
6030
6030
C018
C018
ENDCHAR
STARTCHAR 00C2
ENCODING 194
SWIDTH 600 0
DWIDTH 15 0
BBX 13 23 1 0
BITMAP
0700
0D80
18C0
3060
0000
0000
0700
0700
0D80
0D80
0D80
18C0
18C0
18C0
3060
3060
3FE0
7FF0
6030
6030
6030
C018
C018
ENDCHAR
STARTCHAR 00C3
ENCODING 195
SWIDTH 600 0
DWIDTH 15 0
BBX 13 22 1 0
BITMAP
1E40
3FE0
13C0
0000
0000
0700
0700
0D80
0D80
0D80
18C0
18C0
18C0
3060
3060
3FE0
7FF0
6030
6030
6030
C018
C018
ENDCHAR
STARTCHAR 00C4
ENCODING 196
SWIDTH 600 0
DWIDTH 15 0
BBX 13 22 1 0
BITMAP
18C0
1DC0
18C0
0000
0000
0700
0700
0D80
0D80
0D80
18C0
18C0
18C0
3060
3060
3FE0
7FF0
6030
6030
6030
C018
C018
ENDCHAR
STARTCHAR 00C5
ENCODING 197
SWIDTH 600 0
DWIDTH 15 0
BBX 13 24 1 0
BITMAP
0700
0880
0880
0880
0880
0700
0000
0700
0700
0D80
0D80
0D80
18C0
18C0
18C0
3060
3060
3FE0
7FF0
6030
6030
6030
C018
C018
ENDCHAR
STARTCHAR 00C6
ENCODING 198
SWIDTH 600 0
DWIDTH 15 0
BBX 14 17 0 0
BITMAP
07FC
07FC
06C0
06C0
0CC0
0CC0
0CC0
18FC
18FC
18C0
3FC0
3FC0
30C0
30C0
60C0
60FC
E0FC
ENDCHAR
STARTCHAR 00C7
ENCODING 199
SWIDTH 600 0
DWIDTH 15 0
BBX 11 22 2 -5
BITMAP
1F00
3FC0
70E0
6060
C040
C000
C000
C000
C000
C000
C000
C000
C040
6060
70E0
3FC0
1F00
0400
0700
0180
0980
0F00
ENDCHAR
STARTCHAR 00C8
ENCODING 200
SWIDTH 600 0
DWIDTH 15 0
BBX 11 24 2 0
BITMAP
0800
1800
0C00
0C00
0600
0000
0000
FFE0
FFE0
C000
C000
C000
C000
C000
FFE0
FFE0
C000
C000
C000
C000
C000
C000
FFE0
FFE0
ENDCHAR
STARTCHAR 00C9
ENCODING 201
SWIDTH 600 0
DWIDTH 15 0
BBX 11 24 2 0
BITMAP
0200
0300
0600
0600
0C00
0000
0000
FFE0
FFE0
C000
C000
C000
C000
C000
FFE0
FFE0
C000
C000
C000
C000
C000
C000
FFE0
FFE0
ENDCHAR
STARTCHAR 00CA
ENCODING 202
SWIDTH 600 0
DWIDTH 15 0
BBX 11 23 2 0
BITMAP
0E00
1B00
3180
20C0
0000
0000
FFE0
FFE0
C000
C000
C000
C000
C000
FFE0
FFE0
C000
C000
C000
C000
C000
C000
FFE0
FFE0
ENDCHAR
STARTCHAR 00CB
ENCODING 203
SWIDTH 600 0
DWIDTH 15 0
BBX 11 22 2 0
BITMAP
3180
3980
3180
0000
0000
FFE0
FFE0
C000
C000
C000
C000
C000
FFE0
FFE0
C000
C000
C000
C000
C000
C000
FFE0
FFE0
ENDCHAR
STARTCHAR 00CC
ENCODING 204
SWIDTH 600 0
DWIDTH 15 0
BBX 11 24 2 0
BITMAP
0800
1800
0C00
0C00
0600
0000
0000
FFE0
FFE0
0E00
0E00
0E00
0E00
0E00
0E00
0E00
0E00
0E00
0E00
0E00
0E00
0E00
FFE0
FFE0
ENDCHAR
STARTCHAR 00CD
ENCODING 205
SWIDTH 600 0
DWIDTH 15 0
BBX 11 24 2 0
BITMAP
0200
0300
0600
0600
0C00
0000
0000
FFE0
FFE0
0E00
0E00
0E00
0E00
0E00
0E00
0E00
0E00
0E00
0E00
0E00
0E00
0E00
FFE0
FFE0
ENDCHAR
STARTCHAR 00CE
ENCODING 206
SWIDTH 600 0
DWIDTH 15 0
BBX 11 23 2 0
BITMAP
0E00
1B00
3180
60C0
0000
0000
FFE0
FFE0
0E00
0E00
0E00
0E00
0E00
0E00
0E00
0E00
0E00
0E00
0E00
0E00
0E00
FFE0
FFE0
ENDCHAR
STARTCHAR 00CF
ENCODING 207
SWIDTH 600 0
DWIDTH 15 0
BBX 11 22 2 0
BITMAP
3180
3B80
3180
0000
0000
FFE0
FFE0
0E00
0E00
0E00
0E00
0E00
0E00
0E00
0E00
0E00
0E00
0E00
0E00
0E00
FFE0
FFE0
ENDCHAR
STARTCHAR 00D0
ENCODING 208
SWIDTH 600 0
DWIDTH 15 0
BBX 13 17 1 0
BITMAP
3F80
3FC0
30E0
3070
3030
3030
3030
FE38
FE38
3038
3030
3030
3030
3070
30E0
3FC0
3F80
ENDCHAR
STARTCHAR 00D1
ENCODING 209
SWIDTH 600 0
DWIDTH 15 0
BBX 11 22 2 0
BITMAP
3C80
7FC0
2780
0000
0000
E060
F060
F060
F060
D860
D860
CC60
CC60
CE60
C660
C660
C360
C360
C1E0
C1E0
C1E0
C0E0
ENDCHAR
STARTCHAR 00D2
ENCODING 210
SWIDTH 600 0
DWIDTH 15 0
BBX 13 24 1 0
BITMAP
0400
0C00
0600
0600
0300
0000
0000
0F80
3FE0
38E0
6030
6030
6030
E030
E038
E038
E038
E038
6030
6030
6030
38E0
3FE0
0F80
ENDCHAR
STARTCHAR 00D3
ENCODING 211
SWIDTH 600 0
DWIDTH 15 0
BBX 13 24 1 0
BITMAP
0100
0180
0300
0300
0600
0000
0000
0F80
3FE0
38E0
6030
6030
6030
E030
E038
E038
E038
E038
6030
6030
6030
38E0
3FE0
0F80
ENDCHAR
STARTCHAR 00D4
ENCODING 212
SWIDTH 600 0
DWIDTH 15 0
BBX 13 23 1 0
BITMAP
0700
0D80
18C0
3060
0000
0000
0F80
3FE0
38E0
6030
6030
6030
E030
E038
E038
E038
E038
6030
6030
6030
38E0
3FE0
0F80
ENDCHAR
STARTCHAR 00D5
ENCODING 213
SWIDTH 600 0
DWIDTH 15 0
BBX 13 22 1 0
BITMAP
1E40
3FE0
13C0
0000
0000
0F80
3FE0
38E0
6030
6030
6030
E030
E038
E038
E038
E038
6030
6030
6030
38E0
3FE0
0F80
ENDCHAR
STARTCHAR 00D6
ENCODING 214
SWIDTH 600 0
DWIDTH 15 0
BBX 13 22 1 0
BITMAP
18C0
1DC0
18C0
0000
0000
0F80
3FE0
38E0
6030
6030
6030
E030
E038
E038
E038
E038
6030
6030
6030
38E0
3FE0
0F80
ENDCHAR
STARTCHAR 00D7
ENCODING 215
SWIDTH 600 0
DWIDTH 15 0
BBX 11 11 2 2
BITMAP
4040
E0E0
71C0
3B80
1F00
0E00
1F00
3B80
71C0
E0E0
4040
ENDCHAR
STARTCHAR 00D8
ENCODING 216
SWIDTH 600 0
DWIDTH 15 0
BBX 13 19 1 -1
BITMAP
0010
0F98
3FF0
38E0
6070
60F0
60B0
E1B0
E338
E238
E638
EC30
6830
7830
7030
38E0
7FE0
CF80
4000
ENDCHAR
STARTCHAR 00D9
ENCODING 217
SWIDTH 600 0
DWIDTH 15 0
BBX 11 24 2 0
BITMAP
0800
1800
0C00
0C00
0600
0000
0000
C060
C060
C060
C060
C060
C060
C060
C060
C060
C060
C060
C060
C060
E0E0
60C0
7FC0
1F00
ENDCHAR
STARTCHAR 00DA
ENCODING 218
SWIDTH 600 0
DWIDTH 15 0
BBX 11 24 2 0
BITMAP
0200
0300
0600
0600
0C00
0000
0000
C060
C060
C060
C060
C060
C060
C060
C060
C060
C060
C060
C060
C060
E0E0
60C0
7FC0
1F00
ENDCHAR
STARTCHAR 00DB
ENCODING 219
SWIDTH 600 0
DWIDTH 15 0
BBX 11 23 2 0
BITMAP
0E00
1B00
3180
60C0
0000
0000
C060
C060
C060
C060
C060
C060
C060
C060
C060
C060
C060
C060
C060
E0E0
60C0
7FC0
1F00
ENDCHAR
STARTCHAR 00DC
ENCODING 220
SWIDTH 600 0
DWIDTH 15 0
BBX 11 22 2 0
BITMAP
3180
3B80
3180
0000
0000
C060
C060
C060
C060
C060
C060
C060
C060
C060
C060
C060
C060
C060
E0E0
60C0
7FC0
1F00
ENDCHAR
STARTCHAR 00DD
ENCODING 221
SWIDTH 600 0
DWIDTH 15 0
BBX 15 24 0 0
BITMAP
0080
00C0
0180
0180
0300
0000
0000
E00E
701C
3018
1838
1830
0C60
0EE0
06C0
03C0
0380
0380
0380
0380
0380
0380
0380
0380
ENDCHAR
STARTCHAR 00DE
ENCODING 222
SWIDTH 600 0
DWIDTH 15 0
BBX 12 17 2 0
BITMAP
C000
C000
C000
C000
FF80
FFE0
C060
C060
C070
C060
C060
FFE0
FF80
C000
C000
C000
C000
ENDCHAR
STARTCHAR 00DF
ENCODING 223
SWIDTH 600 0
DWIDTH 15 0
BBX 11 24 3 -5
BITMAP
7C00
FC00
C000
C000
C000
C000
FFC0
FFC0
C0C0
C180
C300
C600
CC00
CE00
CFC0
C0E0
C060
C060
C060
0060
0060
00C0
1FC0
1F00
ENDCHAR
STARTCHAR 00E0
ENCODING 224
SWIDTH 600 0
DWIDTH 15 0
BBX 12 20 2 0
BITMAP
1000
3800
1800
0C00
0400
0000
0000
1F00
7F80
E1C0
40C0
00C0
00C0
3FC0
FFC0
C0C0
C0C0
C1C0
FEF0
3C70
ENDCHAR
STARTCHAR 00E1
ENCODING 225
SWIDTH 600 0
DWIDTH 15 0
BBX 12 20 2 0
BITMAP
0200
0700
0600
0C00
0C00
0000
0000
1F00
7F80
E1C0
40C0
00C0
00C0
3FC0
FFC0
C0C0
C0C0
C1C0
FEF0
3C70
ENDCHAR
STARTCHAR 00E2
ENCODING 226
SWIDTH 600 0
DWIDTH 15 0
BBX 12 19 2 0
BITMAP
1E00
1F00
3300
6180
0000
0000
1F00
7F80
E1C0
40C0
00C0
00C0
3FC0
FFC0
C0C0
C0C0
C1C0
FEF0
3C70
ENDCHAR
STARTCHAR 00E3
ENCODING 227
SWIDTH 600 0
DWIDTH 15 0
BBX 12 18 2 0
BITMAP
3880
7F80
4700
0000
0000
1F00
7F80
E1C0
40C0
00C0
00C0
3FC0
FFC0
C0C0
C0C0
C1C0
FEF0
3C70
ENDCHAR
STARTCHAR 00E4
ENCODING 228
SWIDTH 600 0
DWIDTH 15 0
BBX 12 18 2 0
BITMAP
3380
7380
3380
0000
0000
1F00
7F80
E1C0
40C0
00C0
00C0
3FC0
FFC0
C0C0
C0C0
C1C0
FEF0
3C70
ENDCHAR
STARTCHAR 00E5
ENCODING 229
SWIDTH 600 0
DWIDTH 15 0
BBX 12 20 2 0
BITMAP
1E00
1300
3100
3100
1300
1E00
0000
1F00
7F80
E1C0
40C0
00C0
00C0
3FC0
FFC0
C0C0
C0C0
C1C0
FEF0
3C70
ENDCHAR
STARTCHAR 00E6
ENCODING 230
SWIDTH 600 0
DWIDTH 15 0
BBX 15 13 0 0
BITMAP
1C78
3EFC
638C
4304
0304
03FE
3FFE
7F00
E300
C304
C38C
7CF8
3870
ENDCHAR
STARTCHAR 00E7
ENCODING 231
SWIDTH 600 0
DWIDTH 15 0
BBX 11 18 2 -5
BITMAP
1F00
3FC0
70C0
6060
C000
C000
C000
C000
C000
6060
70C0
3FC0
1F80
0400
0700
0180
0980
1F00
ENDCHAR
STARTCHAR 00E8
ENCODING 232
SWIDTH 600 0
DWIDTH 15 0
BBX 11 20 2 0
BITMAP
0800
1800
0C00
0C00
0600
0000
0000
1F00
3FC0
60C0
C060
C060
FFE0
FFE0
C000
C000
C040
70E0
3FC0
1F00
ENDCHAR
STARTCHAR 00E9
ENCODING 233
SWIDTH 600 0
DWIDTH 15 0
BBX 11 20 2 0
BITMAP
0200
0300
0600
0600
0C00
0000
0000
1F00
3FC0
60C0
C060
C060
FFE0
FFE0
C000
C000
C040
70E0
3FC0
1F00
ENDCHAR
STARTCHAR 00EA
ENCODING 234
SWIDTH 600 0
DWIDTH 15 0
BBX 11 19 2 0
BITMAP
0E00
1B00
3180
20C0
0000
0000
1F00
3FC0
60C0
C060
C060
FFE0
FFE0
C000
C000
C040
70E0
3FC0
1F00
ENDCHAR
STARTCHAR 00EB
ENCODING 235
SWIDTH 600 0
DWIDTH 15 0
BBX 11 18 2 0
BITMAP
3180
3B80
3180
0000
0000
1F00
3FC0
60C0
C060
C060
FFE0
FFE0
C000
C000
C040
70E0
3FC0
1F00
ENDCHAR
STARTCHAR 00EC
ENCODING 236
SWIDTH 600 0
DWIDTH 15 0
BBX 11 20 3 0
BITMAP
1000
3800
1800
0C00
0400
0000
0000
FC00
FC00
0C00
0C00
0C00
0C00
0C00
0C00
0C00
0C00
0C00
FFE0
FFE0
ENDCHAR
STARTCHAR 00ED
ENCODING 237
SWIDTH 600 0
DWIDTH 15 0
BBX 11 20 3 0
BITMAP
0200
0300
0600
0400
0C00
0000
0000
FC00
FC00
0C00
0C00
0C00
0C00
0C00
0C00
0C00
0C00
0C00
FFE0
FFE0
ENDCHAR
STARTCHAR 00EE
ENCODING 238
SWIDTH 600 0
DWIDTH 15 0
BBX 11 19 3 0
BITMAP
0E00
1F00
3180
6080
0000
0000
FC00
FC00
0C00
0C00
0C00
0C00
0C00
0C00
0C00
0C00
0C00
FFE0
FFE0
ENDCHAR
STARTCHAR 00EF
ENCODING 239
SWIDTH 600 0
DWIDTH 15 0
BBX 11 18 3 0
BITMAP
3380
3380
3380
0000
0000
FC00
FC00
0C00
0C00
0C00
0C00
0C00
0C00
0C00
0C00
0C00
FFE0
FFE0
ENDCHAR
STARTCHAR 00F0
ENCODING 240
SWIDTH 600 0
DWIDTH 15 0
BBX 11 19 2 0
BITMAP
7980
1F80
0600
1F00
3180
00C0
1EC0
7F60
60E0
C060
C060
C060
C060
C060
C060
C060
60C0
7FC0
1F00
ENDCHAR
STARTCHAR 00F1
ENCODING 241
SWIDTH 600 0
DWIDTH 15 0
BBX 11 18 2 0
BITMAP
3C80
7FC0
2780
0000
0000
CF00
DFC0
D0C0
E0E0
C060
C060
C060
C060
C060
C060
C060
C060
C060
ENDCHAR
STARTCHAR 00F2
ENCODING 242
SWIDTH 600 0
DWIDTH 15 0
BBX 11 20 2 0
BITMAP
0800
1800
0C00
0C00
0600
0000
0000
1F00
7FC0
60C0
C060
C060
C060
C060
C060
C060
C060
60C0
7FC0
1F00
ENDCHAR
STARTCHAR 00F3
ENCODING 243
SWIDTH 600 0
DWIDTH 15 0
BBX 11 20 2 0
BITMAP
0200
0300
0600
0600
0C00
0000
0000
1F00
7FC0
60C0
C060
C060
C060
C060
C060
C060
C060
60C0
7FC0
1F00
ENDCHAR
STARTCHAR 00F4
ENCODING 244
SWIDTH 600 0
DWIDTH 15 0
BBX 11 19 2 0
BITMAP
0E00
1B00
3180
60C0
0000
0000
1F00
7FC0
60C0
C060
C060
C060
C060
C060
C060
C060
60C0
7FC0
1F00
ENDCHAR
STARTCHAR 00F5
ENCODING 245
SWIDTH 600 0
DWIDTH 15 0
BBX 11 18 2 0
BITMAP
3C80
7FC0
2780
0000
0000
1F00
7FC0
60C0
C060
C060
C060
C060
C060
C060
C060
60C0
7FC0
1F00
ENDCHAR
STARTCHAR 00F6
ENCODING 246
SWIDTH 600 0
DWIDTH 15 0
BBX 11 18 2 0
BITMAP
3180
3B80
3180
0000
0000
1F00
7FC0
60C0
C060
C060
C060
C060
C060
C060
C060
60C0
7FC0
1F00
ENDCHAR
STARTCHAR 00F7
ENCODING 247
SWIDTH 600 0
DWIDTH 15 0
BBX 11 14 2 1
BITMAP
0E00
0E00
0E00
0000
0000
0000
FFE0
FFE0
0000
0000
0000
0E00
0E00
0E00
ENDCHAR
STARTCHAR 00F8
ENCODING 248
SWIDTH 600 0
DWIDTH 15 0
BBX 13 15 1 -1
BITMAP
0010
0F98
3FF0
3060
60F0
61B0
6330
6230
6630
6C30
7830
3060
7FE0
4F80
C000
ENDCHAR
STARTCHAR 00F9
ENCODING 249
SWIDTH 600 0
DWIDTH 15 0
BBX 11 20 2 0
BITMAP
0800
1800
0C00
0C00
0600
0000
0000
C060
C060
C060
C060
C060
C060
C060
C060
C060
E0E0
6160
7F60
1E60
ENDCHAR
STARTCHAR 00FA
ENCODING 250
SWIDTH 600 0
DWIDTH 15 0
BBX 11 20 2 0
BITMAP
0200
0300
0600
0600
0C00
0000
0000
C060
C060
C060
C060
C060
C060
C060
C060
C060
E0E0
6160
7F60
1E60
ENDCHAR
STARTCHAR 00FB
ENCODING 251
SWIDTH 600 0
DWIDTH 15 0
BBX 11 19 2 0
BITMAP
0E00
1B00
3180
6080
0000
0000
C060
C060
C060
C060
C060
C060
C060
C060
C060
E0E0
6160
7F60
1E60
ENDCHAR
STARTCHAR 00FC
ENCODING 252
SWIDTH 600 0
DWIDTH 15 0
BBX 11 18 2 0
BITMAP
3180
3B80
3180
0000
0000
C060
C060
C060
C060
C060
C060
C060
C060
C060
E0E0
6160
7F60
1E60
ENDCHAR
STARTCHAR 00FD
ENCODING 253
SWIDTH 600 0
DWIDTH 15 0
BBX 13 25 1 -5
BITMAP
0100
0180
0300
0300
0600
0000
0000
E038
6030
6030
3060
3060
18C0
18C0
18C0
0D80
0D80
0700
0700
0700
0600
0600
0C00
7C00
7800
ENDCHAR
STARTCHAR 00FE
ENCODING 254
SWIDTH 600 0
DWIDTH 15 0
BBX 12 24 2 -5
BITMAP
C000
C000
C000
C000
C000
C000
CF80
DFC0
F0E0
E060
C060
C060
C070
C060
C060
E060
F0E0
DFC0
CF80
C000
C000
C000
C000
C000
ENDCHAR
STARTCHAR 00FF
ENCODING 255
SWIDTH 600 0
DWIDTH 15 0
BBX 13 23 1 -5
BITMAP
18C0
1DC0
18C0
0000
0000
E038
6030
6030
3060
3060
18C0
18C0
18C0
0D80
0D80
0700
0700
0700
0600
0600
0C00
7C00
7800
ENDCHAR
STARTCHAR 0100
ENCODING 256
SWIDTH 600 0
DWIDTH 15 0
BBX 13 22 1 0
BITMAP
1FC0
1FC0
0000
0000
0000
0700
0700
0D80
0D80
0D80
18C0
18C0
18C0
3060
3060
3FE0
7FF0
6030
6030
6030
C018
C018
ENDCHAR
STARTCHAR 0101
ENCODING 257
SWIDTH 600 0
DWIDTH 15 0
BBX 12 18 2 0
BITMAP
3F80
3F80
0000
0000
0000
1F00
7F80
E1C0
40C0
00C0
00C0
3FC0
FFC0
C0C0
C0C0
C1C0
FEF0
3C70
ENDCHAR
STARTCHAR 0102
ENCODING 258
SWIDTH 600 0
DWIDTH 15 0
BBX 13 24 1 0
BITMAP
1040
30E0
18C0
0F80
0700
0000
0000
0700
0700
0D80
0D80
0D80
18C0
18C0
18C0
3060
3060
3FE0
7FF0
6030
6030
6030
C018
C018
ENDCHAR
STARTCHAR 0103
ENCODING 259
SWIDTH 600 0
DWIDTH 15 0
BBX 12 20 2 0
BITMAP
4100
6180
3300
3F00
1E00
0000
0000
1F00
7F80
E1C0
40C0
00C0
00C0
3FC0
FFC0
C0C0
C0C0
C1C0
FEF0
3C70
ENDCHAR
STARTCHAR 0104
ENCODING 260
SWIDTH 600 0
DWIDTH 15 0
BBX 14 22 1 -5
BITMAP
0700
0700
0D80
0D80
0D80
18C0
18C0
18C0
3060
3060
3FE0
7FE0
6030
6030
6030
C018
C018
0018
0070
0060
0048
007C
ENDCHAR
STARTCHAR 0105
ENCODING 261
SWIDTH 600 0
DWIDTH 15 0
BBX 12 18 2 -5
BITMAP
1F00
7F80
E1C0
40C0
00C0
00C0
3FC0
FFC0
C0C0
C0C0
C1C0
FEF0
3C70
0060
00C0
0180
01A0
00F0
ENDCHAR
STARTCHAR 0106
ENCODING 262
SWIDTH 600 0
DWIDTH 15 0
BBX 11 24 2 0
BITMAP
0100
0180
0300
0200
0600
0000
0000
1F00
3FC0
70E0
6060
C040
C000
C000
C000
C000
C000
C000
C000
C040
6060
70E0
3FC0
1F00
ENDCHAR
STARTCHAR 0107
ENCODING 263
SWIDTH 600 0
DWIDTH 15 0
BBX 11 20 2 0
BITMAP
0100
0380
0300
0600
0400
0000
0000
1F00
3FC0
70C0
6060
C000
C000
C000
C000
C000
6060
70C0
3FC0
1F00
ENDCHAR
STARTCHAR 0108
ENCODING 264
SWIDTH 600 0
DWIDTH 15 0
BBX 11 23 2 0
BITMAP
0700
0F80
19C0
3040
0000
0000
1F00
3FC0
70E0
6060
C040
C000
C000
C000
C000
C000
C000
C000
C040
6060
70E0
3FC0
1F00
ENDCHAR
STARTCHAR 0109
ENCODING 265
SWIDTH 600 0
DWIDTH 15 0
BBX 11 19 2 0
BITMAP
0F00
1F00
3980
20C0
0000
0000
1F00
3FC0
70C0
6060
C000
C000
C000
C000
C000
6060
70C0
3FC0
1F00
ENDCHAR
STARTCHAR 010A
ENCODING 266
SWIDTH 600 0
DWIDTH 15 0
BBX 11 22 2 0
BITMAP
0700
0700
0700
0000
0000
1F00
3FC0
70E0
6060
C040
C000
C000
C000
C000
C000
C000
C000
C040
6060
70E0
3FC0
1F00
ENDCHAR
STARTCHAR 010B
ENCODING 267
SWIDTH 600 0
DWIDTH 15 0
BBX 11 18 2 0
BITMAP
0E00
0E00
0600
0000
0000
1F00
3FC0
70C0
6060
C000
C000
C000
C000
C000
6060
70C0
3FC0
1F00
ENDCHAR
STARTCHAR 010C
ENCODING 268
SWIDTH 600 0
DWIDTH 15 0
BBX 11 23 2 0
BITMAP
1040
38C0
0D80
0700
0000
0000
1F00
3FC0
70E0
6060
C040
C000
C000
C000
C000
C000
C000
C000
C040
6060
70E0
3FC0
1F00
ENDCHAR
STARTCHAR 010D
ENCODING 269
SWIDTH 600 0
DWIDTH 15 0
BBX 11 19 2 0
BITMAP
30C0
3980
1F00
0F00
0000
0000
1F00
3FC0
70C0
6060
C000
C000
C000
C000
C000
6060
70C0
3FC0
1F00
ENDCHAR
STARTCHAR 010E
ENCODING 270
SWIDTH 600 0
DWIDTH 15 0
BBX 12 23 2 0
BITMAP
6180
3300
3E00
1E00
0000
0000
FF00
FF80
C1C0
C0E0
C060
C060
C060
C070
C070
C070
C060
C060
C060
C0E0
C1C0
FF80
FF00
ENDCHAR
STARTCHAR 010F
ENCODING 271
SWIDTH 600 0
DWIDTH 15 0
BBX 15 19 1 0
BITMAP
0066
0066
0066
006C
006C
0060
1E60
3F60
70E0
E060
C060
C060
C060
C060
C060
6060
70E0
3F60
1E60
ENDCHAR
STARTCHAR 0110
ENCODING 272
SWIDTH 600 0
DWIDTH 15 0
BBX 13 17 1 0
BITMAP
3F80
3FC0
30E0
3070
3030
3030
3030
FE38
FE38
3038
3030
3030
3030
3070
30E0
3FC0
3F80
ENDCHAR
STARTCHAR 0111
ENCODING 273
SWIDTH 600 0
DWIDTH 15 0
BBX 13 19 1 0
BITMAP
0030
0030
03F8
03F8
0030
0030
1F30
3FB0
70F0
6070
6030
6030
E030
6030
6030
6070
70F0
3FB0
1F30
ENDCHAR
STARTCHAR 0112
ENCODING 274
SWIDTH 600 0
DWIDTH 15 0
BBX 11 22 2 0
BITMAP
3F80
3F80
0000
0000
0000
FFE0
FFE0
C000
C000
C000
C000
C000
FFE0
FFE0
C000
C000
C000
C000
C000
C000
FFE0
FFE0
ENDCHAR
STARTCHAR 0113
ENCODING 275
SWIDTH 600 0
DWIDTH 15 0
BBX 11 18 2 0
BITMAP
3F80
3F80
0000
0000
0000
1F00
3FC0
60C0
C060
C060
FFE0
FFE0
C000
C000
C040
70E0
3FC0
1F00
ENDCHAR
STARTCHAR 0114
ENCODING 276
SWIDTH 600 0
DWIDTH 15 0
BBX 11 24 2 0
BITMAP
2080
30C0
3180
1F00
0E00
0000
0000
FFE0
FFE0
C000
C000
C000
C000
C000
FFE0
FFE0
C000
C000
C000
C000
C000
C000
FFE0
FFE0
ENDCHAR
STARTCHAR 0115
ENCODING 277
SWIDTH 600 0
DWIDTH 15 0
BBX 11 20 2 0
BITMAP
2080
30C0
3180
1F00
0E00
0000
0000
1F00
3FC0
60C0
C060
C060
FFE0
FFE0
C000
C000
C040
70E0
3FC0
1F00
ENDCHAR
STARTCHAR 0116
ENCODING 278
SWIDTH 600 0
DWIDTH 15 0
BBX 11 22 2 0
BITMAP
0E00
0E00
0E00
0000
0000
FFE0
FFE0
C000
C000
C000
C000
C000
FFE0
FFE0
C000
C000
C000
C000
C000
C000
FFE0
FFE0
ENDCHAR
STARTCHAR 0117
ENCODING 279
SWIDTH 600 0
DWIDTH 15 0
BBX 11 18 2 0
BITMAP
0E00
0E00
0E00
0000
0000
1F00
3FC0
60C0
C060
C060
FFE0
FFE0
C000
C000
C040
70E0
3FC0
1F00
ENDCHAR
STARTCHAR 0118
ENCODING 280
SWIDTH 600 0
DWIDTH 15 0
BBX 12 22 2 -5
BITMAP
FFE0
FFE0
C000
C000
C000
C000
C000
FFE0
FFE0
C000
C000
C000
C000
C000
C000
FFE0
FFE0
0040
0180
0100
0320
01F0
ENDCHAR
STARTCHAR 0119
ENCODING 281
SWIDTH 600 0
DWIDTH 15 0
BBX 11 18 2 -5
BITMAP
1F00
3FC0
60C0
C060
C060
FFE0
FFE0
C000
C000
C040
70E0
3FC0
1F80
0300
0600
0C00
0C80
0780
ENDCHAR
STARTCHAR 011A
ENCODING 282
SWIDTH 600 0
DWIDTH 15 0
BBX 11 23 2 0
BITMAP
2080
31C0
1B00
0E00
0000
0000
FFE0
FFE0
C000
C000
C000
C000
C000
FFE0
FFE0
C000
C000
C000
C000
C000
C000
FFE0
FFE0
ENDCHAR
STARTCHAR 011B
ENCODING 283
SWIDTH 600 0
DWIDTH 15 0
BBX 11 19 2 0
BITMAP
2080
31C0
1B00
0E00
0000
0000
1F00
3FC0
60C0
C060
C060
FFE0
FFE0
C000
C000
C040
70E0
3FC0
1F00
ENDCHAR
STARTCHAR 011C
ENCODING 284
SWIDTH 600 0
DWIDTH 15 0
BBX 12 23 1 0
BITMAP
0700
0D80
18C0
1060
0000
0000
0F80
3FC0
3860
7030
6020
6000
E000
E000
E3F0
E3F0
E030
6030
6030
6030
3870
3FB0
0F30
ENDCHAR
STARTCHAR 011D
ENCODING 285
SWIDTH 600 0
DWIDTH 15 0
BBX 12 24 2 -5
BITMAP
0E00
1B00
3180
6080
0000
0000
1FF0
7FF0
61C0
E0C0
E0C0
60C0
61C0
3F80
3F00
6000
4000
7FC0
3FE0
C030
C030
C070
FFE0
3F80
ENDCHAR
STARTCHAR 011E
ENCODING 286
SWIDTH 600 0
DWIDTH 15 0
BBX 12 24 1 0
BITMAP
1040
1860
18C0
0F80
0700
0000
0000
0F80
3FC0
3860
7030
6020
6000
E000
E000
E3F0
E3F0
E030
6030
6030
6030
3870
3FB0
0F30
ENDCHAR
STARTCHAR 011F
ENCODING 287
SWIDTH 600 0
DWIDTH 15 0
BBX 12 25 2 -5
BITMAP
2080
6180
3180
1F00
0E00
0000
0000
1FF0
7FF0
61C0
E0C0
E0C0
60C0
61C0
3F80
3F00
6000
4000
7FC0
3FE0
C030
C030
C070
FFE0
3F80
ENDCHAR
STARTCHAR 0120
ENCODING 288
SWIDTH 600 0
DWIDTH 15 0
BBX 12 22 1 0
BITMAP
0700
0700
0700
0000
0000
0F80
3FC0
3860
7030
6020
6000
E000
E000
E3F0
E3F0
E030
6030
6030
6030
3870
3FB0
0F30
ENDCHAR
STARTCHAR 0121
ENCODING 289
SWIDTH 600 0
DWIDTH 15 0
BBX 12 23 2 -5
BITMAP
0E00
0E00
0E00
00F0
00F0
1F80
7FC0
61C0
E0C0
E0C0
60C0
61C0
3F80
3F00
6000
4000
7FC0
3FE0
C030
C030
C070
FFE0
3F80
ENDCHAR
STARTCHAR 0122
ENCODING 290
SWIDTH 600 0
DWIDTH 15 0
BBX 12 24 1 -7
BITMAP
0F80
3FC0
3860
7030
6020
6000
E000
E000
E3F0
E3F0
E030
6030
6030
6030
3870
3FB0
0F30
0000
0000
0700
0600
0600
0600
0C00
ENDCHAR
STARTCHAR 0123
ENCODING 291
SWIDTH 600 0
DWIDTH 15 0
BBX 12 25 2 -5
BITMAP
0200
0600
0600
0600
0E00
00F0
00F0
1F80
7FC0
61C0
E0C0
E0C0
60C0
61C0
3F80
3F00
6000
4000
7FC0
3FE0
C030
C030
C070
FFE0
3F80
ENDCHAR
STARTCHAR 0124
ENCODING 292
SWIDTH 600 0
DWIDTH 15 0
BBX 11 23 2 0
BITMAP
0E00
1B00
3180
60C0
0000
0000
C060
C060
C060
C060
C060
C060
C060
FFE0
FFE0
C060
C060
C060
C060
C060
C060
C060
C060
ENDCHAR
STARTCHAR 0125
ENCODING 293
SWIDTH 600 0
DWIDTH 15 0
BBX 14 24 -1 0
BITMAP
1C00
3600
6300
C180
0000
1800
1800
1800
1800
1800
1800
19E0
1BF8
1A18
1C1C
180C
180C
180C
180C
180C
180C
180C
180C
180C
ENDCHAR
STARTCHAR 0126
ENCODING 294
SWIDTH 600 0
DWIDTH 15 0
BBX 15 17 0 0
BITMAP
3018
3018
FFFE
FFFE
3018
3018
3018
3FF8
3FF8
3018
3018
3018
3018
3018
3018
3018
3018
ENDCHAR
STARTCHAR 0127
ENCODING 295
SWIDTH 600 0
DWIDTH 15 0
BBX 12 19 1 0
BITMAP
6000
6000
FE00
FE00
6000
6000
6780
6FE0
6860
7070
6030
6030
6030
6030
6030
6030
6030
6030
6030
ENDCHAR
STARTCHAR 0128
ENCODING 296
SWIDTH 600 0
DWIDTH 15 0
BBX 11 22 2 0
BITMAP
3C80
7FC0
2780
0000
0000
FFE0
FFE0
0E00
0E00
0E00
0E00
0E00
0E00
0E00
0E00
0E00
0E00
0E00
0E00
0E00
FFE0
FFE0
ENDCHAR
STARTCHAR 0129
ENCODING 297
SWIDTH 600 0
DWIDTH 15 0
BBX 11 18 3 0
BITMAP
3880
7FC0
4780
0000
0000
FC00
FC00
0C00
0C00
0C00
0C00
0C00
0C00
0C00
0C00
0C00
FFE0
FFE0
ENDCHAR
STARTCHAR 012A
ENCODING 298
SWIDTH 600 0
DWIDTH 15 0
BBX 11 22 2 0
BITMAP
3F80
3F80
0000
0000
0000
FFE0
FFE0
0E00
0E00
0E00
0E00
0E00
0E00
0E00
0E00
0E00
0E00
0E00
0E00
0E00
FFE0
FFE0
ENDCHAR
STARTCHAR 012B
ENCODING 299
SWIDTH 600 0
DWIDTH 15 0
BBX 11 18 3 0
BITMAP
3F80
3F80
0000
0000
0000
FC00
FC00
0C00
0C00
0C00
0C00
0C00
0C00
0C00
0C00
0C00
FFE0
FFE0
ENDCHAR
STARTCHAR 012C
ENCODING 300
SWIDTH 600 0
DWIDTH 15 0
BBX 11 24 2 0
BITMAP
2080
61C0
3180
1F00
0E00
0000
0000
FFE0
FFE0
0E00
0E00
0E00
0E00
0E00
0E00
0E00
0E00
0E00
0E00
0E00
0E00
0E00
FFE0
FFE0
ENDCHAR
STARTCHAR 012D
ENCODING 301
SWIDTH 600 0
DWIDTH 15 0
BBX 11 20 3 0
BITMAP
2080
6180
3180
1F00
0E00
0000
0000
FC00
FC00
0C00
0C00
0C00
0C00
0C00
0C00
0C00
0C00
0C00
FFE0
FFE0
ENDCHAR
STARTCHAR 012E
ENCODING 302
SWIDTH 600 0
DWIDTH 15 0
BBX 11 22 2 -5
BITMAP
FFE0
FFE0
0E00
0E00
0E00
0E00
0E00
0E00
0E00
0E00
0E00
0E00
0E00
0E00
0E00
FFE0
FFE0
00C0
0180
0300
0320
01E0
ENDCHAR
STARTCHAR 012F
ENCODING 303
SWIDTH 600 0
DWIDTH 15 0
BBX 11 24 3 -5
BITMAP
0E00
0E00
0E00
0000
0000
0000
FC00
FC00
0C00
0C00
0C00
0C00
0C00
0C00
0C00
0C00
0C00
FFE0
FFE0
00C0
0180
0300
0340
01E0
ENDCHAR
STARTCHAR 0130
ENCODING 304
SWIDTH 600 0
DWIDTH 15 0
BBX 11 22 2 0
BITMAP
0E00
0E00
0E00
0000
0000
FFE0
FFE0
0E00
0E00
0E00
0E00
0E00
0E00
0E00
0E00
0E00
0E00
0E00
0E00
0E00
FFE0
FFE0
ENDCHAR
STARTCHAR 0131
ENCODING 305
SWIDTH 600 0
DWIDTH 15 0
BBX 11 13 3 0
BITMAP
FC00
FC00
0C00
0C00
0C00
0C00
0C00
0C00
0C00
0C00
0C00
FFE0
FFE0
ENDCHAR
STARTCHAR 0132
ENCODING 306
SWIDTH 600 0
DWIDTH 15 0
BBX 11 17 2 0
BITMAP
C060
C060
C060
C060
C060
C060
C060
C060
C060
C060
0060
0060
4060
E0E0
71C0
7F80
1F00
ENDCHAR
STARTCHAR 0133
ENCODING 307
SWIDTH 600 0
DWIDTH 15 0
BBX 11 24 2 -5
BITMAP
E0E0
E0E0
E0E0
0000
0000
0000
60C0
60C0
60C0
60C0
60C0
60C0
60C0
60C0
60C0
60C0
60C0
60C0
60C0
00C0
00C0
00C0
1FC0
1F80
ENDCHAR
STARTCHAR 0134
ENCODING 308
SWIDTH 600 0
DWIDTH 15 0
BBX 10 23 2 0
BITMAP
0F00
1F00
3980
20C0
0000
0000
3FC0
3FC0
00C0
00C0
00C0
00C0
00C0
00C0
00C0
00C0
00C0
00C0
40C0
C0C0
E1C0
7F80
3E00
ENDCHAR
STARTCHAR 0135
ENCODING 309
SWIDTH 600 0
DWIDTH 15 0
BBX 12 24 2 -5
BITMAP
0380
07C0
0C60
0830
0000
0000
FF80
FF80
0180
0180
0180
0180
0180
0180
0180
0180
0180
0180
0180
0180
0180
0180
7F80
7F00
ENDCHAR
STARTCHAR 0136
ENCODING 310
SWIDTH 600 0
DWIDTH 15 0
BBX 12 24 2 -7
BITMAP
C070
C0E0
C0C0
C180
C300
C700
CE00
DC00
DE00
F700
E300
C180
C1C0
C0C0
C0E0
C070
C030
0000
0000
0600
0600
0C00
0C00
0C00
ENDCHAR
STARTCHAR 0137
ENCODING 311
SWIDTH 600 0
DWIDTH 15 0
BBX 11 26 3 -7
BITMAP
C000
C000
C000
C000
C000
C000
C0E0
C180
C300
CE00
DC00
FC00
FC00
E600
C300
C380
C180
C0C0
C0E0
0000
0000
0E00
0C00
1C00
1800
1800
ENDCHAR
STARTCHAR 0138
ENCODING 312
SWIDTH 600 0
DWIDTH 15 0
BBX 11 13 3 0
BITMAP
C0E0
C180
C300
C600
CC00
DC00
FC00
E600
C300
C380
C1C0
C0C0
C060
ENDCHAR
STARTCHAR 0139
ENCODING 313
SWIDTH 600 0
DWIDTH 15 0
BBX 10 24 3 0
BITMAP
2000
7000
6000
C000
C000
0000
0000
C000
C000
C000
C000
C000
C000
C000
C000
C000
C000
C000
C000
C000
C000
C000
FFC0
FFC0
ENDCHAR
STARTCHAR 013A
ENCODING 314
SWIDTH 600 0
DWIDTH 15 0
BBX 11 25 2 0
BITMAP
0200
0300
0600
0600
0C00
0000
FE00
FE00
0E00
0E00
0E00
0E00
0E00
0E00
0E00
0E00
0E00
0E00
0E00
0E00
0E00
0E00
0E00
FFE0
FFE0
ENDCHAR
STARTCHAR 013B
ENCODING 315
SWIDTH 600 0
DWIDTH 15 0
BBX 10 24 3 -7
BITMAP
C000
C000
C000
C000
C000
C000
C000
C000
C000
C000
C000
C000
C000
C000
C000
FFC0
FFC0
0000
0000
0E00
0C00
1C00
1800
1800
ENDCHAR
STARTCHAR 013C
ENCODING 316
SWIDTH 600 0
DWIDTH 15 0
BBX 11 26 2 -7
BITMAP
FE00
FE00
0E00
0E00
0E00
0E00
0E00
0E00
0E00
0E00
0E00
0E00
0E00
0E00
0E00
0E00
0E00
FFE0
FFE0
0000
0000
0E00
0C00
0C00
0C00
1800
ENDCHAR
STARTCHAR 013D
ENCODING 317
SWIDTH 600 0
DWIDTH 15 0
BBX 10 19 3 0
BITMAP
0E00
0E00
CC00
CC00
CC00
C000
C000
C000
C000
C000
C000
C000
C000
C000
C000
C000
C000
FFC0
FFC0
ENDCHAR
STARTCHAR 013E
ENCODING 318
SWIDTH 600 0
DWIDTH 15 0
BBX 11 19 2 0
BITMAP
FE60
FE60
0E60
0E60
0E40
0E00
0E00
0E00
0E00
0E00
0E00
0E00
0E00
0E00
0E00
0E00
0E00
FFE0
FFE0
ENDCHAR
STARTCHAR 013F
ENCODING 319
SWIDTH 600 0
DWIDTH 15 0
BBX 10 17 3 0
BITMAP
C000
C000
C000
C000
C000
C000
C000
C000
C180
C380
C180
C000
C000
C000
C000
FFC0
FFC0
ENDCHAR
STARTCHAR 0140
ENCODING 320
SWIDTH 600 0
DWIDTH 15 0
BBX 12 19 2 0
BITMAP
FE00
FE00
0E00
0E00
0E00
0E00
0E00
0E00
0E00
0E00
0E30
0E70
0E30
0E00
0E00
0E00
0E00
FFE0
FFE0
ENDCHAR
STARTCHAR 0141
ENCODING 321
SWIDTH 600 0
DWIDTH 15 0
BBX 12 17 1 0
BITMAP
3000
3000
3000
3000
3000
3000
3080
3780
7F00
F800
F000
3000
3000
3000
3000
3FF0
3FF0
ENDCHAR
STARTCHAR 0142
ENCODING 322
SWIDTH 600 0
DWIDTH 15 0
BBX 11 19 2 0
BITMAP
FE00
FE00
0E00
0E00
0E00
0E00
0E00
0E00
0E40
0FC0
3F80
7E00
4E00
0E00
0E00
0E00
0E00
FFE0
FFE0
ENDCHAR
STARTCHAR 0143
ENCODING 323
SWIDTH 600 0
DWIDTH 15 0
BBX 11 24 2 0
BITMAP
0200
0300
0600
0600
0C00
0000
0000
E060
F060
F060
F060
D860
D860
CC60
CC60
CE60
C660
C660
C360
C360
C1E0
C1E0
C1E0
C0E0
ENDCHAR
STARTCHAR 0144
ENCODING 324
SWIDTH 600 0
DWIDTH 15 0
BBX 11 20 2 0
BITMAP
0200
0300
0600
0600
0C00
0000
0000
CF00
DFC0
D0C0
E0E0
C060
C060
C060
C060
C060
C060
C060
C060
C060
ENDCHAR
STARTCHAR 0145
ENCODING 325
SWIDTH 600 0
DWIDTH 15 0
BBX 11 24 2 -7
BITMAP
E060
F060
F060
F060
D860
D860
CC60
CC60
CE60
C660
C660
C360
C360
C1E0
C1E0
C1E0
C0E0
0000
0000
0E00
0C00
0C00
0C00
1800
ENDCHAR
STARTCHAR 0146
ENCODING 326
SWIDTH 600 0
DWIDTH 15 0
BBX 11 20 2 -7
BITMAP
CF00
DFC0
D0C0
E0E0
C060
C060
C060
C060
C060
C060
C060
C060
C060
0000
0000
0E00
0C00
0C00
0C00
0800
ENDCHAR
STARTCHAR 0147
ENCODING 327
SWIDTH 600 0
DWIDTH 15 0
BBX 11 23 2 0
BITMAP
2080
71C0
1B00
0E00
0000
0000
E060
F060
F060
F060
D860
D860
CC60
CC60
CE60
C660
C660
C360
C360
C1E0
C1E0
C1E0
C0E0
ENDCHAR
STARTCHAR 0148
ENCODING 328
SWIDTH 600 0
DWIDTH 15 0
BBX 11 19 2 0
BITMAP
2080
31C0
1B00
0E00
0000
0000
CF00
DFC0
D0C0
E0E0
C060
C060
C060
C060
C060
C060
C060
C060
C060
ENDCHAR
STARTCHAR 0149
ENCODING 329
SWIDTH 600 0
DWIDTH 15 0
BBX 13 19 0 0
BITMAP
E000
C000
C000
C000
8000
0000
33C0
37F0
3430
3838
3018
3018
3018
3018
3018
3018
3018
3018
3018
ENDCHAR
STARTCHAR 014A
ENCODING 330
SWIDTH 600 0
DWIDTH 15 0
BBX 11 22 2 -5
BITMAP
E060
F060
F060
F060
D860
D860
CC60
CC60
CE60
C660
C660
C360
C360
C1E0
C1E0
C1E0
C0E0
0060
0060
0060
3FE0
3FC0
ENDCHAR
STARTCHAR 014B
ENCODING 331
SWIDTH 600 0
DWIDTH 15 0
BBX 11 18 2 -5
BITMAP
CF00
DFC0
D0C0
E0E0
C060
C060
C060
C060
C060
C060
C060
C060
C060
0060
0060
0060
3FC0
3FC0
ENDCHAR
STARTCHAR 014C
ENCODING 332
SWIDTH 600 0
DWIDTH 15 0
BBX 13 22 1 0
BITMAP
1FC0
1FC0
0000
0000
0000
0F80
3FE0
38E0
6030
6030
6030
E030
E038
E038
E038
E038
6030
6030
6030
38E0
3FE0
0F80
ENDCHAR
STARTCHAR 014D
ENCODING 333
SWIDTH 600 0
DWIDTH 15 0
BBX 11 18 2 0
BITMAP
3F80
3F80
0000
0000
0000
1F00
7FC0
60C0
C060
C060
C060
C060
C060
C060
C060
60C0
7FC0
1F00
ENDCHAR
STARTCHAR 014E
ENCODING 334
SWIDTH 600 0
DWIDTH 15 0
BBX 13 24 1 0
BITMAP
1040
30E0
18C0
0F80
0700
0000
0000
0F80
3FE0
38E0
6030
6030
6030
E030
E038
E038
E038
E038
6030
6030
6030
38E0
3FE0
0F80
ENDCHAR
STARTCHAR 014F
ENCODING 335
SWIDTH 600 0
DWIDTH 15 0
BBX 11 20 2 0
BITMAP
2080
61C0
3180
1F00
0E00
0000
0000
1F00
7FC0
60C0
C060
C060
C060
C060
C060
C060
C060
60C0
7FC0
1F00
ENDCHAR
STARTCHAR 0150
ENCODING 336
SWIDTH 600 0
DWIDTH 15 0
BBX 13 24 1 0
BITMAP
0440
0660
0CC0
0CC0
1980
0000
0000
0F80
3FE0
38E0
6030
6030
6030
E030
E038
E038
E038
E038
6030
6030
6030
38E0
3FE0
0F80
ENDCHAR
STARTCHAR 0151
ENCODING 337
SWIDTH 600 0
DWIDTH 15 0
BBX 11 20 2 0
BITMAP
0880
0CC0
1980
1980
3300
0000
0000
1F00
7FC0
60C0
C060
C060
C060
C060
C060
C060
C060
60C0
7FC0
1F00
ENDCHAR
STARTCHAR 0152
ENCODING 338
SWIDTH 600 0
DWIDTH 15 0
BBX 13 17 1 0
BITMAP
0FF8
3FF8
7180
6180
C180
C180
C180
C1F8
C1F8
C180
C180
C180
E180
6180
7180
3FF8
1FF8
ENDCHAR
STARTCHAR 0153
ENCODING 339
SWIDTH 600 0
DWIDTH 15 0
BBX 15 13 0 0
BITMAP
3C78
7EFC
628C
4304
C304
C1FE
C1FE
C100
C300
4384
638C
7EF8
3C70
ENDCHAR
STARTCHAR 0154
ENCODING 340
SWIDTH 600 0
DWIDTH 15 0
BBX 12 24 2 0
BITMAP
0200
0380
0300
0600
0400
0000
0000
FF80
FFC0
C0E0
C060
C070
C070
C060
C0E0
FFC0
FF80
C700
C300
C180
C1C0
C0C0
C0E0
C070
ENDCHAR
STARTCHAR 0155
ENCODING 341
SWIDTH 600 0
DWIDTH 15 0
BBX 12 20 2 0
BITMAP
0080
01C0
0180
0300
0200
0000
0000
FCF0
FDF0
0E00
0C00
0C00
0C00
0C00
0C00
0C00
0C00
0C00
FFE0
FFE0
ENDCHAR
STARTCHAR 0156
ENCODING 342
SWIDTH 600 0
DWIDTH 15 0
BBX 12 24 2 -7
BITMAP
FF80
FFC0
C0E0
C060
C070
C070
C060
C0E0
FFC0
FF80
C700
C300
C180
C1C0
C0C0
C0E0
C060
0010
0000
0E00
0E00
0C00
0C00
0800
ENDCHAR
STARTCHAR 0157
ENCODING 343
SWIDTH 600 0
DWIDTH 15 0
BBX 12 20 2 -7
BITMAP
FCF0
FDF0
0E00
0C00
0C00
0C00
0C00
0C00
0C00
0C00
0C00
FFE0
FFE0
0000
0000
1C00
1C00
1800
1800
1000
ENDCHAR
STARTCHAR 0158
ENCODING 344
SWIDTH 600 0
DWIDTH 15 0
BBX 12 23 2 0
BITMAP
2080
31C0
1B00
0E00
0000
0000
FF80
FFC0
C0E0
C060
C070
C070
C060
C0E0
FFC0
FF80
C700
C300
C180
C1C0
C0C0
C0E0
C070
ENDCHAR
STARTCHAR 0159
ENCODING 345
SWIDTH 600 0
DWIDTH 15 0
BBX 12 19 2 0
BITMAP
1860
1CC0
0F80
0780
0000
0000
FCF0
FDF0
0E00
0C00
0C00
0C00
0C00
0C00
0C00
0C00
0C00
FFE0
FFE0
ENDCHAR
STARTCHAR 015A
ENCODING 346
SWIDTH 600 0
DWIDTH 15 0
BBX 13 24 1 0
BITMAP
0100
0180
0300
0300
0600
0000
0000
0F80
3FE0
7070
6030
6000
6000
7000
3F00
1FE0
01F0
0030
0038
4038
E030
7070
3FE0
1F80
ENDCHAR
STARTCHAR 015B
ENCODING 347
SWIDTH 600 0
DWIDTH 15 0
BBX 11 20 2 0
BITMAP
0200
0300
0600
0600
0C00
0000
0000
1F00
7FC0
60E0
C000
E000
7E00
3FC0
03E0
0060
8060
E0E0
7FC0
1F80
ENDCHAR
STARTCHAR 015C
ENCODING 348
SWIDTH 600 0
DWIDTH 15 0
BBX 13 23 1 0
BITMAP
0700
0D80
18C0
3060
0000
0000
0F80
3FE0
7070
6030
6000
6000
7000
3F00
1FE0
01F0
0030
0038
4038
E030
7070
3FE0
1F80
ENDCHAR
STARTCHAR 015D
ENCODING 349
SWIDTH 600 0
DWIDTH 15 0
BBX 11 19 2 0
BITMAP
0E00
1B00
3180
60C0
0000
0000
1F00
7FC0
60E0
C000
E000
7E00
3FC0
03E0
0060
8060
E0E0
7FC0
1F80
ENDCHAR
STARTCHAR 015E
ENCODING 350
SWIDTH 600 0
DWIDTH 15 0
BBX 13 22 1 -5
BITMAP
0F80
3FE0
7070
6030
6000
6000
7000
3F00
1FE0
01F0
0030
0038
4038
E030
7070
3FE0
1FC0
0200
0780
0080
08C0
0780
ENDCHAR
STARTCHAR 015F
ENCODING 351
SWIDTH 600 0
DWIDTH 15 0
BBX 11 18 2 -5
BITMAP
1F00
7FC0
60E0
C000
E000
7E00
3FC0
03E0
0060
8060
E0E0
7FC0
1F80
0400
0700
0980
1100
0F00
ENDCHAR
STARTCHAR 0160
ENCODING 352
SWIDTH 600 0
DWIDTH 15 0
BBX 13 23 1 0
BITMAP
1040
38E0
0D80
0700
0000
0000
0F80
3FE0
7070
6030
6000
6000
7000
3F00
1FE0
01F0
0030
0038
4038
E030
7070
3FE0
1F80
ENDCHAR
STARTCHAR 0161
ENCODING 353
SWIDTH 600 0
DWIDTH 15 0
BBX 11 19 2 0
BITMAP
2080
71C0
1B00
0E00
0000
0000
1F00
7FC0
60E0
C000
E000
7E00
3FC0
03E0
0060
8060
E0E0
7FC0
1F80
ENDCHAR
STARTCHAR 0162
ENCODING 354
SWIDTH 600 0
DWIDTH 15 0
BBX 13 24 1 -7
BITMAP
FFF8
FFF8
0700
0700
0700
0700
0700
0700
0700
0700
0700
0700
0700
0700
0700
0700
0700
0000
0000
0700
0600
0600
0600
0C00
ENDCHAR
STARTCHAR 0163
ENCODING 355
SWIDTH 600 0
DWIDTH 15 0
BBX 12 24 1 -7
BITMAP
0C00
0C00
0C00
0C00
FFF0
FFF0
0C00
0C00
0C00
0C00
0C00
0C00
0C00
0C00
0C00
07F0
07F0
0000
0000
01C0
0180
0180
0100
0300
ENDCHAR
STARTCHAR 0164
ENCODING 356
SWIDTH 600 0
DWIDTH 15 0
BBX 13 23 1 0
BITMAP
1040
38E0
0D80
0700
0000
0000
FFF8
FFF8
0700
0700
0700
0700
0700
0700
0700
0700
0700
0700
0700
0700
0700
0700
0700
ENDCHAR
STARTCHAR 0165
ENCODING 357
SWIDTH 600 0
DWIDTH 15 0
BBX 12 20 1 0
BITMAP
0060
0060
0060
0C60
0C40
0C00
0C00
FFF0
FFF0
0C00
0C00
0C00
0C00
0C00
0C00
0C00
0C00
0C00
07F0
07F0
ENDCHAR
STARTCHAR 0166
ENCODING 358
SWIDTH 600 0
DWIDTH 15 0
BBX 13 17 1 0
BITMAP
FFF8
FFF8
0700
0700
0700
0700
0700
7FF0
7FF0
0700
0700
0700
0700
0700
0700
0700
0700
ENDCHAR
STARTCHAR 0167
ENCODING 359
SWIDTH 600 0
DWIDTH 15 0
BBX 12 17 1 0
BITMAP
0C00
0C00
0C00
0C00
FFF0
FFF0
0C00
0C00
0C00
3FE0
3FE0
0C00
0C00
0C00
0C00
07F0
07F0
ENDCHAR
STARTCHAR 0168
ENCODING 360
SWIDTH 600 0
DWIDTH 15 0
BBX 11 22 2 0
BITMAP
3C80
7FC0
2780
0000
0000
C060
C060
C060
C060
C060
C060
C060
C060
C060
C060
C060
C060
C060
E0E0
60C0
7FC0
1F00
ENDCHAR
STARTCHAR 0169
ENCODING 361
SWIDTH 600 0
DWIDTH 15 0
BBX 11 18 2 0
BITMAP
3C80
7FC0
2780
0000
0000
C060
C060
C060
C060
C060
C060
C060
C060
C060
E0E0
6160
7F60
1E60
ENDCHAR
STARTCHAR 016A
ENCODING 362
SWIDTH 600 0
DWIDTH 15 0
BBX 11 22 2 0
BITMAP
3F80
3F80
0000
0000
0000
C060
C060
C060
C060
C060
C060
C060
C060
C060
C060
C060
C060
C060
E0E0
60C0
7FC0
1F00
ENDCHAR
STARTCHAR 016B
ENCODING 363
SWIDTH 600 0
DWIDTH 15 0
BBX 11 18 2 0
BITMAP
3F80
3F80
0000
0000
0000
C060
C060
C060
C060
C060
C060
C060
C060
C060
E0E0
6160
7F60
1E60
ENDCHAR
STARTCHAR 016C
ENCODING 364
SWIDTH 600 0
DWIDTH 15 0
BBX 11 24 2 0
BITMAP
2080
61C0
3180
1F00
0E00
0000
0000
C060
C060
C060
C060
C060
C060
C060
C060
C060
C060
C060
C060
C060
E0E0
60C0
7FC0
1F00
ENDCHAR
STARTCHAR 016D
ENCODING 365
SWIDTH 600 0
DWIDTH 15 0
BBX 11 20 2 0
BITMAP
2080
6180
3180
1F00
0E00
0000
0000
C060
C060
C060
C060
C060
C060
C060
C060
C060
E0E0
6160
7F60
1E60
ENDCHAR
STARTCHAR 016E
ENCODING 366
SWIDTH 600 0
DWIDTH 15 0
BBX 11 24 2 0
BITMAP
0E00
1100
1100
1100
1100
0E00
0000
C060
C060
C060
C060
C060
C060
C060
C060
C060
C060
C060
C060
C060
E0E0
60C0
7FC0
1F00
ENDCHAR
STARTCHAR 016F
ENCODING 367
SWIDTH 600 0
DWIDTH 15 0
BBX 11 20 2 0
BITMAP
0E00
1100
1100
1100
1100
0E00
0000
C060
C060
C060
C060
C060
C060
C060
C060
C060
E0E0
6160
7F60
1E60
ENDCHAR
STARTCHAR 0170
ENCODING 368
SWIDTH 600 0
DWIDTH 15 0
BBX 11 24 2 0
BITMAP
0880
0CC0
1980
1980
3300
0000
0000
C060
C060
C060
C060
C060
C060
C060
C060
C060
C060
C060
C060
C060
E0E0
60C0
7FC0
1F00
ENDCHAR
STARTCHAR 0171
ENCODING 369
SWIDTH 600 0
DWIDTH 15 0
BBX 11 20 2 0
BITMAP
0880
0CC0
1980
1980
3300
0000
0000
C060
C060
C060
C060
C060
C060
C060
C060
C060
E0E0
6160
7F60
1E60
ENDCHAR
STARTCHAR 0172
ENCODING 370
SWIDTH 600 0
DWIDTH 15 0
BBX 11 22 2 -5
BITMAP
C060
C060
C060
C060
C060
C060
C060
C060
C060
C060
C060
C060
C060
E0E0
60C0
7FC0
3F80
0200
0C00
0C00
0D00
0780
ENDCHAR
STARTCHAR 0173
ENCODING 371
SWIDTH 600 0
DWIDTH 15 0
BBX 11 18 2 -5
BITMAP
C060
C060
C060
C060
C060
C060
C060
C060
C060
E0E0
6160
7F60
1E60
01C0
0380
0300
0340
01E0
ENDCHAR
STARTCHAR 0174
ENCODING 372
SWIDTH 600 0
DWIDTH 15 0
BBX 13 23 1 0
BITMAP
0700
0D80
18C0
3060
0000
0000
C018
C018
C018
C018
C718
C718
C518
C518
4D90
4D90
6D90
68B0
68F0
78F0
78F0
78F0
7070
ENDCHAR
STARTCHAR 0175
ENCODING 373
SWIDTH 600 0
DWIDTH 15 0
BBX 13 19 1 0
BITMAP
0700
0D80
18C0
3060
0000
0000
C718
C718
C518
C518
CD98
4D90
4D90
68B0
68B0
78F0
78F0
78F0
3060
ENDCHAR
STARTCHAR 0176
ENCODING 374
SWIDTH 600 0
DWIDTH 15 0
BBX 15 23 0 0
BITMAP
0380
06C0
0C60
1830
0000
0000
E00E
701C
3018
1838
1830
0C60
0EE0
06C0
03C0
0380
0380
0380
0380
0380
0380
0380
0380
ENDCHAR
STARTCHAR 0177
ENCODING 375
SWIDTH 600 0
DWIDTH 15 0
BBX 13 24 1 -5
BITMAP
0700
0D80
18C0
3060
0000
0000
E038
6030
6030
3060
3060
18C0
18C0
18C0
0D80
0D80
0700
0700
0700
0600
0600
0C00
7C00
7800
ENDCHAR
STARTCHAR 0178
ENCODING 376
SWIDTH 600 0
DWIDTH 15 0
BBX 15 22 0 0
BITMAP
0C60
0EE0
0C60
0000
0000
E00E
701C
3018
1838
1830
0C60
0EE0
06C0
03C0
0380
0380
0380
0380
0380
0380
0380
0380
ENDCHAR
STARTCHAR 0179
ENCODING 377
SWIDTH 600 0
DWIDTH 15 0
BBX 13 24 1 0
BITMAP
0100
0180
0300
0300
0600
0000
0000
7FF0
7FF0
0030
0060
00E0
01C0
0180
0300
0600
0E00
0C00
1800
3000
7000
6000
FFF8
FFF8
ENDCHAR
STARTCHAR 017A
ENCODING 378
SWIDTH 600 0
DWIDTH 15 0
BBX 11 20 2 0
BITMAP
0200
0300
0600
0600
0C00
0000
0000
FFE0
FFE0
00C0
0180
0300
0700
0E00
1C00
3800
7000
E000
FFE0
FFE0
ENDCHAR
STARTCHAR 017B
ENCODING 379
SWIDTH 600 0
DWIDTH 15 0
BBX 13 22 1 0
BITMAP
0700
0700
0700
0000
0000
7FF0
7FF0
0030
0060
00E0
01C0
0180
0300
0600
0E00
0C00
1800
3000
7000
6000
FFF8
FFF8
ENDCHAR
STARTCHAR 017C
ENCODING 380
SWIDTH 600 0
DWIDTH 15 0
BBX 11 18 2 0
BITMAP
0E00
0E00
0E00
0000
0000
FFE0
FFE0
00C0
0180
0300
0700
0E00
1C00
3800
7000
E000
FFE0
FFE0
ENDCHAR
STARTCHAR 017D
ENCODING 381
SWIDTH 600 0
DWIDTH 15 0
BBX 13 23 1 0
BITMAP
1040
38E0
0D80
0700
0000
0000
7FF0
7FF0
0030
0060
00E0
01C0
0180
0300
0600
0E00
0C00
1800
3000
7000
6000
FFF8
FFF8
ENDCHAR
STARTCHAR 017E
ENCODING 382
SWIDTH 600 0
DWIDTH 15 0
BBX 11 19 2 0
BITMAP
2080
71C0
1B00
0E00
0000
0000
FFE0
FFE0
00C0
0180
0300
0700
0E00
1C00
3800
7000
E000
FFE0
FFE0
ENDCHAR
STARTCHAR 018F
ENCODING 399
SWIDTH 600 0
DWIDTH 15 0
BBX 13 17 1 0
BITMAP
0F80
3FE0
70E0
6070
6030
0030
0030
0038
FFF8
FFF8
E030
6030
6030
6030
3060
3FE0
0F80
ENDCHAR
STARTCHAR 0192
ENCODING 402
SWIDTH 600 0
DWIDTH 15 0
BBX 16 22 -1 -5
BITMAP
003F
007F
00E0
00C0
00C0
00C0
1FFC
1FFC
01C0
0180
0180
0180
0180
0180
0300
0300
0300
0300
0300
0300
FE00
FC00
ENDCHAR
STARTCHAR 01A0
ENCODING 416
SWIDTH 600 0
DWIDTH 15 0
BBX 13 20 1 0
BITMAP
0018
0018
0018
0FF8
3FF0
38E0
6030
6030
6030
E030
E038
E038
E038
E038
6030
6030
6030
38E0
3FE0
0F80
ENDCHAR
STARTCHAR 01A1
ENCODING 417
SWIDTH 600 0
DWIDTH 15 0
BBX 12 16 2 0
BITMAP
0030
0030
0030
1FE0
7FE0
60C0
C060
C060
C060
C060
C060
C060
C060
60C0
7FC0
1F00
ENDCHAR
STARTCHAR 01AF
ENCODING 431
SWIDTH 600 0
DWIDTH 15 0
BBX 13 20 2 0
BITMAP
0018
0018
0018
C078
C060
C060
C060
C060
C060
C060
C060
C060
C060
C060
C060
C060
E0E0
60C0
7FC0
1F00
ENDCHAR
STARTCHAR 01B0
ENCODING 432
SWIDTH 600 0
DWIDTH 15 0
BBX 13 16 2 0
BITMAP
0018
0018
0018
C070
C060
C060
C060
C060
C060
C060
C060
C060
E0E0
6160
7F60
1E60
ENDCHAR
STARTCHAR 01FA
ENCODING 506
SWIDTH 600 0
DWIDTH 15 0
BBX 13 28 1 0
BITMAP
0180
0300
0200
0000
0700
0880
0880
0880
0880
0700
0000
0700
0700
0D80
0D80
0D80
18C0
18C0
18C0
3060
3060
3FE0
7FF0
6030
6030
6030
C018
C018
ENDCHAR
STARTCHAR 01FB
ENCODING 507
SWIDTH 600 0
DWIDTH 15 0
BBX 12 25 2 0
BITMAP
0400
0300
0600
0C00
0000
1E00
1300
3100
3100
1300
1E00
0000
1F00
7F80
E1C0
40C0
00C0
00C0
3FC0
FFC0
C0C0
C0C0
C1C0
FEF0
3C70
ENDCHAR
STARTCHAR 01FC
ENCODING 508
SWIDTH 600 0
DWIDTH 15 0
BBX 14 24 0 0
BITMAP
0010
0038
0030
0060
0040
0000
0000
07FC
07FC
06C0
06C0
0CC0
0CC0
0CC0
18FC
18FC
18C0
3FC0
3FC0
30C0
30C0
60C0
60FC
E0FC
ENDCHAR
STARTCHAR 01FD
ENCODING 509
SWIDTH 600 0
DWIDTH 15 0
BBX 15 20 0 0
BITMAP
0080
00C0
0180
0180
0300
0000
0000
1C78
3EFC
638C
4304
0304
03FE
3FFE
7F00
E300
C304
C38C
7CF8
3870
ENDCHAR
STARTCHAR 01FE
ENCODING 510
SWIDTH 600 0
DWIDTH 15 0
BBX 13 25 1 -1
BITMAP
0100
0180
0300
0300
0600
0000
0010
0F98
3FF0
38E0
6070
60F0
60B0
E1B0
E338
E238
E638
EC30
6830
7830
7030
38E0
7FE0
CF80
4000
ENDCHAR
STARTCHAR 01FF
ENCODING 511
SWIDTH 600 0
DWIDTH 15 0
BBX 13 21 1 -1
BITMAP
0100
0180
0300
0300
0600
0000
0010
0F98
3FF0
3060
60F0
61B0
6330
6230
6630
6C30
7830
3060
7FE0
4F80
C000
ENDCHAR
STARTCHAR 0218
ENCODING 536
SWIDTH 600 0
DWIDTH 15 0
BBX 13 24 1 -7
BITMAP
0F80
3FE0
7070
6030
6000
6000
7000
3F00
1FE0
01F0
0030
0038
4038
E030
7070
3FE0
1F80
0000
0000
0700
0600
0600
0400
0C00
ENDCHAR
STARTCHAR 0219
ENCODING 537
SWIDTH 600 0
DWIDTH 15 0
BBX 11 20 2 -7
BITMAP
1F00
7FC0
60E0
C000
E000
7E00
3FC0
03E0
0060
8060
E0E0
7FC0
1F80
0000
0000
0E00
0C00
0C00
0800
1800
ENDCHAR
STARTCHAR 021A
ENCODING 538
SWIDTH 600 0
DWIDTH 15 0
BBX 13 24 1 -7
BITMAP
FFF8
FFF8
0700
0700
0700
0700
0700
0700
0700
0700
0700
0700
0700
0700
0700
0700
0700
0000
0000
0700
0600
0600
0600
0C00
ENDCHAR
STARTCHAR 021B
ENCODING 539
SWIDTH 600 0
DWIDTH 15 0
BBX 12 24 1 -7
BITMAP
0C00
0C00
0C00
0C00
FFF0
FFF0
0C00
0C00
0C00
0C00
0C00
0C00
0C00
0C00
0C00
07F0
07F0
0000
0000
01C0
0180
0180
0100
0300
ENDCHAR
STARTCHAR 0237
ENCODING 567
SWIDTH 600 0
DWIDTH 15 0
BBX 9 18 2 -5
BITMAP
FF80
FF80
0180
0180
0180
0180
0180
0180
0180
0180
0180
0180
0180
0180
0180
0180
7F80
7F00
ENDCHAR
STARTCHAR 0259
ENCODING 601
SWIDTH 600 0
DWIDTH 15 0
BBX 11 13 2 0
BITMAP
1F00
7F80
E1C0
4060
0060
0060
FFE0
FFE0
C060
C060
60C0
7F80
1F00
ENDCHAR
STARTCHAR 02BB
ENCODING 699
SWIDTH 600 0
DWIDTH 15 0
BBX 4 5 6 15
BITMAP
30
60
60
60
E0
ENDCHAR
STARTCHAR 02BC
ENCODING 700
SWIDTH 600 0
DWIDTH 15 0
BBX 3 5 5 14
BITMAP
E0
C0
C0
C0
80
ENDCHAR
STARTCHAR 02C6
ENCODING 710
SWIDTH 600 0
DWIDTH 15 0
BBX 9 4 3 15
BITMAP
1C00
3600
6300
C180
ENDCHAR
STARTCHAR 02C7
ENCODING 711
SWIDTH 600 0
DWIDTH 15 0
BBX 9 4 3 15
BITMAP
4100
E380
3600
1C00
ENDCHAR
STARTCHAR 02D8
ENCODING 728
SWIDTH 600 0
DWIDTH 15 0
BBX 9 5 3 15
BITMAP
4100
C380
6300
3E00
1C00
ENDCHAR
STARTCHAR 02D9
ENCODING 729
SWIDTH 600 0
DWIDTH 15 0
BBX 3 3 6 15
BITMAP
E0
E0
E0
ENDCHAR
STARTCHAR 02DA
ENCODING 730
SWIDTH 600 0
DWIDTH 15 0
BBX 5 6 5 14
BITMAP
70
88
88
88
88
70
ENDCHAR
STARTCHAR 02DB
ENCODING 731
SWIDTH 600 0
DWIDTH 15 0
BBX 5 5 3 -5
BITMAP
38
60
C0
D0
F8
ENDCHAR
STARTCHAR 02DC
ENCODING 732
SWIDTH 600 0
DWIDTH 15 0
BBX 9 3 3 15
BITMAP
7900
FF80
4F00
ENDCHAR
STARTCHAR 02DD
ENCODING 733
SWIDTH 600 0
DWIDTH 15 0
BBX 8 5 4 15
BITMAP
22
33
66
66
CC
ENDCHAR
STARTCHAR 0300
ENCODING 768
SWIDTH 0 0
DWIDTH 0 0
BBX 4 5 -3 15
BITMAP
40
E0
60
30
10
ENDCHAR
STARTCHAR 0301
ENCODING 769
SWIDTH 0 0
DWIDTH 0 0
BBX 4 5 -1 15
BITMAP
20
70
60
C0
C0
ENDCHAR
STARTCHAR 0302
ENCODING 770
SWIDTH 0 0
DWIDTH 0 0
BBX 8 4 -4 15
BITMAP
3C
7E
66
C3
ENDCHAR
STARTCHAR 0303
ENCODING 771
SWIDTH 0 0
DWIDTH 0 0
BBX 8 3 -4 15
BITMAP
71
FF
8E
ENDCHAR
STARTCHAR 0304
ENCODING 772
SWIDTH 0 0
DWIDTH 0 0
BBX 7 2 -3 16
BITMAP
FE
FE
ENDCHAR
STARTCHAR 0306
ENCODING 774
SWIDTH 0 0
DWIDTH 0 0
BBX 8 5 -4 15
BITMAP
82
C3
66
7E
3C
ENDCHAR
STARTCHAR 0307
ENCODING 775
SWIDTH 0 0
DWIDTH 0 0
BBX 4 3 -2 15
BITMAP
60
F0
60
ENDCHAR
STARTCHAR 0308
ENCODING 776
SWIDTH 0 0
DWIDTH 0 0
BBX 8 3 -4 15
BITMAP
67
E7
67
ENDCHAR
STARTCHAR 0309
ENCODING 777
SWIDTH 0 0
DWIDTH 0 0
BBX 4 5 -2 14
BITMAP
F0
F0
10
30
60
ENDCHAR
STARTCHAR 030A
ENCODING 778
SWIDTH 0 0
DWIDTH 0 0
BBX 6 6 -3 14
BITMAP
78
CC
CC
CC
CC
78
ENDCHAR
STARTCHAR 030B
ENCODING 779
SWIDTH 0 0
DWIDTH 0 0
BBX 8 5 -3 15
BITMAP
22
77
66
CC
CC
ENDCHAR
STARTCHAR 030C
ENCODING 780
SWIDTH 0 0
DWIDTH 0 0
BBX 8 4 -4 15
BITMAP
C3
66
7E
3C
ENDCHAR
STARTCHAR 0312
ENCODING 786
SWIDTH 0 0
DWIDTH 0 0
BBX 3 5 -1 15
BITMAP
60
60
60
E0
C0
ENDCHAR
STARTCHAR 0315
ENCODING 789
SWIDTH 0 0
DWIDTH 0 0
BBX 3 5 0 14
BITMAP
E0
C0
C0
C0
C0
ENDCHAR
STARTCHAR 031B
ENCODING 795
SWIDTH 0 0
DWIDTH 0 0
BBX 4 4 -2 12
BITMAP
30
30
30
F0
ENDCHAR
STARTCHAR 0323
ENCODING 803
SWIDTH 0 0
DWIDTH 0 0
BBX 2 3 -1 -5
BITMAP
C0
C0
C0
ENDCHAR
STARTCHAR 0326
ENCODING 806
SWIDTH 0 0
DWIDTH 0 0
BBX 3 5 -2 -7
BITMAP
60
E0
C0
C0
C0
ENDCHAR
STARTCHAR 0327
ENCODING 807
SWIDTH 0 0
DWIDTH 0 0
BBX 5 6 -2 -5
BITMAP
60
40
78
18
D8
20
ENDCHAR
STARTCHAR 0328
ENCODING 808
SWIDTH 0 0
DWIDTH 0 0
BBX 6 5 -5 -5
BITMAP
18
60
40
C8
7C
ENDCHAR
STARTCHAR 03C0
ENCODING 960
SWIDTH 600 0
DWIDTH 15 0
BBX 14 13 0 0
BITMAP
FFFC
FFFC
1830
1830
1830
1830
1830
1830
1830
1830
1830
183C
181C
ENDCHAR
STARTCHAR 0400
ENCODING 1024
SWIDTH 600 0
DWIDTH 15 0
BBX 11 24 2 0
BITMAP
0800
1800
0C00
0C00
0600
0000
0000
FFE0
FFE0
C000
C000
C000
C000
C000
FFE0
FFE0
C000
C000
C000
C000
C000
C000
FFE0
FFE0
ENDCHAR
STARTCHAR 0401
ENCODING 1025
SWIDTH 600 0
DWIDTH 15 0
BBX 11 22 2 0
BITMAP
3180
3980
3180
0000
0000
FFE0
FFE0
C000
C000
C000
C000
C000
FFE0
FFE0
C000
C000
C000
C000
C000
C000
FFE0
FFE0
ENDCHAR
STARTCHAR 0402
ENCODING 1026
SWIDTH 600 0
DWIDTH 15 0
BBX 14 21 0 -4
BITMAP
FFC0
FFC0
0C00
0C00
0C00
0C00
0DF0
0FF8
0C18
0C1C
0C0C
0C0C
0C0C
0C0C
0C0C
0C0C
0C0C
000C
000C
03FC
03F8
ENDCHAR
STARTCHAR 0403
ENCODING 1027
SWIDTH 600 0
DWIDTH 15 0
BBX 10 24 3 0
BITMAP
0200
0700
0600
0C00
0C00
0000
0000
FFC0
FFC0
C000
C000
C000
C000
C000
C000
C000
C000
C000
C000
C000
C000
C000
C000
C000
ENDCHAR
STARTCHAR 0404
ENCODING 1028
SWIDTH 600 0
DWIDTH 15 0
BBX 12 17 2 0
BITMAP
1F80
3FC0
70E0
6060
C050
C000
C000
FF00
FF00
C000
C000
C000
C040
6070
70E0
3FC0
1F80
ENDCHAR
STARTCHAR 0405
ENCODING 1029
SWIDTH 600 0
DWIDTH 15 0
BBX 13 17 1 0
BITMAP
0F80
3FE0
7070
6030
6000
6000
7000
3F00
1FE0
01F0
0030
0038
4038
E030
7070
3FE0
1F80
ENDCHAR
STARTCHAR 0406
ENCODING 1030
SWIDTH 600 0
DWIDTH 15 0
BBX 11 17 2 0
BITMAP
FFE0
FFE0
0E00
0E00
0E00
0E00
0E00
0E00
0E00
0E00
0E00
0E00
0E00
0E00
0E00
FFE0
FFE0
ENDCHAR
STARTCHAR 0407
ENCODING 1031
SWIDTH 600 0
DWIDTH 15 0
BBX 11 22 2 0
BITMAP
3180
3B80
3180
0000
0000
FFE0
FFE0
0E00
0E00
0E00
0E00
0E00
0E00
0E00
0E00
0E00
0E00
0E00
0E00
0E00
FFE0
FFE0
ENDCHAR
STARTCHAR 0408
ENCODING 1032
SWIDTH 600 0
DWIDTH 15 0
BBX 10 17 2 0
BITMAP
3FC0
3FC0
00C0
00C0
00C0
00C0
00C0
00C0
00C0
00C0
00C0
00C0
40C0
C0C0
E1C0
7F80
3E00
ENDCHAR
STARTCHAR 0409
ENCODING 1033
SWIDTH 600 0
DWIDTH 15 0
BBX 15 17 0 0
BITMAP
1FC0
1FC0
18C0
18C0
18C0
18C0
18C0
18F8
18FC
18CC
18C6
18C6
30C6
30C6
30CC
E0FC
C0F8
ENDCHAR
STARTCHAR 040A
ENCODING 1034
SWIDTH 600 0
DWIDTH 15 0
BBX 14 17 1 0
BITMAP
C300
C300
C300
C300
C300
C300
C300
FFF0
FFF8
C318
C30C
C30C
C30C
C30C
C318
C3F8
C3F0
ENDCHAR
STARTCHAR 040B
ENCODING 1035
SWIDTH 600 0
DWIDTH 15 0
BBX 14 17 0 0
BITMAP
FFC0
FFC0
0C00
0C00
0C00
0C00
0DF0
0FF8
0C18
0C1C
0C0C
0C0C
0C0C
0C0C
0C0C
0C0C
0C0C
ENDCHAR
STARTCHAR 040C
ENCODING 1036
SWIDTH 600 0
DWIDTH 15 0
BBX 12 24 2 0
BITMAP
0200
0700
0600
0C00
0C00
0000
0000
C060
C0C0
C0C0
C180
C380
C300
C700
FE00
FE00
C700
C300
C380
C180
C180
C0C0
C0F0
C070
ENDCHAR
STARTCHAR 040D
ENCODING 1037
SWIDTH 600 0
DWIDTH 15 0
BBX 11 24 2 0
BITMAP
0800
1800
0C00
0C00
0600
0000
0000
C060
C0E0
C0E0
C1E0
C1E0
C360
C360
C660
CE60
CC60
D860
D860
F060
F060
E060
E060
C060
ENDCHAR
STARTCHAR 040E
ENCODING 1038
SWIDTH 600 0
DWIDTH 15 0
BBX 13 24 1 0
BITMAP
1040
38E0
18C0
0F80
0700
0000
0000
E018
6030
6030
3030
3060
1860
18E0
1CC0
0CC0
0D80
0780
0780
0300
0300
0600
3E00
3C00
ENDCHAR
STARTCHAR 040F
ENCODING 1039
SWIDTH 600 0
DWIDTH 15 0
BBX 11 21 2 -4
BITMAP
C060
C060
C060
C060
C060
C060
C060
C060
C060
C060
C060
C060
C060
C060
C060
FFE0
FFE0
0400
0400
0400
0400
ENDCHAR
STARTCHAR 0410
ENCODING 1040
SWIDTH 600 0
DWIDTH 15 0
BBX 13 17 1 0
BITMAP
0700
0700
0D80
0D80
0D80
18C0
18C0
18C0
3060
3060
3FE0
7FF0
6030
6030
6030
C018
C018
ENDCHAR
STARTCHAR 0411
ENCODING 1041
SWIDTH 600 0
DWIDTH 15 0
BBX 11 17 2 0
BITMAP
FFC0
FFC0
C000
C000
C000
C000
C000
FF80
FFC0
C0E0
C060
C060
C060
C060
C0E0
FFC0
FF80
ENDCHAR
STARTCHAR 0412
ENCODING 1042
SWIDTH 600 0
DWIDTH 15 0
BBX 12 17 2 0
BITMAP
FF80
FFC0
C0E0
C060
C060
C060
C0C0
FF80
FFC0
C0E0
C060
C070
C070
C060
C0E0
FFC0
FF80
ENDCHAR
STARTCHAR 0413
ENCODING 1043
SWIDTH 600 0
DWIDTH 15 0
BBX 10 17 3 0
BITMAP
FFC0
FFC0
C000
C000
C000
C000
C000
C000
C000
C000
C000
C000
C000
C000
C000
C000
C000
ENDCHAR
STARTCHAR 0414
ENCODING 1044
SWIDTH 600 0
DWIDTH 15 0
BBX 14 21 0 -4
BITMAP
0FF0
0FF0
0C30
0C30
0C30
0C30
0C30
0C30
0C30
0C30
0C30
1C30
1830
1830
3830
FFFC
FFFC
C00C
C00C
C00C
C00C
ENDCHAR
STARTCHAR 0415
ENCODING 1045
SWIDTH 600 0
DWIDTH 15 0
BBX 11 17 2 0
BITMAP
FFE0
FFE0
C000
C000
C000
C000
C000
FFE0
FFE0
C000
C000
C000
C000
C000
C000
FFE0
FFE0
ENDCHAR
STARTCHAR 0416
ENCODING 1046
SWIDTH 600 0
DWIDTH 15 0
BBX 15 17 0 0
BITMAP
E38E
638C
638C
3398
3398
3398
3BB0
1FF0
1FF0
3BB8
3398
3398
739C
638C
638C
638C
C386
ENDCHAR
STARTCHAR 0417
ENCODING 1047
SWIDTH 600 0
DWIDTH 15 0
BBX 12 17 1 0
BITMAP
1F80
3FE0
70E0
6070
0070
0060
00E0
0FC0
0FC0
0060
0030
0030
4030
C070
70E0
3FE0
1F80
ENDCHAR
STARTCHAR 0418
ENCODING 1048
SWIDTH 600 0
DWIDTH 15 0
BBX 11 17 2 0
BITMAP
C060
C0E0
C0E0
C1E0
C1E0
C360
C360
C660
CE60
CC60
D860
D860
F060
F060
E060
E060
C060
ENDCHAR
STARTCHAR 0419
ENCODING 1049
SWIDTH 600 0
DWIDTH 15 0
BBX 11 24 2 0
BITMAP
2080
71C0
3180
1F00
0E00
0000
0000
C060
C0E0
C0E0
C1E0
C1E0
C360
C360
C660
CE60
CC60
D860
D860
F060
F060
E060
E060
C060
ENDCHAR
STARTCHAR 041A
ENCODING 1050
SWIDTH 600 0
DWIDTH 15 0
BBX 12 17 2 0
BITMAP
C060
C0C0
C0C0
C180
C380
C300
C700
FE00
FE00
C700
C300
C380
C180
C180
C0C0
C0F0
C070
ENDCHAR
STARTCHAR 041B
ENCODING 1051
SWIDTH 600 0
DWIDTH 15 0
BBX 13 17 0 0
BITMAP
0FF8
0FF8
0C18
0C18
0C18
0C18
0C18
0C18
0C18
0C18
0C18
1C18
1818
1818
3818
F018
E018
ENDCHAR
STARTCHAR 041C
ENCODING 1052
SWIDTH 600 0
DWIDTH 15 0
BBX 11 17 2 0
BITMAP
E0E0
E0E0
E0E0
F1E0
F1E0
DB60
DB60
CA60
CE60
CE60
C460
C460
C060
C060
C060
C060
C060
ENDCHAR
STARTCHAR 041D
ENCODING 1053
SWIDTH 600 0
DWIDTH 15 0
BBX 11 17 2 0
BITMAP
C060
C060
C060
C060
C060
C060
C060
FFE0
FFE0
C060
C060
C060
C060
C060
C060
C060
C060
ENDCHAR
STARTCHAR 041E
ENCODING 1054
SWIDTH 600 0
DWIDTH 15 0
BBX 13 17 1 0
BITMAP
0F80
3FE0
38E0
6030
6030
6030
E030
E038
E038
E038
E038
6030
6030
6030
38E0
3FE0
0F80
ENDCHAR
STARTCHAR 041F
ENCODING 1055
SWIDTH 600 0
DWIDTH 15 0
BBX 11 17 2 0
BITMAP
FFE0
FFE0
C060
C060
C060
C060
C060
C060
C060
C060
C060
C060
C060
C060
C060
C060
C060
ENDCHAR
STARTCHAR 0420
ENCODING 1056
SWIDTH 600 0
DWIDTH 15 0
BBX 12 17 2 0
BITMAP
FF80
FFC0
C0E0
C060
C070
C070
C060
C0E0
FFC0
FF80
C000
C000
C000
C000
C000
C000
C000
ENDCHAR
STARTCHAR 0421
ENCODING 1057
SWIDTH 600 0
DWIDTH 15 0
BBX 11 17 2 0
BITMAP
1F00
3FC0
70E0
6060
C040
C000
C000
C000
C000
C000
C000
C000
C040
6060
70E0
3FC0
1F00
ENDCHAR
STARTCHAR 0422
ENCODING 1058
SWIDTH 600 0
DWIDTH 15 0
BBX 13 17 1 0
BITMAP
FFF8
FFF8
0700
0700
0700
0700
0700
0700
0700
0700
0700
0700
0700
0700
0700
0700
0700
ENDCHAR
STARTCHAR 0423
ENCODING 1059
SWIDTH 600 0
DWIDTH 15 0
BBX 13 17 1 0
BITMAP
E018
6030
6030
3030
3060
1860
18E0
1CC0
0CC0
0D80
0780
0780
0300
0300
0600
3E00
3C00
ENDCHAR
STARTCHAR 0424
ENCODING 1060
SWIDTH 600 0
DWIDTH 15 0
BBX 13 18 1 0
BITMAP
0700
0700
1FC0
3FE0
7770
E738
C718
C718
C718
C718
C718
C718
E738
7770
3FE0
1FC0
0700
0700
ENDCHAR
STARTCHAR 0425
ENCODING 1061
SWIDTH 600 0
DWIDTH 15 0
BBX 13 17 1 0
BITMAP
E018
6030
3070
3860
18C0
0DC0
0D80
0700
0700
0780
0D80
1CC0
18E0
3060
7070
6030
C018
ENDCHAR
STARTCHAR 0426
ENCODING 1062
SWIDTH 600 0
DWIDTH 15 0
BBX 12 21 2 -4
BITMAP
C0C0
C0C0
C0C0
C0C0
C0C0
C0C0
C0C0
C0C0
C0C0
C0C0
C0C0
C0C0
C0C0
C0C0
C0C0
FFF0
FFF0
0030
0030
0030
0030
ENDCHAR
STARTCHAR 0427
ENCODING 1063
SWIDTH 600 0
DWIDTH 15 0
BBX 12 17 1 0
BITMAP
E030
E030
E030
E030
E030
6030
6030
6030
7070
3FF0
1FB0
0030
0030
0030
0030
0030
0030
ENDCHAR
STARTCHAR 0428
ENCODING 1064
SWIDTH 600 0
DWIDTH 15 0
BBX 13 17 1 0
BITMAP
C718
C718
C718
C718
C718
C718
C718
C718
C718
C718
C718
C718
C718
C718
C718
FFF8
FFF8
ENDCHAR
STARTCHAR 0429
ENCODING 1065
SWIDTH 600 0
DWIDTH 15 0
BBX 14 21 1 -4
BITMAP
C630
C630
C630
C630
C630
C630
C630
C630
C630
C630
C630
C630
C630
C630
C630
FFFC
FFFC
000C
000C
000C
000C
ENDCHAR
STARTCHAR 042A
ENCODING 1066
SWIDTH 600 0
DWIDTH 15 0
BBX 15 17 0 0
BITMAP
FC00
FC00
0C00
0C00
0C00
0C00
0C00
0FF0
0FF8
0C1C
0C0C
0C0C
0C0E
0C0C
0C1C
0FF8
0FF0
ENDCHAR
STARTCHAR 042B
ENCODING 1067
SWIDTH 600 0
DWIDTH 15 0
BBX 13 17 1 0
BITMAP
C018
C018
C018
C018
C018
C018
C018
FC18
FF18
C318
C198
C198
C198
C198
C318
FF18
FC18
ENDCHAR
STARTCHAR 042C
ENCODING 1068
SWIDTH 600 0
DWIDTH 15 0
BBX 12 17 2 0
BITMAP
C000
C000
C000
C000
C000
C000
C000
FF80
FFC0
C0E0
C060
C070
C070
C060
C0E0
FFC0
FF80
ENDCHAR
STARTCHAR 042D
ENCODING 1069
SWIDTH 600 0
DWIDTH 15 0
BBX 12 17 1 0
BITMAP
0F80
3FC0
70E0
6060
C030
0030
0030
0FF0
0FF0
0030
0030
0030
4030
E060
70E0
3FC0
0F80
ENDCHAR
STARTCHAR 042E
ENCODING 1070
SWIDTH 600 0
DWIDTH 15 0
BBX 13 17 1 0
BITMAP
C3E0
C7F0
C630
CE38
CC18
CC18
CC18
FC18
FC18
CC18
CC18
CC18
CC18
C638
C630
C7F0
C3E0
ENDCHAR
STARTCHAR 042F
ENCODING 1071
SWIDTH 600 0
DWIDTH 15 0
BBX 12 17 1 0
BITMAP
1FF0
3FF0
7030
6030
6030
6030
6030
7030
3FF0
07F0
0C30
1C30
1830
3830
3030
F030
E030
ENDCHAR
STARTCHAR 0430
ENCODING 1072
SWIDTH 600 0
DWIDTH 15 0
BBX 12 13 2 0
BITMAP
1F00
7F80
E1C0
40C0
00C0
00C0
3FC0
FFC0
C0C0
C0C0
C1C0
FEF0
3C70
ENDCHAR
STARTCHAR 0431
ENCODING 1073
SWIDTH 600 0
DWIDTH 15 0
BBX 11 19 2 0
BITMAP
07C0
1FC0
3800
6000
6000
C000
CF00
DFC0
E0C0
C060
C060
C060
C060
C060
C060
C060
60C0
3F80
1F00
ENDCHAR
STARTCHAR 0432
ENCODING 1074
SWIDTH 600 0
DWIDTH 15 0
BBX 10 13 3 0
BITMAP
FF00
FF80
C1C0
C1C0
C180
FF00
FF80
C1C0
C0C0
C0C0
C1C0
FF80
FF00
ENDCHAR
STARTCHAR 0433
ENCODING 1075
SWIDTH 600 0
DWIDTH 15 0
BBX 10 13 3 0
BITMAP
FFC0
FFC0
C000
C000
C000
C000
C000
C000
C000
C000
C000
C000
C000
ENDCHAR
STARTCHAR 0434
ENCODING 1076
SWIDTH 600 0
DWIDTH 15 0
BBX 13 17 1 -4
BITMAP
1FE0
1FE0
1860
1860
1860
1860
1860
3060
3060
3060
6060
FFF8
FFF8
8018
8018
8018
8018
ENDCHAR
STARTCHAR 0435
ENCODING 1077
SWIDTH 600 0
DWIDTH 15 0
BBX 11 13 2 0
BITMAP
1F00
3FC0
60C0
C060
C060
FFE0
FFE0
C000
C000
C040
70E0
3FC0
1F00
ENDCHAR
STARTCHAR 0436
ENCODING 1078
SWIDTH 600 0
DWIDTH 15 0
BBX 13 13 1 0
BITMAP
C218
C218
6230
6230
6230
3FE0
3FE0
6230
6230
6230
C218
C218
C218
ENDCHAR
STARTCHAR 0437
ENCODING 1079
SWIDTH 600 0
DWIDTH 15 0
BBX 11 13 2 0
BITMAP
3F00
7FC0
E0C0
80C0
00C0
3F80
3F80
00C0
00C0
80E0
E0C0
7FC0
3F00
ENDCHAR
STARTCHAR 0438
ENCODING 1080
SWIDTH 600 0
DWIDTH 15 0
BBX 11 13 2 0
BITMAP
C0E0
C0E0
C1E0
C360
C360
C660
C460
CC60
D860
D860
F060
E060
E060
ENDCHAR
STARTCHAR 0439
ENCODING 1081
SWIDTH 600 0
DWIDTH 15 0
BBX 11 20 2 0
BITMAP
2080
71C0
3180
1F00
0E00
0000
0000
C0E0
C0E0
C1E0
C360
C360
C660
C460
CC60
D860
D860
F060
E060
E060
ENDCHAR
STARTCHAR 043A
ENCODING 1082
SWIDTH 600 0
DWIDTH 15 0
BBX 10 13 3 0
BITMAP
C0C0
C180
C300
C700
C600
FC00
FC00
C600
C700
C300
C380
C1C0
C0C0
ENDCHAR
STARTCHAR 043B
ENCODING 1083
SWIDTH 600 0
DWIDTH 15 0
BBX 11 13 1 0
BITMAP
1FE0
1FE0
1860
1860
1860
1860
1860
1860
3060
3060
3060
E060
C060
ENDCHAR
STARTCHAR 043C
ENCODING 1084
SWIDTH 600 0
DWIDTH 15 0
BBX 11 13 2 0
BITMAP
E0E0
E0E0
F0E0
F1E0
D960
DB60
CA60
CE60
CE60
C460
C460
C060
C060
ENDCHAR
STARTCHAR 043D
ENCODING 1085
SWIDTH 600 0
DWIDTH 15 0
BBX 11 13 2 0
BITMAP
C060
C060
C060
C060
C060
FFE0
FFE0
C060
C060
C060
C060
C060
C060
ENDCHAR
STARTCHAR 043E
ENCODING 1086
SWIDTH 600 0
DWIDTH 15 0
BBX 11 13 2 0
BITMAP
1F00
7FC0
60C0
C060
C060
C060
C060
C060
C060
C060
60C0
7FC0
1F00
ENDCHAR
STARTCHAR 043F
ENCODING 1087
SWIDTH 600 0
DWIDTH 15 0
BBX 11 13 2 0
BITMAP
FFE0
FFE0
C060
C060
C060
C060
C060
C060
C060
C060
C060
C060
C060
ENDCHAR
STARTCHAR 0440
ENCODING 1088
SWIDTH 600 0
DWIDTH 15 0
BBX 12 18 2 -5
BITMAP
CF80
DFC0
F0E0
E060
C060
C060
C070
C060
C060
E060
F0E0
DFC0
CF80
C000
C000
C000
C000
C000
ENDCHAR
STARTCHAR 0441
ENCODING 1089
SWIDTH 600 0
DWIDTH 15 0
BBX 11 13 2 0
BITMAP
1F00
3FC0
70C0
6060
C000
C000
C000
C000
C000
6060
70C0
3FC0
1F00
ENDCHAR
STARTCHAR 0442
ENCODING 1090
SWIDTH 600 0
DWIDTH 15 0
BBX 11 13 2 0
BITMAP
FFE0
FFE0
0E00
0E00
0E00
0E00
0E00
0E00
0E00
0E00
0E00
0E00
0E00
ENDCHAR
STARTCHAR 0443
ENCODING 1091
SWIDTH 600 0
DWIDTH 15 0
BBX 13 18 1 -5
BITMAP
E038
6030
6030
3060
3060
18C0
18C0
18C0
0D80
0D80
0700
0700
0700
0600
0600
0C00
7C00
7800
ENDCHAR
STARTCHAR 0444
ENCODING 1092
SWIDTH 600 0
DWIDTH 15 0
BBX 13 22 1 -5
BITMAP
0200
0200
0200
0200
3AE0
7AF0
E738
C218
C218
C218
C218
C218
C218
C218
E738
7AF0
3AE0
0200
0200
0200
0200
0200
ENDCHAR
STARTCHAR 0445
ENCODING 1093
SWIDTH 600 0
DWIDTH 15 0
BBX 12 13 2 0
BITMAP
C060
60C0
71C0
3980
1B00
0E00
0E00
0E00
1B00
3180
71C0
60C0
C070
ENDCHAR
STARTCHAR 0446
ENCODING 1094
SWIDTH 600 0
DWIDTH 15 0
BBX 12 17 2 -4
BITMAP
C0C0
C0C0
C0C0
C0C0
C0C0
C0C0
C0C0
C0C0
C0C0
C0C0
C0C0
FFF0
FFF0
0030
0030
0030
0030
ENDCHAR
STARTCHAR 0447
ENCODING 1095
SWIDTH 600 0
DWIDTH 15 0
BBX 10 13 2 0
BITMAP
C0C0
C0C0
C0C0
C0C0
C0C0
C0C0
E1C0
7FC0
3EC0
00C0
00C0
00C0
00C0
ENDCHAR
STARTCHAR 0448
ENCODING 1096
SWIDTH 600 0
DWIDTH 15 0
BBX 13 13 1 0
BITMAP
C218
C218
C218
C218
C218
C218
C218
C218
C218
C218
C218
FFF8
FFF8
ENDCHAR
STARTCHAR 0449
ENCODING 1097
SWIDTH 600 0
DWIDTH 15 0
BBX 14 17 1 -4
BITMAP
C218
C218
C218
C218
C218
C218
C218
C218
C218
C218
C218
FFFC
FFFC
000C
000C
000C
000C
ENDCHAR
STARTCHAR 044A
ENCODING 1098
SWIDTH 600 0
DWIDTH 15 0
BBX 14 13 0 0
BITMAP
FC00
FC00
0C00
0C00
0FF0
0FF8
0C1C
0C0C
0C0C
0C0C
0C1C
0FF8
0FF0
ENDCHAR
STARTCHAR 044B
ENCODING 1099
SWIDTH 600 0
DWIDTH 15 0
BBX 13 13 1 0
BITMAP
C018
C018
C018
C018
FE18
FF18
C318
C198
C198
C198
C318
FF18
FE18
ENDCHAR
STARTCHAR 044C
ENCODING 1100
SWIDTH 600 0
DWIDTH 15 0
BBX 10 13 3 0
BITMAP
C000
C000
C000
C000
FF00
FF80
C1C0
C0C0
C0C0
C0C0
C1C0
FF80
FF00
ENDCHAR
STARTCHAR 044D
ENCODING 1101
SWIDTH 600 0
DWIDTH 15 0
BBX 11 13 2 0
BITMAP
1F00
7F80
E1C0
C0C0
0060
1FE0
1FE0
0060
0060
C0C0
E1C0
7F80
1F00
ENDCHAR
STARTCHAR 044E
ENCODING 1102
SWIDTH 600 0
DWIDTH 15 0
BBX 13 13 1 0
BITMAP
C3E0
C7F0
C630
C618
C618
FE18
FE18
C618
C618
C618
C630
C3F0
C3E0
ENDCHAR
STARTCHAR 044F
ENCODING 1103
SWIDTH 600 0
DWIDTH 15 0
BBX 10 13 2 0
BITMAP
3FC0
7FC0
E0C0
C0C0
C0C0
E0C0
7FC0
1FC0
18C0
30C0
70C0
E0C0
C0C0
ENDCHAR
STARTCHAR 0450
ENCODING 1104
SWIDTH 600 0
DWIDTH 15 0
BBX 11 20 2 0
BITMAP
0800
1800
0C00
0C00
0600
0000
0000
1F00
3FC0
60C0
C060
C060
FFE0
FFE0
C000
C000
C040
70E0
3FC0
1F00
ENDCHAR
STARTCHAR 0451
ENCODING 1105
SWIDTH 600 0
DWIDTH 15 0
BBX 11 18 2 0
BITMAP
3180
3B80
3180
0000
0000
1F00
3FC0
60C0
C060
C060
FFE0
FFE0
C000
C000
C040
70E0
3FC0
1F00
ENDCHAR
STARTCHAR 0452
ENCODING 1106
SWIDTH 600 0
DWIDTH 15 0
BBX 12 24 1 -5
BITMAP
6000
6000
FE00
FE00
6000
6000
6780
6FE0
6860
7070
6030
6030
6030
6030
6030
6030
6030
6030
6030
0030
0030
0030
1FE0
1FE0
ENDCHAR
STARTCHAR 0453
ENCODING 1107
SWIDTH 600 0
DWIDTH 15 0
BBX 10 20 3 0
BITMAP
0200
0700
0600
0C00
0C00
0000
0000
FFC0
FFC0
C000
C000
C000
C000
C000
C000
C000
C000
C000
C000
C000
ENDCHAR
STARTCHAR 0454
ENCODING 1108
SWIDTH 600 0
DWIDTH 15 0
BBX 11 13 2 0
BITMAP
1F00
3FC0
70C0
6060
C000
FF00
FF00
C000
C000
6060
70C0
3FC0
1F00
ENDCHAR
STARTCHAR 0455
ENCODING 1109
SWIDTH 600 0
DWIDTH 15 0
BBX 11 13 2 0
BITMAP
1F00
7FC0
60E0
C000
E000
7E00
3FC0
03E0
0060
8060
E0E0
7FC0
1F80
ENDCHAR
STARTCHAR 0456
ENCODING 1110
SWIDTH 600 0
DWIDTH 15 0
BBX 11 19 3 0
BITMAP
0E00
0E00
0E00
0000
0000
0000
FC00
FC00
0C00
0C00
0C00
0C00
0C00
0C00
0C00
0C00
0C00
FFE0
FFE0
ENDCHAR
STARTCHAR 0457
ENCODING 1111
SWIDTH 600 0
DWIDTH 15 0
BBX 11 18 3 0
BITMAP
3380
3380
3380
0000
0000
FC00
FC00
0C00
0C00
0C00
0C00
0C00
0C00
0C00
0C00
0C00
FFE0
FFE0
ENDCHAR
STARTCHAR 0458
ENCODING 1112
SWIDTH 600 0
DWIDTH 15 0
BBX 9 24 2 -5
BITMAP
0380
0380
0380
0000
0000
0000
FF80
FF80
0180
0180
0180
0180
0180
0180
0180
0180
0180
0180
0180
0180
0180
0180
7F80
7F00
ENDCHAR
STARTCHAR 0459
ENCODING 1113
SWIDTH 600 0
DWIDTH 15 0
BBX 15 13 0 0
BITMAP
1F80
1F80
1980
1980
19F8
19FC
118C
1186
3186
3186
318C
E1FC
C1F8
ENDCHAR
STARTCHAR 045A
ENCODING 1114
SWIDTH 600 0
DWIDTH 15 0
BBX 14 13 1 0
BITMAP
C300
C300
C300
C300
C3F0
FFF8
FF18
C30C
C30C
C30C
C318
C3F8
C3F0
ENDCHAR
STARTCHAR 045B
ENCODING 1115
SWIDTH 600 0
DWIDTH 15 0
BBX 12 19 1 0
BITMAP
6000
6000
FE00
FE00
6000
6000
6780
6FE0
6860
7070
6030
6030
6030
6030
6030
6030
6030
6030
6030
ENDCHAR
STARTCHAR 045C
ENCODING 1116
SWIDTH 600 0
DWIDTH 15 0
BBX 10 20 3 0
BITMAP
0400
0600
0C00
0C00
1800
0000
0000
C0C0
C180
C300
C700
C600
FC00
FC00
C600
C700
C300
C380
C1C0
C0C0
ENDCHAR
STARTCHAR 045D
ENCODING 1117
SWIDTH 600 0
DWIDTH 15 0
BBX 11 20 2 0
BITMAP
0800
1800
0C00
0C00
0600
0000
0000
C0E0
C0E0
C1E0
C360
C360
C660
C460
CC60
D860
D860
F060
E060
E060
ENDCHAR
STARTCHAR 045E
ENCODING 1118
SWIDTH 600 0
DWIDTH 15 0
BBX 13 25 1 -5
BITMAP
1040
38E0
18C0
0F80
0700
0000
0000
E038
6030
6030
3060
3060
18C0
18C0
18C0
0D80
0D80
0700
0700
0700
0600
0600
0C00
7C00
7800
ENDCHAR
STARTCHAR 045F
ENCODING 1119
SWIDTH 600 0
DWIDTH 15 0
BBX 11 17 2 -4
BITMAP
C060
C060
C060
C060
C060
C060
C060
C060
C060
C060
C060
FFE0
FFE0
0400
0400
0400
0400
ENDCHAR
STARTCHAR 0472
ENCODING 1138
SWIDTH 600 0
DWIDTH 15 0
BBX 13 17 1 0
BITMAP
0F80
3FE0
3060
6030
6030
6030
E030
FFF8
FFF8
E038
E038
6030
6030
7070
38E0
3FE0
0F80
ENDCHAR
STARTCHAR 0473
ENCODING 1139
SWIDTH 600 0
DWIDTH 15 0
BBX 11 13 2 0
BITMAP
1F00
7FC0
60C0
C060
C060
FFE0
FFE0
C060
C060
C060
60C0
7FC0
1F00
ENDCHAR
STARTCHAR 0490
ENCODING 1168
SWIDTH 600 0
DWIDTH 15 0
BBX 10 21 3 0
BITMAP
00C0
00C0
00C0
00C0
FFC0
FFC0
C000
C000
C000
C000
C000
C000
C000
C000
C000
C000
C000
C000
C000
C000
C000
ENDCHAR
STARTCHAR 0491
ENCODING 1169
SWIDTH 600 0
DWIDTH 15 0
BBX 10 17 3 0
BITMAP
00C0
00C0
00C0
00C0
FFC0
FFC0
C000
C000
C000
C000
C000
C000
C000
C000
C000
C000
C000
ENDCHAR
STARTCHAR 0492
ENCODING 1170
SWIDTH 600 0
DWIDTH 15 0
BBX 13 17 1 0
BITMAP
1FF8
1FF8
1800
1800
1800
1800
1800
FFC0
FFC0
1800
1800
1800
1800
1800
1800
1800
1800
ENDCHAR
STARTCHAR 0493
ENCODING 1171
SWIDTH 600 0
DWIDTH 15 0
BBX 12 13 1 0
BITMAP
1FF0
1FF0
1800
1800
1800
1800
FFC0
FFC0
1800
1800
1800
1800
1800
ENDCHAR
STARTCHAR 0494
ENCODING 1172
SWIDTH 600 0
DWIDTH 15 0
BBX 12 21 2 -4
BITMAP
FFC0
FFC0
C000
C000
C000
C000
C000
DF80
FFC0
E0E0
C060
C060
C060
C070
C070
C070
C060
0060
0060
0FE0
0F80
ENDCHAR
STARTCHAR 0495
ENCODING 1173
SWIDTH 600 0
DWIDTH 15 0
BBX 10 18 3 -5
BITMAP
FF00
FF00
C000
C000
C000
C000
DF00
FF80
E1C0
C0C0
C0C0
C0C0
C0C0
00C0
00C0
01C0
0780
0700
ENDCHAR
STARTCHAR 0496
ENCODING 1174
SWIDTH 600 0
DWIDTH 15 0
BBX 16 21 0 -4
BITMAP
C30C
630C
6318
6318
3318
3330
3330
1FF0
1FF0
3330
3338
3318
6318
631C
630C
C30F
C30F
0003
0003
0003
0003
ENDCHAR
STARTCHAR 0497
ENCODING 1175
SWIDTH 600 0
DWIDTH 15 0
BBX 14 17 1 -4
BITMAP
C618
C610
C630
6630
6630
3FE0
3FE0
6630
6630
E630
C630
C61C
C61C
000C
000C
000C
000C
ENDCHAR
STARTCHAR 0498
ENCODING 1176
SWIDTH 600 0
DWIDTH 15 0
BBX 12 21 1 -4
BITMAP
1F80
3FE0
70E0
6070
0070
0060
00E0
0FC0
0FC0
0060
0030
0030
4030
C070
70E0
3FE0
1F80
0600
0600
0600
0600
ENDCHAR
STARTCHAR 0499
ENCODING 1177
SWIDTH 600 0
DWIDTH 15 0
BBX 11 16 2 -3
BITMAP
3F00
7FC0
E0C0
80C0
00C0
3F80
3F80
00C0
00C0
80E0
E0C0
7FC0
3F00
0C00
0C00
0C00
ENDCHAR
STARTCHAR 049A
ENCODING 1178
SWIDTH 600 0
DWIDTH 15 0
BBX 12 21 2 -4
BITMAP
C0E0
C0C0
C1C0
C180
C380
C300
C700
FE00
FE00
C600
C300
C300
C180
C180
C1C0
C0F0
C070
0030
0030
0030
0030
ENDCHAR
STARTCHAR 049B
ENCODING 1179
SWIDTH 600 0
DWIDTH 15 0
BBX 11 17 2 -4
BITMAP
C0E0
C0C0
C180
C300
C300
FE00
FE00
C700
C300
C180
C1C0
C0E0
C0E0
0020
0020
0020
0020
ENDCHAR
STARTCHAR 049C
ENCODING 1180
SWIDTH 600 0
DWIDTH 15 0
BBX 13 17 1 0
BITMAP
E038
E030
E060
EC60
ECC0
ECC0
ED80
FF80
FF80
ED80
EDC0
ECC0
ECE0
E060
E060
E038
E038
ENDCHAR
STARTCHAR 049D
ENCODING 1181
SWIDTH 600 0
DWIDTH 15 0
BBX 12 13 2 0
BITMAP
C060
C0E0
C8C0
C980
CB80
FF00
FF00
CB80
C980
C9C0
C0C0
C0F0
C070
ENDCHAR
STARTCHAR 04A0
ENCODING 1184
SWIDTH 600 0
DWIDTH 15 0
BBX 15 17 0 0
BITMAP
FC0C
FC1C
0C18
0C38
0C30
0C70
0C60
0FC0
0FC0
0C60
0C70
0C30
0C30
0C38
0C18
0C1E
0C0E
ENDCHAR
STARTCHAR 04A1
ENCODING 1185
SWIDTH 600 0
DWIDTH 15 0
BBX 14 13 0 0
BITMAP
FC1C
FC18
0C30
0C70
0C60
0FC0
0FC0
0C60
0C60
0C30
0C30
0C1C
0C1C
ENDCHAR
STARTCHAR 04A2
ENCODING 1186
SWIDTH 600 0
DWIDTH 15 0
BBX 12 21 2 -4
BITMAP
C0C0
C0C0
C0C0
C0C0
C0C0
C0C0
C0C0
FFC0
FFC0
C0C0
C0C0
C0C0
C0C0
C0C0
C0C0
C0F0
C0F0
0030
0030
0030
0030
ENDCHAR
STARTCHAR 04A3
ENCODING 1187
SWIDTH 600 0
DWIDTH 15 0
BBX 12 17 2 -4
BITMAP
C0C0
C0C0
C0C0
C0C0
C0C0
FFC0
FFC0
C0C0
C0C0
C0C0
C0C0
C0F0
C0F0
0030
0030
0030
0030
ENDCHAR
STARTCHAR 04A4
ENCODING 1188
SWIDTH 600 0
DWIDTH 15 0
BBX 14 17 1 0
BITMAP
C1FC
C1FC
C180
C180
C180
C180
C180
FF80
FF80
C180
C180
C180
C180
C180
C180
C180
C180
ENDCHAR
STARTCHAR 04A5
ENCODING 1189
SWIDTH 600 0
DWIDTH 15 0
BBX 13 13 1 0
BITMAP
C1F8
C1F8
C180
C180
C180
FF80
FF80
C180
C180
C180
C180
C180
C180
ENDCHAR
STARTCHAR 04AA
ENCODING 1194
SWIDTH 600 0
DWIDTH 15 0
BBX 11 21 2 -4
BITMAP
1F00
3FC0
70E0
6060
C040
C000
C000
C000
C000
C000
C000
C000
C040
6060
70E0
3FC0
1F80
0600
0600
0600
0600
ENDCHAR
STARTCHAR 04AB
ENCODING 1195
SWIDTH 600 0
DWIDTH 15 0
BBX 11 16 2 -3
BITMAP
1F00
3FC0
70C0
6060
C000
C000
C000
C000
C000
6060
70C0
3FC0
1F80
0600
0600
0600
ENDCHAR
STARTCHAR 04AE
ENCODING 1198
SWIDTH 600 0
DWIDTH 15 0
BBX 15 17 0 0
BITMAP
E00E
701C
3018
1838
1830
0C60
0EE0
06C0
03C0
0380
0380
0380
0380
0380
0380
0380
0380
ENDCHAR
STARTCHAR 04AF
ENCODING 1199
SWIDTH 600 0
DWIDTH 15 0
BBX 11 18 2 -5
BITMAP
C060
C060
6040
60C0
60C0
3180
3180
3180
1B00
1B00
0A00
0E00
0E00
0E00
0E00
0E00
0E00
0E00
ENDCHAR
STARTCHAR 04B0
ENCODING 1200
SWIDTH 600 0
DWIDTH 15 0
BBX 15 17 0 0
BITMAP
E00E
701C
3018
1830
1830
0C60
0EE0
06C0
0380
0380
1FF0
1FF0
0380
0380
0380
0380
0380
ENDCHAR
STARTCHAR 04B1
ENCODING 1201
SWIDTH 600 0
DWIDTH 15 0
BBX 11 18 2 -5
BITMAP
C060
C060
6040
60C0
60C0
3180
3180
3180
1B00
1B00
0A00
0E00
0E00
7FC0
7FC0
0E00
0E00
0E00
ENDCHAR
STARTCHAR 04B2
ENCODING 1202
SWIDTH 600 0
DWIDTH 15 0
BBX 15 21 0 -4
BITMAP
701C
3018
3830
1830
0C60
0EC0
06C0
0380
0380
07C0
06C0
0CE0
1C60
1830
3038
701E
600E
8006
0006
0006
0006
ENDCHAR
STARTCHAR 04B3
ENCODING 1203
SWIDTH 600 0
DWIDTH 15 0
BBX 12 17 2 -4
BITMAP
C060
60C0
71C0
3980
1B00
0E00
0E00
0F00
1B00
3180
71C0
60F0
C070
0010
0010
0010
0010
ENDCHAR
STARTCHAR 04B6
ENCODING 1206
SWIDTH 600 0
DWIDTH 15 0
BBX 13 21 1 -4
BITMAP
C060
C060
C060
C060
C060
C060
E060
6060
7060
3FE0
1FE0
0060
0060
0060
0060
0078
0078
0018
0018
0018
0018
ENDCHAR
STARTCHAR 04B7
ENCODING 1207
SWIDTH 600 0
DWIDTH 15 0
BBX 12 17 2 -4
BITMAP
C0C0
C0C0
C0C0
C0C0
C0C0
C0C0
E1C0
7FC0
3EC0
00C0
00C0
00F0
00F0
0030
0030
0030
0030
ENDCHAR
STARTCHAR 04B8
ENCODING 1208
SWIDTH 600 0
DWIDTH 15 0
BBX 12 17 1 0
BITMAP
E030
E030
E030
E030
E030
6630
6630
6630
7670
3FF0
1FB0
0630
0630
0630
0030
0030
0030
ENDCHAR
STARTCHAR 04B9
ENCODING 1209
SWIDTH 600 0
DWIDTH 15 0
BBX 10 13 2 0
BITMAP
C0C0
C0C0
C0C0
CCC0
CCC0
CCC0
ECC0
7FC0
3EC0
0CC0
0CC0
00C0
00C0
ENDCHAR
STARTCHAR 04BA
ENCODING 1210
SWIDTH 600 0
DWIDTH 15 0
BBX 12 17 2 0
BITMAP
C000
C000
C000
C000
C000
C000
DF80
FFC0
E0E0
C060
C060
C060
C070
C070
C070
C070
C070
ENDCHAR
STARTCHAR 04BB
ENCODING 1211
SWIDTH 600 0
DWIDTH 15 0
BBX 11 19 2 0
BITMAP
C000
C000
C000
C000
C000
C000
CF00
DFC0
D0C0
E0E0
C060
C060
C060
C060
C060
C060
C060
C060
C060
ENDCHAR
STARTCHAR 04C0
ENCODING 1216
SWIDTH 600 0
DWIDTH 15 0
BBX 11 17 2 0
BITMAP
FFE0
FFE0
0E00
0E00
0E00
0E00
0E00
0E00
0E00
0E00
0E00
0E00
0E00
0E00
0E00
FFE0
FFE0
ENDCHAR
STARTCHAR 04C1
ENCODING 1217
SWIDTH 600 0
DWIDTH 15 0
BBX 15 24 0 0
BITMAP
0820
1C70
0C60
07C0
0380
0000
0000
E38E
638C
638C
3398
3398
3398
3BB0
1FF0
1FF0
3BB8
3398
3398
739C
638C
638C
638C
C386
ENDCHAR
STARTCHAR 04C2
ENCODING 1218
SWIDTH 600 0
DWIDTH 15 0
BBX 13 20 1 0
BITMAP
1040
38E0
18C0
0F80
0700
0000
0000
C218
C218
6230
6230
6230
3FE0
3FE0
6230
6230
6230
C218
C218
C218
ENDCHAR
STARTCHAR 04CF
ENCODING 1231
SWIDTH 600 0
DWIDTH 15 0
BBX 11 19 2 0
BITMAP
FFE0
FFE0
0E00
0E00
0E00
0E00
0E00
0E00
0E00
0E00
0E00
0E00
0E00
0E00
0E00
0E00
0E00
FFE0
FFE0
ENDCHAR
STARTCHAR 04D0
ENCODING 1232
SWIDTH 600 0
DWIDTH 15 0
BBX 13 24 1 0
BITMAP
1040
38E0
18C0
0F80
0700
0000
0000
0700
0700
0D80
0D80
0D80
18C0
18C0
18C0
3060
3060
3FE0
7FF0
6030
6030
6030
C018
C018
ENDCHAR
STARTCHAR 04D1
ENCODING 1233
SWIDTH 600 0
DWIDTH 15 0
BBX 12 20 2 0
BITMAP
2100
6180
3100
3F00
1E00
0000
0000
1F00
7F80
E1C0
40C0
00C0
00C0
3FC0
FFC0
C0C0
C0C0
C1C0
FEF0
3C70
ENDCHAR
STARTCHAR 04D2
ENCODING 1234
SWIDTH 600 0
DWIDTH 15 0
BBX 13 22 1 0
BITMAP
18C0
1DC0
18C0
0000
0000
0700
0700
0D80
0D80
0D80
18C0
18C0
18C0
3060
3060
3FE0
7FF0
6030
6030
6030
C018
C018
ENDCHAR
STARTCHAR 04D3
ENCODING 1235
SWIDTH 600 0
DWIDTH 15 0
BBX 12 18 2 0
BITMAP
3380
7380
3380
0000
0000
1F00
7F80
E1C0
40C0
00C0
00C0
3FC0
FFC0
C0C0
C0C0
C1C0
FEF0
3C70
ENDCHAR
STARTCHAR 04D4
ENCODING 1236
SWIDTH 600 0
DWIDTH 15 0
BBX 14 17 0 0
BITMAP
07FC
07FC
06C0
06C0
0CC0
0CC0
0CC0
18FC
18FC
18C0
3FC0
3FC0
30C0
30C0
60C0
60FC
E0FC
ENDCHAR
STARTCHAR 04D5
ENCODING 1237
SWIDTH 600 0
DWIDTH 15 0
BBX 15 13 0 0
BITMAP
1C78
3EFC
638C
4304
0304
03FE
3FFE
7F00
E300
C304
C38C
7CF8
3870
ENDCHAR
STARTCHAR 04D6
ENCODING 1238
SWIDTH 600 0
DWIDTH 15 0
BBX 11 24 2 0
BITMAP
2080
70C0
3180
1F00
0E00
0000
0000
FFE0
FFE0
C000
C000
C000
C000
C000
FFE0
FFE0
C000
C000
C000
C000
C000
C000
FFE0
FFE0
ENDCHAR
STARTCHAR 04D7
ENCODING 1239
SWIDTH 600 0
DWIDTH 15 0
BBX 11 20 2 0
BITMAP
2080
71C0
3180
1F00
0E00
0000
0000
1F00
3FC0
60C0
C060
C060
FFE0
FFE0
C000
C000
C040
70E0
3FC0
1F00
ENDCHAR
STARTCHAR 04D8
ENCODING 1240
SWIDTH 600 0
DWIDTH 15 0
BBX 13 17 1 0
BITMAP
0F80
3FE0
70E0
6070
6030
0030
0030
0038
FFF8
FFF8
E030
6030
6030
6030
3060
3FE0
0F80
ENDCHAR
STARTCHAR 04D9
ENCODING 1241
SWIDTH 600 0
DWIDTH 15 0
BBX 11 13 2 0
BITMAP
1F00
7F80
E1C0
4060
0060
0060
FFE0
FFE0
C060
C060
60C0
7F80
1F00
ENDCHAR
STARTCHAR 04DC
ENCODING 1244
SWIDTH 600 0
DWIDTH 15 0
BBX 15 22 0 0
BITMAP
0C60
0EE0
0C60
0000
0000
E38E
638C
638C
3398
3398
3398
3BB0
1FF0
1FF0
3BB8
3398
3398
739C
638C
638C
638C
C386
ENDCHAR
STARTCHAR 04DD
ENCODING 1245
SWIDTH 600 0
DWIDTH 15 0
BBX 13 18 1 0
BITMAP
18C0
1DC0
18C0
0000
0000
C218
C218
6230
6230
6230
3FE0
3FE0
6230
6230
6230
C218
C218
C218
ENDCHAR
STARTCHAR 04DE
ENCODING 1246
SWIDTH 600 0
DWIDTH 15 0
BBX 12 22 1 0
BITMAP
19C0
39C0
19C0
0000
0000
1F80
3FE0
70E0
6070
0070
0060
00E0
0FC0
0FC0
0060
0030
0030
4030
C070
70E0
3FE0
1F80
ENDCHAR
STARTCHAR 04DF
ENCODING 1247
SWIDTH 600 0
DWIDTH 15 0
BBX 11 18 2 0
BITMAP
3380
7380
3380
0000
0000
3F00
7FC0
E0C0
80C0
00C0
3F80
3F80
00C0
00C0
80E0
E0C0
7FC0
3F00
ENDCHAR
STARTCHAR 04E2
ENCODING 1250
SWIDTH 600 0
DWIDTH 15 0
BBX 11 22 2 0
BITMAP
3F80
3F80
0000
0000
0000
C060
C0E0
C0E0
C1E0
C1E0
C360
C360
C660
CE60
CC60
D860
D860
F060
F060
E060
E060
C060
ENDCHAR
STARTCHAR 04E3
ENCODING 1251
SWIDTH 600 0
DWIDTH 15 0
BBX 11 18 2 0
BITMAP
3F80
3F80
0000
0000
0000
C0E0
C0E0
C1E0
C360
C360
C660
C460
CC60
D860
D860
F060
E060
E060
ENDCHAR
STARTCHAR 04E4
ENCODING 1252
SWIDTH 600 0
DWIDTH 15 0
BBX 11 22 2 0
BITMAP
3180
3B80
3180
0000
0000
C060
C0E0
C0E0
C1E0
C1E0
C360
C360
C660
CE60
CC60
D860
D860
F060
F060
E060
E060
C060
ENDCHAR
STARTCHAR 04E5
ENCODING 1253
SWIDTH 600 0
DWIDTH 15 0
BBX 11 18 2 0
BITMAP
3180
3B80
3180
0000
0000
C0E0
C0E0
C1E0
C360
C360
C660
C460
CC60
D860
D860
F060
E060
E060
ENDCHAR
STARTCHAR 04E6
ENCODING 1254
SWIDTH 600 0
DWIDTH 15 0
BBX 13 22 1 0
BITMAP
18C0
1DC0
18C0
0000
0000
0F80
3FE0
38E0
6030
6030
6030
E030
E038
E038
E038
E038
6030
6030
6030
38E0
3FE0
0F80
ENDCHAR
STARTCHAR 04E7
ENCODING 1255
SWIDTH 600 0
DWIDTH 15 0
BBX 11 18 2 0
BITMAP
3180
3B80
3180
0000
0000
1F00
7FC0
60C0
C060
C060
C060
C060
C060
C060
C060
60C0
7FC0
1F00
ENDCHAR
STARTCHAR 04E8
ENCODING 1256
SWIDTH 600 0
DWIDTH 15 0
BBX 13 17 1 0
BITMAP
0F80
3FE0
3060
6030
6030
6030
E030
FFF8
FFF8
E038
E038
6030
6030
7070
38E0
3FE0
0F80
ENDCHAR
STARTCHAR 04E9
ENCODING 1257
SWIDTH 600 0
DWIDTH 15 0
BBX 11 13 2 0
BITMAP
1F00
7FC0
60C0
C060
C060
FFE0
FFE0
C060
C060
C060
60C0
7FC0
1F00
ENDCHAR
STARTCHAR 04EE
ENCODING 1262
SWIDTH 600 0
DWIDTH 15 0
BBX 13 22 1 0
BITMAP
1FC0
1FC0
0000
0000
0000
E018
6030
6030
3030
3060
1860
18E0
1CC0
0CC0
0D80
0780
0780
0300
0300
0600
3E00
3C00
ENDCHAR
STARTCHAR 04EF
ENCODING 1263
SWIDTH 600 0
DWIDTH 15 0
BBX 13 23 1 -5
BITMAP
1FC0
1FC0
0000
0000
0000
E038
6030
6030
3060
3060
18C0
18C0
18C0
0D80
0D80
0700
0700
0700
0600
0600
0C00
7C00
7800
ENDCHAR
STARTCHAR 04F0
ENCODING 1264
SWIDTH 600 0
DWIDTH 15 0
BBX 13 22 1 0
BITMAP
18C0
1DC0
18C0
0000
0000
E018
6030
6030
3030
3060
1860
18E0
1CC0
0CC0
0D80
0780
0780
0300
0300
0600
3E00
3C00
ENDCHAR
STARTCHAR 04F1
ENCODING 1265
SWIDTH 600 0
DWIDTH 15 0
BBX 13 23 1 -5
BITMAP
18C0
1DC0
18C0
0000
0000
E038
6030
6030
3060
3060
18C0
18C0
18C0
0D80
0D80
0700
0700
0700
0600
0600
0C00
7C00
7800
ENDCHAR
STARTCHAR 04F2
ENCODING 1266
SWIDTH 600 0
DWIDTH 15 0
BBX 13 24 1 0
BITMAP
0440
0660
0CC0
0CC0
1980
0000
0000
E018
6030
6030
3030
3060
1860
18E0
1CC0
0CC0
0D80
0780
0780
0300
0300
0600
3E00
3C00
ENDCHAR
STARTCHAR 04F3
ENCODING 1267
SWIDTH 600 0
DWIDTH 15 0
BBX 13 25 1 -5
BITMAP
0440
0660
0CC0
0CC0
1980
0000
0000
E038
6030
6030
3060
3060
18C0
18C0
18C0
0D80
0D80
0700
0700
0700
0600
0600
0C00
7C00
7800
ENDCHAR
STARTCHAR 04F4
ENCODING 1268
SWIDTH 600 0
DWIDTH 15 0
BBX 12 22 1 0
BITMAP
19C0
39C0
19C0
0000
0000
E030
E030
E030
E030
E030
6030
6030
6030
7070
3FF0
1FB0
0030
0030
0030
0030
0030
0030
ENDCHAR
STARTCHAR 04F5
ENCODING 1269
SWIDTH 600 0
DWIDTH 15 0
BBX 10 18 2 0
BITMAP
3380
7380
3380
0000
0000
C0C0
C0C0
C0C0
C0C0
C0C0
C0C0
E1C0
7FC0
3EC0
00C0
00C0
00C0
00C0
ENDCHAR
STARTCHAR 04F8
ENCODING 1272
SWIDTH 600 0
DWIDTH 15 0
BBX 13 22 1 0
BITMAP
18C0
1DC0
18C0
0000
0000
C018
C018
C018
C018
C018
C018
C018
FC18
FF18
C318
C198
C198
C198
C198
C318
FF18
FC18
ENDCHAR
STARTCHAR 04F9
ENCODING 1273
SWIDTH 600 0
DWIDTH 15 0
BBX 13 18 1 0
BITMAP
18C0
1DC0
18C0
0000
0000
C018
C018
C018
C018
FE18
FF18
C318
C198
C198
C198
C318
FF18
FE18
ENDCHAR
STARTCHAR 0E3F
ENCODING 3647
SWIDTH 600 0
DWIDTH 15 0
BBX 11 23 2 -3
BITMAP
0400
0400
0400
FF80
FFC0
C4E0
C460
C460
C460
C4C0
FF80
FFC0
C4E0
C460
C460
C460
C460
C4E0
FFC0
FF80
0400
0400
0400
ENDCHAR
STARTCHAR 1E80
ENCODING 7808
SWIDTH 600 0
DWIDTH 15 0
BBX 13 24 1 0
BITMAP
0400
0C00
0600
0600
0300
0000
0000
C018
C018
C018
C018
C718
C718
C518
C518
4D90
4D90
6D90
68B0
68F0
78F0
78F0
78F0
7070
ENDCHAR
STARTCHAR 1E81
ENCODING 7809
SWIDTH 600 0
DWIDTH 15 0
BBX 13 20 1 0
BITMAP
0400
0C00
0600
0600
0300
0000
0000
C718
C718
C518
C518
CD98
4D90
4D90
68B0
68B0
78F0
78F0
78F0
3060
ENDCHAR
STARTCHAR 1E82
ENCODING 7810
SWIDTH 600 0
DWIDTH 15 0
BBX 13 24 1 0
BITMAP
0100
0180
0300
0300
0600
0000
0000
C018
C018
C018
C018
C718
C718
C518
C518
4D90
4D90
6D90
68B0
68F0
78F0
78F0
78F0
7070
ENDCHAR
STARTCHAR 1E83
ENCODING 7811
SWIDTH 600 0
DWIDTH 15 0
BBX 13 20 1 0
BITMAP
0100
0180
0300
0300
0600
0000
0000
C718
C718
C518
C518
CD98
4D90
4D90
68B0
68B0
78F0
78F0
78F0
3060
ENDCHAR
STARTCHAR 1E84
ENCODING 7812
SWIDTH 600 0
DWIDTH 15 0
BBX 13 22 1 0
BITMAP
18C0
1DC0
18C0
0000
0000
C018
C018
C018
C018
C718
C718
C518
C518
4D90
4D90
6D90
68B0
68F0
78F0
78F0
78F0
7070
ENDCHAR
STARTCHAR 1E85
ENCODING 7813
SWIDTH 600 0
DWIDTH 15 0
BBX 13 18 1 0
BITMAP
18C0
1DC0
18C0
0000
0000
C718
C718
C518
C518
CD98
4D90
4D90
68B0
68B0
78F0
78F0
78F0
3060
ENDCHAR
STARTCHAR 1E9E
ENCODING 7838
SWIDTH 600 0
DWIDTH 15 0
BBX 13 17 2 0
BITMAP
FFE0
FFE0
C060
C0C0
C180
C380
C700
C780
C7E0
C070
C030
C030
C038
D030
D870
DFE0
C7C0
ENDCHAR
STARTCHAR 1EA0
ENCODING 7840
SWIDTH 600 0
DWIDTH 15 0
BBX 13 22 1 -5
BITMAP
0700
0700
0D80
0D80
0D80
18C0
18C0
18C0
3060
3060
3FE0
7FF0
6030
6030
6030
C018
C018
0000
0000
0700
0700
0700
ENDCHAR
STARTCHAR 1EA1
ENCODING 7841
SWIDTH 600 0
DWIDTH 15 0
BBX 12 18 2 -5
BITMAP
1F00
7F80
E1C0
40C0
00C0
00C0
3FC0
FFC0
C0C0
C0C0
C1C0
FEF0
3C70
0000
0000
0C00
0E00
0C00
ENDCHAR
STARTCHAR 1EA2
ENCODING 7842
SWIDTH 600 0
DWIDTH 15 0
BBX 13 24 1 0
BITMAP
0F80
0F80
0180
0300
0200
0000
0000
0700
0700
0D80
0D80
0D80
18C0
18C0
18C0
3060
3060
3FE0
7FF0
6030
6030
6030
C018
C018
ENDCHAR
STARTCHAR 1EA3
ENCODING 7843
SWIDTH 600 0
DWIDTH 15 0
BBX 12 19 2 0
BITMAP
1E00
1E00
0200
0600
0C00
0000
1F00
7F80
E1C0
40C0
00C0
00C0
3FC0
FFC0
C0C0
C0C0
C1C0
FEF0
3C70
ENDCHAR
STARTCHAR 1EA4
ENCODING 7844
SWIDTH 600 0
DWIDTH 15 0
BBX 13 27 1 0
BITMAP
0010
0018
0030
0020
0760
0D80
18C0
3060
0000
0000
0700
0700
0D80
0D80
0D80
18C0
18C0
18C0
3060
3060
3FE0
7FF0
6030
6030
6030
C018
C018
ENDCHAR
STARTCHAR 1EA5
ENCODING 7845
SWIDTH 600 0
DWIDTH 15 0
BBX 12 23 2 0
BITMAP
0020
0070
0060
00C0
1E80
1F00
3300
6180
0000
0000
1F00
7F80
E1C0
40C0
00C0
00C0
3FC0
FFC0
C0C0
C0C0
C1C0
FEF0
3C70
ENDCHAR
STARTCHAR 1EA6
ENCODING 7846
SWIDTH 600 0
DWIDTH 15 0
BBX 13 27 1 0
BITMAP
4000
C000
6000
2000
3700
0D80
18C0
3060
0000
0000
0700
0700
0D80
0D80
0D80
18C0
18C0
18C0
3060
3060
3FE0
7FF0
6030
6030
6030
C018
C018
ENDCHAR
STARTCHAR 1EA7
ENCODING 7847
SWIDTH 600 0
DWIDTH 15 0
BBX 13 23 1 0
BITMAP
4000
C000
6000
6000
2F00
0F80
1980
30C0
0000
0000
0F80
3FC0
70E0
2060
0060
0060
1FE0
7FE0
6060
6060
60E0
7F78
1E38
ENDCHAR
STARTCHAR 1EA8
ENCODING 7848
SWIDTH 600 0
DWIDTH 15 0
BBX 13 27 1 0
BITMAP
00F0
00F0
0030
0030
0760
0D80
18C0
3060
0000
0000
0700
0700
0D80
0D80
0D80
18C0
18C0
18C0
3060
3060
3FE0
7FF0
6030
6030
6030
C018
C018
ENDCHAR
STARTCHAR 1EA9
ENCODING 7849
SWIDTH 600 0
DWIDTH 15 0
BBX 12 23 2 0
BITMAP
03E0
03E0
0060
00C0
1E80
1F00
3300
6180
0000
0000
1F00
7F80
E1C0
40C0
00C0
00C0
3FC0
FFC0
C0C0
C0C0
C1C0
FEF0
3C70
ENDCHAR
STARTCHAR 1EAA
ENCODING 7850
SWIDTH 600 0
DWIDTH 15 0
BBX 13 27 1 0
BITMAP
1E40
3FE0
13C0
0000
0700
0D80
18C0
3060
0000
0000
0700
0700
0D80
0D80
0D80
18C0
18C0
18C0
3060
3060
3FE0
7FF0
6030
6030
6030
C018
C018
ENDCHAR
STARTCHAR 1EAB
ENCODING 7851
SWIDTH 600 0
DWIDTH 15 0
BBX 12 23 2 0
BITMAP
3880
7F80
4700
0000
1E00
1B00
3100
6180
0000
0000
1F00
7F80
E1C0
40C0
00C0
00C0
3FC0
FFC0
C0C0
C0C0
C1C0
FEF0
3C70
ENDCHAR
STARTCHAR 1EAC
ENCODING 7852
SWIDTH 600 0
DWIDTH 15 0
BBX 13 28 1 -5
BITMAP
0700
0D80
18C0
3060
0000
0000
0700
0700
0D80
0D80
0D80
18C0
18C0
18C0
3060
3060
3FE0
7FF0
6030
6030
6030
C018
C018
0000
0000
0700
0700
0700
ENDCHAR
STARTCHAR 1EAD
ENCODING 7853
SWIDTH 600 0
DWIDTH 15 0
BBX 12 24 2 -5
BITMAP
1E00
1F00
3300
6180
0000
0000
1F00
7F80
E1C0
40C0
00C0
00C0
3FC0
FFC0
C0C0
C0C0
C1C0
FEF0
3C70
0000
0000
0C00
0E00
0C00
ENDCHAR
STARTCHAR 1EAE
ENCODING 7854
SWIDTH 600 0
DWIDTH 15 0
BBX 13 27 1 0
BITMAP
0100
0180
0300
0300
3660
18C0
0F80
0700
0000
0000
0700
0700
0D80
0D80
0D80
18C0
18C0
18C0
3060
3060
3FE0
7FF0
6030
6030
6030
C018
C018
ENDCHAR
STARTCHAR 1EAF
ENCODING 7855
SWIDTH 600 0
DWIDTH 15 0
BBX 12 23 2 0
BITMAP
0200
0700
0600
0C00
6D80
7180
3F00
1E00
0000
0000
1F00
7F80
E1C0
40C0
00C0
00C0
3FC0
FFC0
C0C0
C0C0
C1C0
FEF0
3C70
ENDCHAR
STARTCHAR 1EB0
ENCODING 7856
SWIDTH 600 0
DWIDTH 15 0
BBX 13 27 1 0
BITMAP
0400
0C00
0600
0600
3360
18C0
0F80
0700
0000
0000
0700
0700
0D80
0D80
0D80
18C0
18C0
18C0
3060
3060
3FE0
7FF0
6030
6030
6030
C018
C018
ENDCHAR
STARTCHAR 1EB1
ENCODING 7857
SWIDTH 600 0
DWIDTH 15 0
BBX 12 23 2 0
BITMAP
1000
3800
1800
0C00
6580
3180
3F00
1E00
0000
0000
1F00
7F80
E1C0
40C0
00C0
00C0
3FC0
FFC0
C0C0
C0C0
C1C0
FEF0
3C70
ENDCHAR
STARTCHAR 1EB2
ENCODING 7858
SWIDTH 600 0
DWIDTH 15 0
BBX 13 27 1 0
BITMAP
0F00
0F00
0100
0300
3660
18C0
0F80
0700
0000
0000
0700
0700
0D80
0D80
0D80
18C0
18C0
18C0
3060
3060
3FE0
7FF0
6030
6030
6030
C018
C018
ENDCHAR
STARTCHAR 1EB3
ENCODING 7859
SWIDTH 600 0
DWIDTH 15 0
BBX 12 23 2 0
BITMAP
1E00
1E00
0600
0400
6D80
3180
3F00
1E00
0000
0000
1F00
7F80
E1C0
40C0
00C0
00C0
3FC0
FFC0
C0C0
C0C0
C1C0
FEF0
3C70
ENDCHAR
STARTCHAR 1EB4
ENCODING 7860
SWIDTH 600 0
DWIDTH 15 0
BBX 13 27 1 0
BITMAP
1E40
3FE0
13C0
0000
3060
18C0
1FC0
0F80
0000
0000
0700
0700
0D80
0D80
0D80
18C0
18C0
18C0
3060
3060
3FE0
7FF0
6030
6030
6030
C018
C018
ENDCHAR
STARTCHAR 1EB5
ENCODING 7861
SWIDTH 600 0
DWIDTH 15 0
BBX 12 23 2 0
BITMAP
3880
7F80
4700
0000
6080
6180
3F00
1E00
0000
0000
1F00
7F80
E1C0
40C0
00C0
00C0
3FC0
FFC0
C0C0
C0C0
C1C0
FEF0
3C70
ENDCHAR
STARTCHAR 1EB6
ENCODING 7862
SWIDTH 600 0
DWIDTH 15 0
BBX 13 29 1 -5
BITMAP
1040
30E0
18C0
0F80
0700
0000
0000
0700
0700
0D80
0D80
0D80
18C0
18C0
18C0
3060
3060
3FE0
7FF0
6030
6030
6030
C018
C018
0000
0000
0700
0700
0700
ENDCHAR
STARTCHAR 1EB7
ENCODING 7863
SWIDTH 600 0
DWIDTH 15 0
BBX 12 25 2 -5
BITMAP
4100
6180
3300
3F00
1E00
0000
0000
1F00
7F80
E1C0
40C0
00C0
00C0
3FC0
FFC0
C0C0
C0C0
C1C0
FEF0
3C70
0000
0000
0C00
0E00
0C00
ENDCHAR
STARTCHAR 1EB8
ENCODING 7864
SWIDTH 600 0
DWIDTH 15 0
BBX 11 22 2 -5
BITMAP
FFE0
FFE0
C000
C000
C000
C000
C000
FFE0
FFE0
C000
C000
C000
C000
C000
C000
FFE0
FFE0
0000
0000
0E00
0E00
0E00
ENDCHAR
STARTCHAR 1EB9
ENCODING 7865
SWIDTH 600 0
DWIDTH 15 0
BBX 11 18 2 -5
BITMAP
1F00
3FC0
60C0
C060
C060
FFE0
FFE0
C000
C000
C040
70E0
3FC0
1F00
0000
0000
0600
0E00
0600
ENDCHAR
STARTCHAR 1EBA
ENCODING 7866
SWIDTH 600 0
DWIDTH 15 0
BBX 11 24 2 0
BITMAP
0F00
0F00
0300
0200
0600
0000
0000
FFE0
FFE0
C000
C000
C000
C000
C000
FFE0
FFE0
C000
C000
C000
C000
C000
C000
FFE0
FFE0
ENDCHAR
STARTCHAR 1EBB
ENCODING 7867
SWIDTH 600 0
DWIDTH 15 0
BBX 11 19 2 0
BITMAP
1F00
1F00
0300
0200
0400
0000
1F00
3FC0
60C0
C060
C060
FFE0
FFE0
C000
C000
C040
70E0
3FC0
1F00
ENDCHAR
STARTCHAR 1EBC
ENCODING 7868
SWIDTH 600 0
DWIDTH 15 0
BBX 11 22 2 0
BITMAP
3C80
3FC0
6780
0000
0000
FFE0
FFE0
C000
C000
C000
C000
C000
FFE0
FFE0
C000
C000
C000
C000
C000
C000
FFE0
FFE0
ENDCHAR
STARTCHAR 1EBD
ENCODING 7869
SWIDTH 600 0
DWIDTH 15 0
BBX 11 18 2 0
BITMAP
3C80
7FC0
2780
0000
0000
1F00
3FC0
60C0
C060
C060
FFE0
FFE0
C000
C000
C040
70E0
3FC0
1F00
ENDCHAR
STARTCHAR 1EBE
ENCODING 7870
SWIDTH 600 0
DWIDTH 15 0
BBX 12 27 2 0
BITMAP
0020
0030
0060
0040
0EC0
1B00
3180
20C0
0000
0000
FFE0
FFE0
C000
C000
C000
C000
C000
FFE0
FFE0
C000
C000
C000
C000
C000
C000
FFE0
FFE0
ENDCHAR
STARTCHAR 1EBF
ENCODING 7871
SWIDTH 600 0
DWIDTH 15 0
BBX 12 23 2 0
BITMAP
0020
0030
0060
0040
0EC0
1B00
3180
20C0
0000
0000
1F00
3FC0
60C0
C060
C060
FFE0
FFE0
C000
C000
C040
70E0
3FC0
1F00
ENDCHAR
STARTCHAR 1EC0
ENCODING 7872
SWIDTH 600 0
DWIDTH 15 0
BBX 12 27 1 0
BITMAP
4000
E000
6000
3000
3700
0D80
18C0
1060
0000
0000
7FF0
7FF0
6000
6000
6000
6000
6000
7FF0
7FF0
6000
6000
6000
6000
6000
6000
7FF0
7FF0
ENDCHAR
STARTCHAR 1EC1
ENCODING 7873
SWIDTH 600 0
DWIDTH 15 0
BBX 12 23 1 0
BITMAP
4000
C000
6000
2000
3700
0D80
18C0
1060
0000
0000
0F80
1FE0
3060
6030
6030
7FF0
7FF0
6000
6000
6020
3870
1FE0
0F80
ENDCHAR
STARTCHAR 1EC2
ENCODING 7874
SWIDTH 600 0
DWIDTH 15 0
BBX 11 27 2 0
BITMAP
01E0
01E0
0020
0060
0EC0
1B00
3180
20C0
0000
0000
FFE0
FFE0
C000
C000
C000
C000
C000
FFE0
FFE0
C000
C000
C000
C000
C000
C000
FFE0
FFE0
ENDCHAR
STARTCHAR 1EC3
ENCODING 7875
SWIDTH 600 0
DWIDTH 15 0
BBX 11 23 2 0
BITMAP
01E0
01E0
0020
0060
0EC0
1B00
3180
20C0
0000
0000
1F00
3FC0
60C0
C060
C060
FFE0
FFE0
C000
C000
C040
70E0
3FC0
1F00
ENDCHAR
STARTCHAR 1EC4
ENCODING 7876
SWIDTH 600 0
DWIDTH 15 0
BBX 11 27 2 0
BITMAP
3C80
3FC0
6780
0000
0E00
1B00
3180
20C0
0000
0000
FFE0
FFE0
C000
C000
C000
C000
C000
FFE0
FFE0
C000
C000
C000
C000
C000
C000
FFE0
FFE0
ENDCHAR
STARTCHAR 1EC5
ENCODING 7877
SWIDTH 600 0
DWIDTH 15 0
BBX 11 23 2 0
BITMAP
3C80
3FC0
6780
0000
0E00
1B00
3180
20C0
0000
0000
1F00
3FC0
60C0
C060
C060
FFE0
FFE0
C000
C000
C040
70E0
3FC0
1F00
ENDCHAR
STARTCHAR 1EC6
ENCODING 7878
SWIDTH 600 0
DWIDTH 15 0
BBX 11 28 2 -5
BITMAP
0E00
1B00
3180
20C0
0000
0000
FFE0
FFE0
C000
C000
C000
C000
C000
FFE0
FFE0
C000
C000
C000
C000
C000
C000
FFE0
FFE0
0000
0000
0E00
0E00
0E00
ENDCHAR
STARTCHAR 1EC7
ENCODING 7879
SWIDTH 600 0
DWIDTH 15 0
BBX 11 24 2 -5
BITMAP
0E00
1B00
3180
20C0
0000
0000
1F00
3FC0
60C0
C060
C060
FFE0
FFE0
C000
C000
C040
70E0
3FC0
1F00
0000
0000
0600
0E00
0600
ENDCHAR
STARTCHAR 1EC8
ENCODING 7880
SWIDTH 600 0
DWIDTH 15 0
BBX 11 24 2 0
BITMAP
1F00
1F00
0300
0600
0400
0000
0000
FFE0
FFE0
0E00
0E00
0E00
0E00
0E00
0E00
0E00
0E00
0E00
0E00
0E00
0E00
0E00
FFE0
FFE0
ENDCHAR
STARTCHAR 1EC9
ENCODING 7881
SWIDTH 600 0
DWIDTH 15 0
BBX 11 19 3 0
BITMAP
1E00
1F00
0200
0600
0400
0000
FC00
FC00
0C00
0C00
0C00
0C00
0C00
0C00
0C00
0C00
0C00
FFE0
FFE0
ENDCHAR
STARTCHAR 1ECA
ENCODING 7882
SWIDTH 600 0
DWIDTH 15 0
BBX 11 22 2 -5
BITMAP
FFE0
FFE0
0E00
0E00
0E00
0E00
0E00
0E00
0E00
0E00
0E00
0E00
0E00
0E00
0E00
FFE0
FFE0
0000
0000
0E00
0E00
0E00
ENDCHAR
STARTCHAR 1ECB
ENCODING 7883
SWIDTH 600 0
DWIDTH 15 0
BBX 11 24 3 -5
BITMAP
0E00
0E00
0E00
0000
0000
0000
FC00
FC00
0C00
0C00
0C00
0C00
0C00
0C00
0C00
0C00
0C00
FFE0
FFE0
0000
0000
0C00
0E00
0C00
ENDCHAR
STARTCHAR 1ECC
ENCODING 7884
SWIDTH 600 0
DWIDTH 15 0
BBX 13 22 1 -5
BITMAP
0F80
3FE0
38E0
6030
6030
6030
E030
E038
E038
E038
E038
6030
6030
6030
38E0
3FE0
0F80
0000
0000
0700
0700
0700
ENDCHAR
STARTCHAR 1ECD
ENCODING 7885
SWIDTH 600 0
DWIDTH 15 0
BBX 11 18 2 -5
BITMAP
1F00
7FC0
60C0
C060
C060
C060
C060
C060
C060
C060
60C0
7FC0
1F00
0000
0000
0E00
0E00
0E00
ENDCHAR
STARTCHAR 1ECE
ENCODING 7886
SWIDTH 600 0
DWIDTH 15 0
BBX 13 24 1 0
BITMAP
0F80
0F80
0180
0300
0200
0000
0000
0F80
3FE0
38E0
6030
6030
6030
E030
E038
E038
E038
E038
6030
6030
6030
38E0
3FE0
0F80
ENDCHAR
STARTCHAR 1ECF
ENCODING 7887
SWIDTH 600 0
DWIDTH 15 0
BBX 11 19 2 0
BITMAP
1F00
1F00
0300
0600
0400
0000
1F00
7FC0
60C0
C060
C060
C060
C060
C060
C060
C060
60C0
7FC0
1F00
ENDCHAR
STARTCHAR 1ED0
ENCODING 7888
SWIDTH 600 0
DWIDTH 15 0
BBX 13 27 1 0
BITMAP
0010
0018
0030
0020
0760
0D80
18C0
3060
0000
0000
0F80
3FE0
38E0
6030
6030
6030
E030
E038
E038
E038
E038
6030
6030
6030
38E0
3FE0
0F80
ENDCHAR
STARTCHAR 1ED1
ENCODING 7889
SWIDTH 600 0
DWIDTH 15 0
BBX 12 23 2 0
BITMAP
0020
0030
0060
0040
0EC0
1B00
3180
60C0
0000
0000
1F00
7FC0
60C0
C060
C060
C060
C060
C060
C060
C060
60C0
7FC0
1F00
ENDCHAR
STARTCHAR 1ED2
ENCODING 7890
SWIDTH 600 0
DWIDTH 15 0
BBX 13 27 1 0
BITMAP
4000
C000
6000
2000
3700
0D80
18C0
3060
0000
0000
0F80
3FE0
38E0
6030
6030
6030
E030
E038
E038
E038
E038
6030
6030
6030
38E0
3FE0
0F80
ENDCHAR
STARTCHAR 1ED3
ENCODING 7891
SWIDTH 600 0
DWIDTH 15 0
BBX 12 23 1 0
BITMAP
4000
C000
6000
2000
3700
0D80
18C0
3060
0000
0000
0F80
3FE0
3060
6030
6030
6030
6030
6030
6030
6030
3060
3FE0
0F80
ENDCHAR
STARTCHAR 1ED4
ENCODING 7892
SWIDTH 600 0
DWIDTH 15 0
BBX 13 27 1 0
BITMAP
00F0
00F0
0030
0030
0760
0D80
18C0
3060
0000
0000
0F80
3FE0
38E0
6030
6030
6030
E030
E038
E038
E038
E038
6030
6030
6030
38E0
3FE0
0F80
ENDCHAR
STARTCHAR 1ED5
ENCODING 7893
SWIDTH 600 0
DWIDTH 15 0
BBX 11 23 2 0
BITMAP
01E0
01E0
0060
0060
0EC0
1B00
3180
60C0
0000
0000
1F00
7FC0
60C0
C060
C060
C060
C060
C060
C060
C060
60C0
7FC0
1F00
ENDCHAR
STARTCHAR 1ED6
ENCODING 7894
SWIDTH 600 0
DWIDTH 15 0
BBX 13 27 1 0
BITMAP
1E40
3FE0
13C0
0000
0700
0D80
18C0
3060
0000
0000
0F80
3FE0
38E0
6030
6030
6030
E030
E038
E038
E038
E038
6030
6030
6030
38E0
3FE0
0F80
ENDCHAR
STARTCHAR 1ED7
ENCODING 7895
SWIDTH 600 0
DWIDTH 15 0
BBX 11 23 2 0
BITMAP
3C80
7FC0
2780
0000
0E00
1B00
3180
60C0
0000
0000
1F00
7FC0
60C0
C060
C060
C060
C060
C060
C060
C060
60C0
7FC0
1F00
ENDCHAR
STARTCHAR 1ED8
ENCODING 7896
SWIDTH 600 0
DWIDTH 15 0
BBX 13 28 1 -5
BITMAP
0700
0D80
18C0
3060
0000
0000
0F80
3FE0
38E0
6030
6030
6030
E030
E038
E038
E038
E038
6030
6030
6030
38E0
3FE0
0F80
0000
0000
0700
0700
0700
ENDCHAR
STARTCHAR 1ED9
ENCODING 7897
SWIDTH 600 0
DWIDTH 15 0
BBX 11 24 2 -5
BITMAP
0E00
1B00
3180
60C0
0000
0000
1F00
7FC0
60C0
C060
C060
C060
C060
C060
C060
C060
60C0
7FC0
1F00
0000
0000
0E00
0E00
0E00
ENDCHAR
STARTCHAR 1EDA
ENCODING 7898
SWIDTH 600 0
DWIDTH 15 0
BBX 13 24 1 0
BITMAP
0100
0180
0300
0300
0618
0018
0018
0FF8
3FF0
38E0
6030
6030
6030
E030
E038
E038
E038
E038
6030
6030
6030
38E0
3FE0
0F80
ENDCHAR
STARTCHAR 1EDB
ENCODING 7899
SWIDTH 600 0
DWIDTH 15 0
BBX 12 20 2 0
BITMAP
0200
0300
0600
0600
0C30
0030
0030
1FE0
7FE0
60C0
C060
C060
C060
C060
C060
C060
C060
60C0
7FC0
1F00
ENDCHAR
STARTCHAR 1EDC
ENCODING 7900
SWIDTH 600 0
DWIDTH 15 0
BBX 13 24 1 0
BITMAP
0400
0C00
0600
0600
0318
0018
0018
0FF8
3FF0
38E0
6030
6030
6030
E030
E038
E038
E038
E038
6030
6030
6030
38E0
3FE0
0F80
ENDCHAR
STARTCHAR 1EDD
ENCODING 7901
SWIDTH 600 0
DWIDTH 15 0
BBX 12 20 2 0
BITMAP
0800
1800
0C00
0C00
0630
0030
0030
1FE0
7FE0
60C0
C060
C060
C060
C060
C060
C060
C060
60C0
7FC0
1F00
ENDCHAR
STARTCHAR 1EDE
ENCODING 7902
SWIDTH 600 0
DWIDTH 15 0
BBX 13 24 1 0
BITMAP
0F80
0F80
0180
0300
0218
0018
0018
0FF8
3FF0
38E0
6030
6030
6030
E030
E038
E038
E038
E038
6030
6030
6030
38E0
3FE0
0F80
ENDCHAR
STARTCHAR 1EDF
ENCODING 7903
SWIDTH 600 0
DWIDTH 15 0
BBX 12 19 2 0
BITMAP
1F00
1F00
0300
0630
0430
0030
1FE0
7FE0
60C0
C060
C060
C060
C060
C060
C060
C060
60C0
7FC0
1F00
ENDCHAR
STARTCHAR 1EE0
ENCODING 7904
SWIDTH 600 0
DWIDTH 15 0
BBX 13 22 1 0
BITMAP
0E40
1FC0
1398
0018
0018
0FF8
3FF0
38E0
6030
6030
6030
E030
E038
E038
E038
E038
6030
6030
6030
38E0
3FE0
0F80
ENDCHAR
STARTCHAR 1EE1
ENCODING 7905
SWIDTH 600 0
DWIDTH 15 0
BBX 12 18 2 0
BITMAP
1C80
3F80
2730
0030
0030
1FE0
7FE0
60C0
C060
C060
C060
C060
C060
C060
C060
60C0
7FC0
1F00
ENDCHAR
STARTCHAR 1EE2
ENCODING 7906
SWIDTH 600 0
DWIDTH 15 0
BBX 13 25 1 -5
BITMAP
0018
0018
0018
0FF8
3FF0
38E0
6030
6030
6030
E030
E038
E038
E038
E038
6030
6030
6030
38E0
3FE0
0F80
0000
0000
0700
0700
0700
ENDCHAR
STARTCHAR 1EE3
ENCODING 7907
SWIDTH 600 0
DWIDTH 15 0
BBX 12 21 2 -5
BITMAP
0030
0030
0030
1FE0
7FE0
60C0
C060
C060
C060
C060
C060
C060
C060
60C0
7FC0
1F00
0000
0000
0E00
0E00
0E00
ENDCHAR
STARTCHAR 1EE4
ENCODING 7908
SWIDTH 600 0
DWIDTH 15 0
BBX 11 22 2 -5
BITMAP
C060
C060
C060
C060
C060
C060
C060
C060
C060
C060
C060
C060
C060
E0E0
60C0
7FC0
1F00
0000
0000
0E00
0E00
0E00
ENDCHAR
STARTCHAR 1EE5
ENCODING 7909
SWIDTH 600 0
DWIDTH 15 0
BBX 11 18 2 -5
BITMAP
C060
C060
C060
C060
C060
C060
C060
C060
C060
E0E0
6160
7F60
1E60
0000
0000
0E00
0E00
0E00
ENDCHAR
STARTCHAR 1EE6
ENCODING 7910
SWIDTH 600 0
DWIDTH 15 0
BBX 11 24 2 0
BITMAP
1F00
1F00
0300
0600
0400
0000
0000
C060
C060
C060
C060
C060
C060
C060
C060
C060
C060
C060
C060
C060
E0E0
60C0
7FC0
1F00
ENDCHAR
STARTCHAR 1EE7
ENCODING 7911
SWIDTH 600 0
DWIDTH 15 0
BBX 11 19 2 0
BITMAP
1E00
1F00
0300
0600
0400
0000
C060
C060
C060
C060
C060
C060
C060
C060
C060
E0E0
6160
7F60
1E60
ENDCHAR
STARTCHAR 1EE8
ENCODING 7912
SWIDTH 600 0
DWIDTH 15 0
BBX 13 24 2 0
BITMAP
0200
0300
0600
0600
0C18
0018
0018
C078
C060
C060
C060
C060
C060
C060
C060
C060
C060
C060
C060
C060
E0E0
60C0
7FC0
1F00
ENDCHAR
STARTCHAR 1EE9
ENCODING 7913
SWIDTH 600 0
DWIDTH 15 0
BBX 13 20 2 0
BITMAP
0200
0300
0600
0600
0C18
0018
0018
C070
C060
C060
C060
C060
C060
C060
C060
C060
E0E0
6160
7F60
1E60
ENDCHAR
STARTCHAR 1EEA
ENCODING 7914
SWIDTH 600 0
DWIDTH 15 0
BBX 13 24 2 0
BITMAP
0800
1800
0C00
0C00
0618
0018
0018
C078
C060
C060
C060
C060
C060
C060
C060
C060
C060
C060
C060
C060
E0E0
60C0
7FC0
1F00
ENDCHAR
STARTCHAR 1EEB
ENCODING 7915
SWIDTH 600 0
DWIDTH 15 0
BBX 13 20 2 0
BITMAP
0800
1800
0C00
0C00
0618
0018
0018
C070
C060
C060
C060
C060
C060
C060
C060
C060
E0E0
6160
7F60
1E60
ENDCHAR
STARTCHAR 1EEC
ENCODING 7916
SWIDTH 600 0
DWIDTH 15 0
BBX 13 24 2 0
BITMAP
1F00
1F00
0300
0600
0418
0018
0018
C078
C060
C060
C060
C060
C060
C060
C060
C060
C060
C060
C060
C060
E0E0
60C0
7FC0
1F00
ENDCHAR
STARTCHAR 1EED
ENCODING 7917
SWIDTH 600 0
DWIDTH 15 0
BBX 13 19 2 0
BITMAP
1E00
1F00
0300
0618
0418
0018
C070
C060
C060
C060
C060
C060
C060
C060
C060
E0E0
6160
7F60
1E60
ENDCHAR
STARTCHAR 1EEE
ENCODING 7918
SWIDTH 600 0
DWIDTH 15 0
BBX 13 22 2 0
BITMAP
1C80
3F80
2718
0018
0018
C078
C060
C060
C060
C060
C060
C060
C060
C060
C060
C060
C060
C060
E0E0
60C0
7FC0
1F00
ENDCHAR
STARTCHAR 1EEF
ENCODING 7919
SWIDTH 600 0
DWIDTH 15 0
BBX 13 18 2 0
BITMAP
1C80
3F80
2718
0018
0018
C070
C060
C060
C060
C060
C060
C060
C060
C060
E0E0
6160
7F60
1E60
ENDCHAR
STARTCHAR 1EF0
ENCODING 7920
SWIDTH 600 0
DWIDTH 15 0
BBX 13 25 2 -5
BITMAP
0018
0018
0018
C078
C060
C060
C060
C060
C060
C060
C060
C060
C060
C060
C060
C060
E0E0
60C0
7FC0
1F00
0000
0000
0E00
0E00
0E00
ENDCHAR
STARTCHAR 1EF1
ENCODING 7921
SWIDTH 600 0
DWIDTH 15 0
BBX 13 21 2 -5
BITMAP
0018
0018
0018
C070
C060
C060
C060
C060
C060
C060
C060
C060
E0E0
6160
7F60
1E60
0000
0000
0E00
0E00
0E00
ENDCHAR
STARTCHAR 1EF2
ENCODING 7922
SWIDTH 600 0
DWIDTH 15 0
BBX 15 24 0 0
BITMAP
0200
0600
0300
0300
0180
0000
0000
E00E
701C
3018
1838
1830
0C60
0EE0
06C0
03C0
0380
0380
0380
0380
0380
0380
0380
0380
ENDCHAR
STARTCHAR 1EF3
ENCODING 7923
SWIDTH 600 0
DWIDTH 15 0
BBX 13 25 1 -5
BITMAP
0400
0C00
0600
0600
0300
0000
0000
E038
6030
6030
3060
3060
18C0
18C0
18C0
0D80
0D80
0700
0700
0700
0600
0600
0C00
7C00
7800
ENDCHAR
STARTCHAR 1EF4
ENCODING 7924
SWIDTH 600 0
DWIDTH 15 0
BBX 15 22 0 -5
BITMAP
E00E
701C
3018
1838
1830
0C60
0EE0
06C0
03C0
0380
0380
0380
0380
0380
0380
0380
0380
0000
0000
0380
0380
0380
ENDCHAR
STARTCHAR 1EF5
ENCODING 7925
SWIDTH 600 0
DWIDTH 15 0
BBX 13 18 1 -5
BITMAP
E038
6030
6030
3060
3060
18C0
18C0
18C0
0D80
0D80
0700
0700
0700
0600
0600
0C70
7C70
7870
ENDCHAR
STARTCHAR 1EF6
ENCODING 7926
SWIDTH 600 0
DWIDTH 15 0
BBX 15 24 0 0
BITMAP
07C0
07C0
00C0
0180
0100
0000
0000
E00E
701C
3018
1838
1830
0C60
0EE0
06C0
03C0
0380
0380
0380
0380
0380
0380
0380
0380
ENDCHAR
STARTCHAR 1EF7
ENCODING 7927
SWIDTH 600 0
DWIDTH 15 0
BBX 13 24 1 -5
BITMAP
0F80
0F80
0180
0300
0200
0000
E038
6030
6030
3060
3060
18C0
18C0
18C0
0D80
0D80
0700
0700
0700
0600
0600
0C00
7C00
7800
ENDCHAR
STARTCHAR 1EF8
ENCODING 7928
SWIDTH 600 0
DWIDTH 15 0
BBX 15 22 0 0
BITMAP
0F20
1FF0
09E0
0000
0000
E00E
701C
3018
1838
1830
0C60
0EE0
06C0
03C0
0380
0380
0380
0380
0380
0380
0380
0380
ENDCHAR
STARTCHAR 1EF9
ENCODING 7929
SWIDTH 600 0
DWIDTH 15 0
BBX 13 23 1 -5
BITMAP
1E40
3FE0
13C0
0000
0000
E038
6030
6030
3060
3060
18C0
18C0
18C0
0D80
0D80
0700
0700
0700
0600
0600
0C00
7C00
7800
ENDCHAR
STARTCHAR 2013
ENCODING 8211
SWIDTH 600 0
DWIDTH 15 0
BBX 13 2 1 7
BITMAP
FFF8
FFF8
ENDCHAR
STARTCHAR 2014
ENCODING 8212
SWIDTH 600 0
DWIDTH 15 0
BBX 15 2 0 7
BITMAP
FFFE
FFFE
ENDCHAR
STARTCHAR 2018
ENCODING 8216
SWIDTH 600 0
DWIDTH 15 0
BBX 4 7 5 12
BITMAP
10
30
30
70
70
E0
E0
ENDCHAR
STARTCHAR 2019
ENCODING 8217
SWIDTH 600 0
DWIDTH 15 0
BBX 4 7 6 12
BITMAP
70
70
E0
E0
C0
C0
80
ENDCHAR
STARTCHAR 201A
ENCODING 8218
SWIDTH 600 0
DWIDTH 15 0
BBX 5 7 5 -4
BITMAP
78
70
70
60
60
C0
C0
ENDCHAR
STARTCHAR 201C
ENCODING 8220
SWIDTH 600 0
DWIDTH 15 0
BBX 11 7 2 12
BITMAP
1860
30C0
30C0
71C0
71C0
71C0
E380
ENDCHAR
STARTCHAR 201D
ENCODING 8221
SWIDTH 600 0
DWIDTH 15 0
BBX 10 7 3 12
BITMAP
71C0
71C0
6180
E380
C300
C300
C300
ENDCHAR
STARTCHAR 201E
ENCODING 8222
SWIDTH 600 0
DWIDTH 15 0
BBX 10 7 3 -4
BITMAP
71C0
71C0
6180
E380
C300
C300
C300
ENDCHAR
STARTCHAR 2020
ENCODING 8224
SWIDTH 600 0
DWIDTH 15 0
BBX 11 24 2 -5
BITMAP
0400
0400
0400
0400
0400
0400
FFE0
FFE0
0400
0400
0400
0400
0400
0400
0400
0400
0400
0400
0400
0400
0400
0400
0400
0400
ENDCHAR
STARTCHAR 2021
ENCODING 8225
SWIDTH 600 0
DWIDTH 15 0
BBX 11 24 2 -5
BITMAP
0400
0400
0400
0400
0400
0400
FFE0
FFE0
0400
0400
0400
0400
0400
0400
0400
0400
0400
FFE0
FFE0
0400
0400
0400
0400
0400
ENDCHAR
STARTCHAR 2022
ENCODING 8226
SWIDTH 600 0
DWIDTH 15 0
BBX 7 6 4 5
BITMAP
7C
7C
FE
FE
7C
7C
ENDCHAR
STARTCHAR 2026
ENCODING 8230
SWIDTH 600 0
DWIDTH 15 0
BBX 13 3 1 0
BITMAP
E738
E738
E738
ENDCHAR
STARTCHAR 2030
ENCODING 8240
SWIDTH 600 0
DWIDTH 15 0
BBX 15 17 0 0
BITMAP
7C00
FE00
C600
C600
C600
FC18
7C70
03C0
1E00
3800
0F3C
1FFE
18C6
18C6
18C6
1FFE
0F3C
ENDCHAR
STARTCHAR 2039
ENCODING 8249
SWIDTH 600 0
DWIDTH 15 0
BBX 6 11 4 1
BITMAP
04
0C
18
70
E0
C0
E0
70
38
0C
04
ENDCHAR
STARTCHAR 203A
ENCODING 8250
SWIDTH 600 0
DWIDTH 15 0
BBX 6 11 5 1
BITMAP
80
C0
70
38
1C
0C
1C
38
60
C0
80
ENDCHAR
STARTCHAR 2044
ENCODING 8260
SWIDTH 600 0
DWIDTH 15 0
BBX 15 17 0 0
BITMAP
000E
000C
0018
0018
0030
0020
0060
0000
0000
0000
0C00
0800
1800
3000
3000
6000
E000
ENDCHAR
STARTCHAR 2070
ENCODING 8304
SWIDTH 600 0
DWIDTH 15 0
BBX 7 9 4 8
BITMAP
3C
44
C6
C6
D6
C6
C6
44
78
ENDCHAR
STARTCHAR 2074
ENCODING 8308
SWIDTH 600 0
DWIDTH 15 0
BBX 7 9 4 8
BITMAP
1C
1C
2C
6C
4C
8C
FE
0C
0C
ENDCHAR
STARTCHAR 2075
ENCODING 8309
SWIDTH 600 0
DWIDTH 15 0
BBX 7 9 4 8
BITMAP
7C
40
C0
FC
C6
06
06
C4
78
ENDCHAR
STARTCHAR 2076
ENCODING 8310
SWIDTH 600 0
DWIDTH 15 0
BBX 7 9 4 8
BITMAP
1C
20
40
FC
C6
C6
C6
C6
7C
ENDCHAR
STARTCHAR 2077
ENCODING 8311
SWIDTH 600 0
DWIDTH 15 0
BBX 7 9 4 8
BITMAP
FE
86
84
0C
08
18
10
30
30
ENDCHAR
STARTCHAR 2078
ENCODING 8312
SWIDTH 600 0
DWIDTH 15 0
BBX 7 9 4 8
BITMAP
7C
C6
C6
44
38
C6
C6
C6
7C
ENDCHAR
STARTCHAR 2079
ENCODING 8313
SWIDTH 600 0
DWIDTH 15 0
BBX 7 9 4 8
BITMAP
7C
C4
C6
C6
C6
7E
0C
18
70
ENDCHAR
STARTCHAR 2080
ENCODING 8320
SWIDTH 600 0
DWIDTH 15 0
BBX 7 9 4 0
BITMAP
3C
44
C6
C6
D6
C6
C6
44
78
ENDCHAR
STARTCHAR 2081
ENCODING 8321
SWIDTH 600 0
DWIDTH 15 0
BBX 7 9 4 0
BITMAP
38
D8
18
18
18
18
18
18
FE
ENDCHAR
STARTCHAR 2082
ENCODING 8322
SWIDTH 600 0
DWIDTH 15 0
BBX 7 9 4 0
BITMAP
78
C4
06
04
0C
18
30
40
FE
ENDCHAR
STARTCHAR 2083
ENCODING 8323
SWIDTH 600 0
DWIDTH 15 0
BBX 7 9 4 0
BITMAP
7C
C4
06
0C
38
06
06
C6
7C
ENDCHAR
STARTCHAR 2084
ENCODING 8324
SWIDTH 600 0
DWIDTH 15 0
BBX 7 9 4 0
BITMAP
1C
1C
2C
6C
4C
8C
FE
0C
0C
ENDCHAR
STARTCHAR 2085
ENCODING 8325
SWIDTH 600 0
DWIDTH 15 0
BBX 7 9 4 0
BITMAP
7C
40
C0
FC
C6
06
06
C4
78
ENDCHAR
STARTCHAR 2086
ENCODING 8326
SWIDTH 600 0
DWIDTH 15 0
BBX 7 9 4 0
BITMAP
1C
20
40
FC
C6
C6
C6
C6
7C
ENDCHAR
STARTCHAR 2087
ENCODING 8327
SWIDTH 600 0
DWIDTH 15 0
BBX 7 9 4 0
BITMAP
FE
86
84
0C
08
18
10
30
30
ENDCHAR
STARTCHAR 2088
ENCODING 8328
SWIDTH 600 0
DWIDTH 15 0
BBX 7 9 4 0
BITMAP
7C
C6
C6
44
38
C6
C6
C6
7C
ENDCHAR
STARTCHAR 2089
ENCODING 8329
SWIDTH 600 0
DWIDTH 15 0
BBX 7 9 4 0
BITMAP
7C
C4
C6
C6
C6
7E
0C
18
70
ENDCHAR
STARTCHAR 20A1
ENCODING 8353
SWIDTH 600 0
DWIDTH 15 0
BBX 11 23 2 -3
BITMAP
0D80
0D80
0D80
1F80
3FC0
7DE0
6960
C940
C900
C900
D900
DB00
DB00
DB00
D300
D240
7260
72E0
3FC0
3F00
3600
3600
3600
ENDCHAR
STARTCHAR 20A4
ENCODING 8356
SWIDTH 600 0
DWIDTH 15 0
BBX 13 17 1 0
BITMAP
0FC0
1FE0
3870
3018
7000
3000
FF80
FF80
3000
1800
FF80
FF80
1800
3000
6000
7FF0
7FF0
ENDCHAR
STARTCHAR 20A6
ENCODING 8358
SWIDTH 600 0
DWIDTH 15 0
BBX 13 17 1 0
BITMAP
7830
7830
7830
6C30
6C30
E7F8
E7F8
6630
6330
FF38
FF38
61B0
61B0
61B0
60F0
60F0
60F0
ENDCHAR
STARTCHAR 20A8
ENCODING 8360
SWIDTH 600 0
DWIDTH 15 0
BBX 14 17 1 0
BITMAP
FC00
FE00
C600
C300
C300
C378
C6FC
FEC8
F8C0
CC60
CC70
CE38
C61C
C70C
C31C
C3F8
C1F0
ENDCHAR
STARTCHAR 20A9
ENCODING 8361
SWIDTH 600 0
DWIDTH 15 0
BBX 13 17 1 0
BITMAP
6030
6030
6030
6030
6030
FFF8
FFF8
6530
65B0
EDB8
EDB8
6DB0
68B0
68B0
68F0
78F0
78F0
ENDCHAR
STARTCHAR 20AA
ENCODING 8362
SWIDTH 600 0
DWIDTH 15 0
BBX 13 17 1 0
BITMAP
FE18
FF18
C398
C198
CD98
CD98
CD98
CD98
CD98
CD98
CD98
CD98
CD98
CC30
CC30
CFF0
CFC0
ENDCHAR
STARTCHAR 20AB
ENCODING 8363
SWIDTH 600 0
DWIDTH 15 0
BBX 12 19 2 0
BITMAP
00C0
00C0
0FF0
0FF0
00C0
3EC0
7FC0
E1C0
C0C0
C0C0
C0C0
C0C0
E1C0
7FC0
3EC0
0000
0000
FFE0
FFE0
ENDCHAR
STARTCHAR 20AC
ENCODING 8364
SWIDTH 600 0
DWIDTH 15 0
BBX 11 17 2 0
BITMAP
1F00
3FC0
70E0
6060
C040
FF00
FF00
C000
C000
FF00
FF00
C000
C020
6060
70E0
3FC0
1F00
ENDCHAR
STARTCHAR 20AD
ENCODING 8365
SWIDTH 600 0
DWIDTH 15 0
BBX 13 17 1 0
BITMAP
7038
7070
70E0
70C0
7180
7300
7700
FFF8
FFF8
7700
7300
7180
71C0
70E0
7060
7070
7038
ENDCHAR
STARTCHAR 20AE
ENCODING 8366
SWIDTH 600 0
DWIDTH 15 0
BBX 13 17 1 0
BITMAP
FFF8
FFF8
0700
0700
0720
07E0
07C0
1F00
3F20
27E0
07C0
1F00
3F00
2700
0700
0700
0700
ENDCHAR
STARTCHAR 20B1
ENCODING 8369
SWIDTH 600 0
DWIDTH 15 0
BBX 13 17 1 0
BITMAP
7F80
7FE0
6060
6030
FFF8
FFF8
6030
FFF8
FFF8
6030
6060
7FE0
7F80
6000
6000
6000
6000
ENDCHAR
STARTCHAR 20B2
ENCODING 8370
SWIDTH 600 0
DWIDTH 15 0
BBX 12 23 1 -3
BITMAP
0080
0080
0180
0F80
1FE0
39E0
6130
6120
6300
E300
C200
C3F0
C3F0
C630
6630
6630
7430
3C60
1FC0
0F80
0C00
0C00
0800
ENDCHAR
STARTCHAR 20B4
ENCODING 8372
SWIDTH 600 0
DWIDTH 15 0
BBX 13 17 1 0
BITMAP
0F80
3FC0
70E0
0060
0060
FFF8
FFF8
0380
0E00
FFF8
FFF8
3000
3000
3020
3870
1FE0
0F80
ENDCHAR
STARTCHAR 20B5
ENCODING 8373
SWIDTH 600 0
DWIDTH 15 0
BBX 11 23 2 -3
BITMAP
0180
0100
0100
1F80
3FC0
73E0
6260
C220
C600
C600
C600
C400
C400
C400
CC00
CC20
6860
78E0
3FC0
1F00
1800
1800
1800
ENDCHAR
STARTCHAR 20B8
ENCODING 8376
SWIDTH 600 0
DWIDTH 15 0
BBX 13 17 1 0
BITMAP
FFF8
FFF8
0000
0000
FFF8
FFF8
0700
0700
0700
0700
0700
0700
0700
0700
0700
0700
0700
ENDCHAR
STARTCHAR 20B9
ENCODING 8377
SWIDTH 600 0
DWIDTH 15 0
BBX 13 17 1 0
BITMAP
FFF8
FFF8
0180
00C0
FFF8
FFF8
00C0
01C0
0180
FF00
FE00
0E00
0600
0300
0180
00C0
0070
ENDCHAR
STARTCHAR 20BA
ENCODING 8378
SWIDTH 600 0
DWIDTH 15 0
BBX 13 17 1 0
BITMAP
1800
1800
18C0
1BC0
1F00
3C00
F8C0
DBC0
1F00
3C18
F818
D838
1830
1870
18E0
1FC0
1F80
ENDCHAR
STARTCHAR 20BD
ENCODING 8381
SWIDTH 600 0
DWIDTH 15 0
BBX 13 17 1 0
BITMAP
3FC0
3FF0
3030
3018
3018
3018
3018
3030
FFF0
FFC0
3000
3000
FFC0
FFC0
3000
3000
3000
ENDCHAR
STARTCHAR 20BF
ENCODING 8383
SWIDTH 600 0
DWIDTH 15 0
BBX 12 23 2 -3
BITMAP
1300
1300
1300
FF80
FFC0
C0E0
C060
C060
C060
C0C0
FF80
FFC0
C0E0
C060
C070
C070
C060
C0E0
FFC0
FF80
1300
1300
1300
ENDCHAR
STARTCHAR 2113
ENCODING 8467
SWIDTH 600 0
DWIDTH 15 0
BBX 11 19 2 0
BITMAP
0F00
1F80
3980
3180
3180
3180
3180
3180
3300
3600
3E00
3C00
3800
F000
F040
3060
38C0
1F80
0F00
ENDCHAR
STARTCHAR 2116
ENCODING 8470
SWIDTH 600 0
DWIDTH 15 0
BBX 14 17 1 0
BITMAP
E278
E248
F2CC
F2CC
F2CC
F2CC
D248
D278
DA00
DAFC
DA00
DA00
DA00
CA00
CA00
CE00
CE00
ENDCHAR
STARTCHAR 2122
ENCODING 8482
SWIDTH 600 0
DWIDTH 15 0
BBX 14 7 0 10
BITMAP
FD8C
119C
115C
116C
112C
114C
110C
ENDCHAR
STARTCHAR 2126
ENCODING 8486
SWIDTH 600 0
DWIDTH 15 0
BBX 13 17 1 0
BITMAP
0F80
3FE0
3060
7070
6030
6030
6030
6030
6030
6030
6030
6030
3060
3060
18C0
FDF8
FDF8
ENDCHAR
STARTCHAR 212E
ENCODING 8494
SWIDTH 600 0
DWIDTH 15 0
BBX 13 17 1 0
BITMAP
0F80
3040
6020
6030
E038
E038
E038
E038
FFF8
E000
E000
E000
E000
6018
6030
3060
0F80
ENDCHAR
STARTCHAR 2150
ENCODING 8528
SWIDTH 600 0
DWIDTH 15 0
BBX 15 17 0 0
BITMAP
380E
580C
1818
1818
1830
1820
1860
7E00
0000
00FC
0CC4
08CC
1808
3018
3010
6030
E020
ENDCHAR
STARTCHAR 2151
ENCODING 8529
SWIDTH 600 0
DWIDTH 15 0
BBX 15 17 0 0
BITMAP
380E
580C
1818
1818
1830
1820
1860
7E00
0000
0078
0CCC
08C4
18CC
3074
300C
6018
E070
ENDCHAR
STARTCHAR 2153
ENCODING 8531
SWIDTH 600 0
DWIDTH 15 0
BBX 15 17 0 0
BITMAP
380E
580C
1818
1818
1830
1820
1860
7E00
0000
0078
0CCC
080C
1830
300C
3004
60CC
E078
ENDCHAR
STARTCHAR 2154
ENCODING 8532
SWIDTH 600 0
DWIDTH 15 0
BBX 15 17 0 0
BITMAP
3C0E
440C
0618
0418
0830
3020
6060
7E00
0000
0078
0CCC
080C
1830
300C
3004
60CC
E078
ENDCHAR
STARTCHAR 2155
ENCODING 8533
SWIDTH 600 0
DWIDTH 15 0
BBX 15 17 0 0
BITMAP
380E
580C
1818
1818
1830
1820
1860
7E00
0000
007C
0C40
0840
187C
30CC
3004
60CC
E078
ENDCHAR
STARTCHAR 2156
ENCODING 8534
SWIDTH 600 0
DWIDTH 15 0
BBX 15 17 0 0
BITMAP
3C0E
440C
0618
0418
0830
3020
6060
7E00
0000
007C
0C40
0840
187C
30CC
3004
60CC
E078
ENDCHAR
STARTCHAR 2157
ENCODING 8535
SWIDTH 600 0
DWIDTH 15 0
BBX 15 17 0 0
BITMAP
3C0E
460C
0418
1818
0430
0620
C660
7C00
0000
007C
0C40
0840
187C
30CC
3004
60CC
E078
ENDCHAR
STARTCHAR 2158
ENCODING 8536
SWIDTH 600 0
DWIDTH 15 0
BBX 15 17 0 0
BITMAP
0C0E
1C0C
2C18
6C18
4C30
FE20
0C60
0C00
0000
007C
0C40
0840
187C
30CC
3004
60CC
E078
ENDCHAR
STARTCHAR 2159
ENCODING 8537
SWIDTH 600 0
DWIDTH 15 0
BBX 15 17 0 0
BITMAP
380E
580C
1818
1818
1830
1820
1860
7E00
0000
0038
0C60
0840
18F8
30C4
30C4
60C4
E078
ENDCHAR
STARTCHAR 215A
ENCODING 8538
SWIDTH 600 0
DWIDTH 15 0
BBX 15 17 0 0
BITMAP
7E0E
400C
4018
5C18
6630
0620
4660
3C00
0000
0038
0C60
0840
18F8
30C4
30C4
60C4
E078
ENDCHAR
STARTCHAR 215B
ENCODING 8539
SWIDTH 600 0
DWIDTH 15 0
BBX 15 17 0 0
BITMAP
380E
580C
1818
1818
1830
1820
1860
7E00
0000
0078
0CCC
08C4
1838
30CC
30C4
60C4
E078
ENDCHAR
STARTCHAR 215C
ENCODING 8540
SWIDTH 600 0
DWIDTH 15 0
BBX 15 17 0 0
BITMAP
3C0E
460C
0418
1818
0430
0620
C660
7C00
0000
0078
0CCC
08C4
1838
30CC
30C4
60C4
E078
ENDCHAR
STARTCHAR 215D
ENCODING 8541
SWIDTH 600 0
DWIDTH 15 0
BBX 15 17 0 0
BITMAP
7E0E
400C
4018
5C18
6630
0620
4660
3C00
0000
0078
0CCC
08C4
1838
30CC
30C4
60C4
E078
ENDCHAR
STARTCHAR 215E
ENCODING 8542
SWIDTH 600 0
DWIDTH 15 0
BBX 15 17 0 0
BITMAP
7E0E
460C
4418
0C18
0830
1820
1060
3000
0000
0078
0CCC
08C4
1838
30CC
30C4
60C4
E078
ENDCHAR
STARTCHAR 2190
ENCODING 8592
SWIDTH 600 0
DWIDTH 15 0
BBX 14 10 0 4
BITMAP
0600
0C00
1800
3000
7FFC
FFFC
3000
1800
0C00
0600
ENDCHAR
STARTCHAR 2191
ENCODING 8593
SWIDTH 600 0
DWIDTH 15 0
BBX 11 17 2 0
BITMAP
0400
0E00
1F00
3580
64C0
C460
0400
0400
0400
0400
0400
0400
0400
0400
0400
0400
0400
ENDCHAR
STARTCHAR 2192
ENCODING 8594
SWIDTH 600 0
DWIDTH 15 0
BBX 14 10 1 4
BITMAP
0080
01C0
0060
0030
FFF8
FFFC
0030
0060
00C0
0180
ENDCHAR
STARTCHAR 2193
ENCODING 8595
SWIDTH 600 0
DWIDTH 15 0
BBX 11 17 2 0
BITMAP
0400
0400
0400
0400
0400
0400
0400
0400
0400
0400
0400
4440
E4E0
3580
1F00
0E00
0400
ENDCHAR
STARTCHAR 2194
ENCODING 8596
SWIDTH 600 0
DWIDTH 15 0
BBX 15 10 0 4
BITMAP
0C60
1C70
3838
701C
FFFE
FFFE
701C
3838
1C70
0C60
ENDCHAR
STARTCHAR 2195
ENCODING 8597
SWIDTH 600 0
DWIDTH 15 0
BBX 11 17 2 0
BITMAP
0400
0E00
1F00
3580
64C0
C460
0400
0400
0400
0400
0400
4440
E4E0
3580
1F00
0E00
0400
ENDCHAR
STARTCHAR 2196
ENCODING 8598
SWIDTH 600 0
DWIDTH 15 0
BBX 13 13 1 3
BITMAP
FF00
FF00
F000
D800
DC00
CE00
C700
C380
01C0
00E0
0070
0038
0018
ENDCHAR
STARTCHAR 2197
ENCODING 8599
SWIDTH 600 0
DWIDTH 15 0
BBX 13 13 1 3
BITMAP
07F8
07F8
0078
00D8
01D8
0398
0718
0E18
1C00
3800
7000
E000
C000
ENDCHAR
STARTCHAR 2198
ENCODING 8600
SWIDTH 600 0
DWIDTH 15 0
BBX 13 13 1 2
BITMAP
C000
E000
7000
3800
1C00
0E18
0718
0398
01D8
00D8
0078
07F8
07F8
ENDCHAR
STARTCHAR 2199
ENCODING 8601
SWIDTH 600 0
DWIDTH 15 0
BBX 13 13 1 2
BITMAP
0018
0038
0070
00E0
01C0
C380
C700
CE00
DC00
D800
F000
FF00
FF00
ENDCHAR
STARTCHAR 21A9
ENCODING 8617
SWIDTH 600 0
DWIDTH 15 0
BBX 15 14 0 2
BITMAP
0060
0078
001C
000C
0604
0C06
180C
301C
7FF8
FFF0
3000
1800
0C00
0600
ENDCHAR
STARTCHAR 21AA
ENCODING 8618
SWIDTH 600 0
DWIDTH 15 0
BBX 15 14 0 2
BITMAP
0400
3C00
7000
6000
40C0
C060
6030
7018
3FFC
1FFE
0018
0030
0060
00C0
ENDCHAR
STARTCHAR 21B0
ENCODING 8624
SWIDTH 600 0
DWIDTH 15 0
BBX 12 17 1 0
BITMAP
0C00
1C00
3800
7000
7FF0
FFF0
7030
3830
1C30
0C30
0030
0030
0030
0030
0030
0030
0030
ENDCHAR
STARTCHAR 21B1
ENCODING 8625
SWIDTH 600 0
DWIDTH 15 0
BBX 12 17 2 0
BITMAP
0300
0380
01C0
00E0
FFF0
FFE0
C0E0
C1C0
C380
C300
C000
C000
C000
C000
C000
C000
C000
ENDCHAR
STARTCHAR 21B2
ENCODING 8626
SWIDTH 600 0
DWIDTH 15 0
BBX 12 17 1 0
BITMAP
0030
0030
0030
0030
0030
0030
0030
0C30
1C30
3830
7030
7FF0
FFF0
7000
3800
1C00
0C00
ENDCHAR
STARTCHAR 21B3
ENCODING 8627
SWIDTH 600 0
DWIDTH 15 0
BBX 12 17 2 0
BITMAP
C000
C000
C000
C000
C000
C000
C000
C300
C380
C1C0
C0E0
FFF0
FFE0
00E0
01C0
0380
0300
ENDCHAR
STARTCHAR 21B6
ENCODING 8630
SWIDTH 600 0
DWIDTH 15 0
BBX 15 16 0 1
BITMAP
00F0
03F8
071C
060C
0406
0C06
0C00
0C00
0C00
4C80
ECC0
7D80
3700
1E00
0C00
0800
ENDCHAR
STARTCHAR 21B7
ENCODING 8631
SWIDTH 600 0
DWIDTH 15 0
BBX 15 16 0 1
BITMAP
1F00
3F80
71C0
60C0
C040
C060
0060
0060
0060
0464
0666
036C
01D8
00F0
0060
0040
ENDCHAR
STARTCHAR 21BA
ENCODING 8634
SWIDTH 600 0
DWIDTH 15 0
BBX 13 17 1 0
BITMAP
03F8
13F8
3B80
7360
6330
C330
C318
8018
8008
8008
8008
C018
C018
6030
3070
1FE0
0F80
ENDCHAR
STARTCHAR 21BB
ENCODING 8635
SWIDTH 600 0
DWIDTH 15 0
BBX 13 17 1 0
BITMAP
FE00
FE80
0EE0
3670
6630
6618
C618
C008
8008
8008
8018
C018
C018
E030
7060
3FC0
0F80
ENDCHAR
STARTCHAR 21C4
ENCODING 8644
SWIDTH 600 0
DWIDTH 15 0
BBX 15 18 0 0
BITMAP
00C0
0060
0030
0018
7FFC
7FFE
0018
0030
0660
0CC0
1800
3000
7FFC
FFFC
3000
1800
0C00
0600
ENDCHAR
STARTCHAR 21C6
ENCODING 8646
SWIDTH 600 0
DWIDTH 15 0
BBX 15 18 0 0
BITMAP
0600
0C00
1800
3000
7FFC
FFFC
3000
1800
0C40
06E0
0030
0018
7FFC
7FFE
0018
0030
0060
00C0
ENDCHAR
STARTCHAR 2202
ENCODING 8706
SWIDTH 600 0
DWIDTH 15 0
BBX 11 17 2 0
BITMAP
3C00
0E00
0700
0180
01C0
1EC0
7F60
60E0
C060
C060
C060
C060
C060
C060
60C0
7FC0
1F00
ENDCHAR
STARTCHAR 2206
ENCODING 8710
SWIDTH 600 0
DWIDTH 15 0
BBX 13 17 1 0
BITMAP
0700
0700
0D80
0D80
0D80
18C0
18C0
18C0
3060
3060
3060
6030
6030
6030
C018
FFF8
FFF8
ENDCHAR
STARTCHAR 220F
ENCODING 8719
SWIDTH 600 0
DWIDTH 15 0
BBX 11 17 2 0
BITMAP
FFE0
FFE0
C060
C060
C060
C060
C060
C060
C060
C060
C060
C060
C060
C060
C060
C060
C060
ENDCHAR
STARTCHAR 2211
ENCODING 8721
SWIDTH 600 0
DWIDTH 15 0
BBX 11 22 2 -5
BITMAP
FFE0
FFE0
C000
6000
3000
3800
1800
0C00
0600
0700
0300
0700
0600
0C00
1C00
1800
3000
7000
6000
C000
FFE0
FFE0
ENDCHAR
STARTCHAR 2212
ENCODING 8722
SWIDTH 600 0
DWIDTH 15 0
BBX 11 2 2 7
BITMAP
FFE0
FFE0
ENDCHAR
STARTCHAR 221A
ENCODING 8730
SWIDTH 600 0
DWIDTH 15 0
BBX 13 17 1 0
BITMAP
0018
0018
0018
0030
F030
F030
3060
1860
1860
18C0
18C0
0CC0
0CC0
0D80
0780
0780
0700
ENDCHAR
STARTCHAR 221E
ENCODING 8734
SWIDTH 600 0
DWIDTH 15 0
BBX 15 9 0 3
BITMAP
3C38
7E7C
66CC
C386
C106
C386
66CC
7CFC
3878
ENDCHAR
STARTCHAR 222B
ENCODING 8747
SWIDTH 600 0
DWIDTH 15 0
BBX 12 24 1 -5
BITMAP
03F0
07F0
0600
0600
0600
0600
0600
0600
0600
0600
0600
0600
0600
0600
0600
0600
0600
0600
0600
0600
0600
0600
FE00
FC00
ENDCHAR
STARTCHAR 2248
ENCODING 8776
SWIDTH 600 0
DWIDTH 15 0
BBX 13 9 1 3
BITMAP
3C10
7F38
67F0
C1E0
0000
3C10
7F38
67F0
C1E0
ENDCHAR
STARTCHAR 2260
ENCODING 8800
SWIDTH 600 0
DWIDTH 15 0
BBX 11 13 2 1
BITMAP
00C0
0180
0100
FFE0
FFE0
0600
0400
0C00
FFE0
FFE0
1000
3000
6000
ENDCHAR
STARTCHAR 2264
ENCODING 8804
SWIDTH 600 0
DWIDTH 15 0
BBX 11 15 2 0
BITMAP
0020
00E0
03C0
1F00
7800
E000
E000
7800
1F00
07C0
00E0
0020
0000
FFE0
FFE0
ENDCHAR
STARTCHAR 2265
ENCODING 8805
SWIDTH 600 0
DWIDTH 15 0
BBX 11 15 2 0
BITMAP
8000
E000
7800
1F00
07C0
00E0
00E0
03C0
0F00
7C00
E000
8000
0000
FFE0
FFE0
ENDCHAR
STARTCHAR 25CA
ENCODING 9674
SWIDTH 600 0
DWIDTH 15 0
BBX 13 17 1 0
BITMAP
0700
0700
0D80
18C0
18C0
3060
6030
6030
C018
6030
6030
3060
18C0
18C0
0D80
0780
0700
ENDCHAR
STARTCHAR 2713
ENCODING 10003
SWIDTH 600 0
DWIDTH 15 0
BBX 14 18 1 0
BITMAP
000C
0018
0018
0018
0030
C030
E060
6060
6060
30C0
30C0
3080
1980
1980
1B00
0F00
0E00
0600
ENDCHAR
STARTCHAR 274C
ENCODING 10060
SWIDTH 600 0
DWIDTH 15 0
BBX 13 17 1 0
BITMAP
4010
E038
7070
3060
18C0
1DC0
0D80
0700
0700
0F00
0D80
18C0
38E0
3060
6030
E038
4020
ENDCHAR
STARTCHAR 2B0E
ENCODING 11022
SWIDTH 600 0
DWIDTH 15 0
BBX 13 13 1 2
BITMAP
FF80
FF80
0180
0180
0180
0180
1190
1998
0DB0
07E0
03C0
0180
0100
ENDCHAR
STARTCHAR 2B0F
ENCODING 11023
SWIDTH 600 0
DWIDTH 15 0
BBX 13 13 1 3
BITMAP
0100
0180
03C0
07E0
0DB0
1998
1190
0180
0180
0180
0180
FF80
FF80
ENDCHAR
STARTCHAR 2B10
ENCODING 11024
SWIDTH 600 0
DWIDTH 15 0
BBX 13 13 1 2
BITMAP
0FF8
0FF8
0C00
0C00
0C00
0C00
8C80
CCC0
6D80
3F00
1E00
0C00
0800
ENDCHAR
STARTCHAR 2B11
ENCODING 11025
SWIDTH 600 0
DWIDTH 15 0
BBX 13 13 1 3
BITMAP
0800
0C00
1E00
3F00
6D80
CCC0
8C80
0C00
0C00
0C00
0C00
0FF8
0FF8
ENDCHAR
STARTCHAR F6D7
ENCODING 63191
SWIDTH 0 0
DWIDTH 0 0
BBX 8 8 -4 15
BITMAP
04
0E
0C
18
10
E7
E7
E7
ENDCHAR
STARTCHAR F6D8
ENCODING 63192
SWIDTH 0 0
DWIDTH 0 0
BBX 8 8 -4 15
BITMAP
20
70
30
18
10
E7
E7
E7
ENDCHAR
STARTCHAR FB01
ENCODING 64257
SWIDTH 600 0
DWIDTH 15 0
BBX 12 19 1 0
BITMAP
1E70
3E70
3070
3000
3000
3000
FFF0
FFF0
3030
3030
3030
3030
3030
3030
3030
3030
3030
3030
3030
ENDCHAR
STARTCHAR FB02
ENCODING 64258
SWIDTH 600 0
DWIDTH 15 0
BBX 12 19 1 0
BITMAP
1F30
3F30
3030
3030
3030
3030
FF30
FF30
3030
3030
3030
3030
3030
3030
3030
3030
3030
3030
3030
ENDCHAR
ENDFONT
